<?xml version="1.0" encoding="UTF-8" standalone="no"?>
<svg
   width="1000"
   height="3612"
   viewBox="0 0 1000 3612"
   fill="none"
   version="1.1"
   id="svg1"
   sodipodi:docname="Sting-blue.svg"
   inkscape:version="1.4 (86a8ad7, 2024-10-11)"
   xmlns:inkscape="http://www.inkscape.org/namespaces/inkscape"
   xmlns:sodipodi="http://sodipodi.sourceforge.net/DTD/sodipodi-0.dtd"
   xmlns="http://www.w3.org/2000/svg"
   xmlns:svg="http://www.w3.org/2000/svg">
  <sodipodi:namedview
     id="namedview1"
     pagecolor="#ffffff"
     bordercolor="#000000"
     borderopacity="0.25"
     inkscape:showpageshadow="2"
     inkscape:pageopacity="0.0"
     inkscape:pagecheckerboard="0"
     inkscape:deskcolor="#d1d1d1"
     inkscape:zoom="0.3230897"
     inkscape:cx="1389.7069"
     inkscape:cy="1802.9049"
     inkscape:window-width="2560"
     inkscape:window-height="1369"
     inkscape:window-x="2552"
     inkscape:window-y="-8"
     inkscape:window-maximized="1"
     inkscape:current-layer="svg1" />
  <defs
     id="defs1">
    <clipPath
       id="clip0_601_14">
      <rect
         width="3611.76"
         height="1000"
         fill="white"
         transform="matrix(0 -1 1 0 0 3611.76)"
         id="rect1" />
    </clipPath>
  </defs>
  <path
     style="fill:#999999;stroke-width:3.09512"
     d="m 399.89438,2028.8483 c -1.18671,-79.1576 -6.30842,-332.6475 -11.38158,-563.311 -19.92921,-906.13024 -20.07404,-939.66894 -4.551,-1053.88691 11.43996,-84.17484 28.64728,-169.45249 46.83993,-232.13368 12.46736,-42.95519 28.17711,-85.115682 31.71562,-85.115682 8.42242,0 12.39203,227.442372 12.49786,716.076652 0.0783,361.55502 -0.31402,392.48392 -4.95613,390.70262 -40.19515,-15.4244 -60.16064,-3.8311 -55.86499,32.4389 2.62032,22.1245 15.59178,44.0411 43.10925,72.8375 l 23.98715,25.102 v 211.3025 211.3025 l -15.51132,47.9066 c -19.96496,61.6616 -32.53667,111.7414 -41.84623,166.696 -8.8904,52.4802 -16.85619,125.4689 -17.1036,156.7164 -0.0981,12.3902 -1.21313,28.0988 -2.47783,34.908 -1.26471,6.8093 -3.27042,-52.3848 -4.45713,-131.5424 z"
     id="path2" />
  <path
     style="fill:#999999;stroke-width:3.09512"
     d="m 577.76693,1403.2878 c -10.34898,-51.3839 -42.68504,-129.2774 -69.71455,-167.9336 l -12.70333,-18.1676 -2.12162,-331.58047 c -1.16689,-182.36923 -2.1851,-437.43338 -2.26269,-566.80921 -0.16,-266.802505 -3.24909,-246.047446 26.71846,-179.51671 44.74869,99.34623 63.13743,184.85345 71.88693,334.27249 6.26075,106.91758 1.43379,904.0532 -5.68613,939.0204 -2.03863,10.0121 -2.31493,9.5927 -6.11707,-9.2853 z"
     id="path3" />
  <path
     style="fill:#999999;stroke-width:3.09512"
     d="m 498.8252,1697.3493 c -2.6933,-22.4313 -2.17997,-396.7728 0.5683,-414.4239 l 2.1686,-13.928 5.4332,8.1109 c 37.304,55.6888 42.41027,296.1021 8.6048,405.1311 -3.43833,11.0893 -8.16807,22.7834 -10.51054,25.9869 -3.85966,5.2784 -4.44707,4.2584 -6.26436,-10.877 z"
     id="path4" />
  <path
     style="fill:#999999;stroke-width:3.09512"
     d="m 497.73084,1881.8303 0.6074,-105.2339 11.22926,-26.3085 c 24.16015,-56.6036 43.63412,-133.6567 47.94117,-189.6899 1.14895,-14.9475 3.09524,-27.7991 4.32509,-28.5592 4.39822,-2.7182 6.27303,59.6735 3.1479,104.7589 -4.74621,68.4725 -10.87382,103.8977 -32.8827,190.1027 -10.97521,42.9881 -23.33457,96.611 -27.46523,119.162 l -7.51029,41.0019 z"
     id="path5" />
  <path
     style="fill:#999999;stroke-width:3.09512"
     d="m 571.87564,2373.1799 c -39.25322,-82.5128 -51.44073,-143.9895 -51.38852,-259.2159 0.043,-94.8837 11.23541,-182.6699 35.51541,-278.5604 5.17243,-20.4278 12.70421,-52.9837 16.7373,-72.3466 4.03308,-19.3628 7.87186,-35.7441 8.53062,-36.4029 0.65876,-0.6587 0.54465,108.5013 -0.25357,242.578 -1.69526,284.753 1.54366,391.6793 13.17359,434.899 5.36979,19.9555 -4.82301,5.8178 -22.31483,-30.9512 z"
     id="path6" />
  <path
     style="fill:#999999;stroke-width:3.09512"
     d="m 446.10264,2357.5875 c -7.41096,-11.9912 -9.68677,-57.1983 -9.61564,-191.0065 0.0632,-118.8354 0.95963,-148.2463 5.42197,-177.8845 5.32328,-35.3565 33.53392,-155.689 35.17971,-150.0591 0.47535,1.626 2.25022,108.8065 3.94416,238.1788 l 3.0799,235.2225 -12.36832,18.9836 c -13.8916,21.3216 -23.03076,30.7899 -25.64178,26.5652 z"
     id="path7" />
  <path
     style="fill:#999999;stroke-width:0.547144"
     d="m 437.56404,2380.5313 c -1.77221,-0.7125 -4.10654,-7.6068 -6.66472,-19.6839 -3.80526,-17.9646 -7.91724,-45.914 -14.3569,-97.5849 l -1.80702,-14.4993 0.0241,-40.7623 c 0.023,-38.9439 0.39458,-55.3148 2.18568,-96.2974 2.46802,-56.4713 5.03807,-86.2913 8.29943,-96.2974 l 0.98084,-3.0093 0.16517,4.3772 c 0.0908,2.4074 -0.22438,10.4094 -0.7005,17.7822 -3.29961,51.0949 -3.56204,57.8007 -3.93985,100.6745 -0.8351,94.7651 5.43506,182.7517 16.49316,231.4421 2.02782,8.9288 2.36259,12.4842 1.27762,13.5691 -0.70133,0.7014 -0.87014,0.7263 -1.95699,0.2894 z"
     id="path8" />
  <path
     style="fill:#999999;stroke-width:0.547144"
     d="m 365.94868,2443.507 c -0.46248,-1.2052 1.94688,-8.2267 5.65608,-16.4834 1.73058,-3.8524 9.53121,-19.8074 17.33472,-35.4558 l 14.18821,-28.4515 -0.64347,-71.4023 c -1.38745,-153.9594 -4.58345,-344.2043 -9.06287,-539.4755 -0.42443,-18.5023 -0.66515,-33.7471 -0.53492,-33.8774 0.13022,-0.1302 0.34482,-0.1287 0.47688,0 0.37241,0.3724 3.73841,165.8037 5.76552,283.363 1.56114,90.5357 2.62949,132.1228 3.85832,150.1911 0.28653,4.213 0.5234,7.9678 0.52638,8.344 0.003,0.3761 0.22998,0.6839 0.50446,0.6839 1.16315,0 2.07919,-10.6607 3.05593,-35.5644 0.90976,-23.1958 1.72067,-34.6266 4.1144,-57.9973 2.34894,-22.9334 3.48932,-32.6729 3.70249,-31.6212 0.10411,0.5136 -0.44252,6.9152 -1.21475,14.2258 -10.87221,102.9258 -9.63142,199.9207 3.58918,280.5718 0.91259,5.5672 3.85749,21.4481 6.54422,35.2909 l 4.88495,25.1686 -1.82882,1.6414 c -1.00586,0.9028 -9.68334,8.8856 -19.2833,17.7396 -25.26755,23.3042 -33.96815,30.802 -38.36949,33.0652 -2.18403,1.123 -2.84546,1.1311 -3.26412,0.04 z"
     id="path9" />
  <path
     style="fill:#999999;stroke-width:0.547144"
     d="m 436.45426,2114.1657 c 0.0112,-0.9028 0.13378,-1.2059 0.2725,-0.6736 0.13873,0.5324 0.1296,1.271 -0.0203,1.6415 -0.14988,0.3704 -0.26338,-0.065 -0.25223,-0.9679 z"
     id="path10" />
  <path
     style="fill:#999999;stroke-width:0.547144"
     d="m 445.43098,2360.5174 c -12.32782,-21.1019 -17.44825,-197.5553 -9.33193,-321.5841 3.11829,-47.6518 6.61837,-70.6131 18.9041,-124.0153 5.68693,-24.7193 7.8701,-33.2857 16.16577,-63.4321 l 7.58236,-27.5542 0.40322,9.6988 c 0.22177,5.3343 1.65016,115.7459 3.1742,245.3591 l 2.77099,235.6604 -9.83062,14.691 c -5.40684,8.0801 -11.93563,17.3989 -14.50842,20.7086 -5.46452,7.0295 -11.25499,12.7932 -12.8526,12.7932 -0.73812,0 -1.58064,-0.791 -2.47707,-2.3254 z m 5.0626,-2.582 c 1.81837,-0.9763 7.69159,-7.3628 11.84009,-12.8748 2.49137,-3.3103 8.47599,-12.0516 13.29915,-19.4252 l 8.7694,-13.4065 -1.29734,-98.758 c -3.21268,-244.5616 -4.74002,-346.2884 -5.50193,-366.4485 -0.18481,-4.8901 -0.54446,-8.891 -0.79923,-8.891 -2.07744,0 -18.09357,65.3163 -29.51617,120.3717 -6.60546,31.8374 -8.47218,47.1577 -9.90017,81.2509 -0.87764,20.9536 -1.28224,185.2579 -0.545,221.3199 1.20807,59.0932 3.23246,83.5737 7.78643,94.1597 1.58494,3.6843 2.90355,4.2917 5.86477,2.7018 z"
     id="path11" />
  <path
     style="fill:#999999;stroke-width:0.547144"
     d=""
     id="path12" />
  <path
     style="fill:#999999;stroke-width:0.547144"
     d="m 595.56659,2416.3907 c -3.36468,-2.0902 -3.73885,-2.1956 -6.93973,-1.9552 -2.72646,0.2048 -3.73559,0.041 -5.19787,-0.8447 -3.36201,-2.0357 -8.20204,-6.6109 -14.58849,-13.79 -11.64406,-13.0894 -19.08197,-19.4494 -22.74569,-19.4494 -3.47609,0 -9.39187,-4.8426 -17.64534,-14.4443 -14.35824,-16.7036 -27.00622,-36.8851 -28.88614,-46.0916 -1.95794,-9.5884 -3.5769,-37.5542 -3.57482,-61.7509 0.002,-23.0244 0.96809,-33.8981 3.073,-34.587 0.80052,-0.2619 3.20841,5.5246 4.60221,11.0598 0.61022,2.4234 1.34566,8.0404 1.64766,12.5843 0.82692,12.4419 1.5003,17.5994 3.85757,29.5458 6.37268,32.2963 17.76433,66.2803 28.67989,85.559 4.04974,7.1526 5.97516,9.8552 6.58806,9.2476 0.73098,-0.7247 -1.44034,-8.1163 -10.16994,-34.6207 -9.20926,-27.9607 -11.79211,-36.8437 -15.27267,-52.5259 -8.24748,-37.1602 -13.35572,-80.5842 -15.34198,-130.4188 -0.71197,-17.8629 -0.70804,-62.4098 0.007,-81.0524 3.51172,-91.5394 16.10875,-173.4609 37.73414,-245.3943 10.16552,-33.8139 16.85728,-63.0193 22.47183,-98.0756 l 1.7745,-11.0797 h 3.4733 c 1.91032,0 3.4733,0.1239 3.4733,0.2753 0,0.1514 -0.85847,5.5645 -1.90771,12.029 -3.71821,22.9084 -7.33105,39.5993 -13.68038,63.2017 -40.93774,152.1777 -55.55846,311.1317 -39.93429,434.159 8.477,66.7492 24.46658,118.7498 48.03272,156.2097 6.62894,10.5371 19.22944,26.2629 21.04353,26.2629 2.28021,0 0.019,-5.3853 -13.20988,-31.4606 -5.80157,-11.4354 -11.73292,-23.3769 -13.18077,-26.5367 -49.07333,-107.0961 -55.30993,-285.0601 -16.45149,-469.4498 4.04073,-19.1739 7.22075,-32.6412 15.76197,-66.7516 4.03136,-16.0997 8.66241,-35.1426 10.29124,-42.3174 1.62882,-7.1748 3.03417,-12.689 3.12301,-12.2538 0.31183,1.5276 -7.6355,36.3251 -18.14915,79.4662 -15.42493,63.2939 -24.03859,113.0747 -29.3014,169.3412 -6.60821,70.6507 -6.39456,153.9688 0.53806,209.8299 7.09372,57.159 21.83452,104.2775 50.92355,162.7754 10.82687,21.7728 16.48287,30.7871 18.76722,29.9105 1.08721,-0.4172 0.85109,-2.3595 -1.38732,-11.4124 -2.84258,-11.4963 -1.73934,-10.3937 2.56861,2.567 2.11001,6.348 3.75937,14.578 2.90068,14.4736 -0.11643,-0.014 -1.81209,-1.02 -3.76814,-2.2351 z"
     id="path13" />
  <path
     style="fill:#999999;stroke-width:0.547144"
     d="m 562.73794,2439.9684 c -8.08902,-2.8936 -21.27848,-10.7133 -45.83288,-27.173 -17.6393,-11.8243 -22.55686,-14.6417 -27.17402,-15.569 -4.11437,-0.8263 -7.57137,0.3358 -14.26262,4.7946 -7.00299,4.6664 -11.73303,6.8333 -15.70212,7.1932 -3.0187,0.2737 -3.20732,0.2123 -5.06986,-1.6502 -1.83914,-1.8392 -1.93451,-2.1199 -1.93451,-5.6935 0,-5.2696 1.65805,-10.7927 5.72091,-19.057 9.35408,-19.0271 28.71314,-42.7586 33.41017,-40.9562 1.0583,0.4062 1.90474,2.4057 1.90474,4.4996 0,4.0575 14.1533,21.14 42.67726,51.5098 16.26378,17.3163 22.13639,24.0207 27.0726,30.9069 7.81502,10.9024 7.57688,14.1949 -0.80967,11.1948 z"
     id="path14" />
  <path
     style="fill:#999999;stroke-width:0.547144"
     d="m 396.95321,2444.9746 c 0,-1.7914 4.84089,-7.722 12.81522,-15.7001 7.91259,-7.9164 14.70844,-13.0325 18.17533,-13.6828 3.0862,-0.579 6.7624,3.0177 6.7624,6.6162 0,4.7971 -7.11954,10.6976 -21.6122,17.9118 -11.27531,5.6126 -16.14075,7.076 -16.14075,4.8549 z"
     id="path15" />
  <path
     style="fill:#999999;stroke-width:0.273572"
     d="m 474.32816,1299.6157 c -1.3639,-0.3249 -3.05677,-1.4344 -5.42548,-3.5559 -3.60724,-3.2307 -6.47722,-4.384 -12.87995,-5.1757 -1.22419,-0.1514 -2.91747,-0.5859 -3.79464,-0.9739 -11.21284,-4.9588 -22.5802,-27.0966 -26.13727,-50.9019 -0.73981,-4.9511 -1.01458,-13.2382 -0.56626,-17.0786 0.98226,-8.4142 4.0921,-14.6119 8.43663,-16.8134 4.08446,-2.0697 10.87692,-2.0787 17.9837,-0.024 9.10109,2.6316 17.91997,8.4849 21.5882,14.3287 1.57503,2.5091 2.73706,6.7486 2.07005,7.5523 -0.82109,0.9894 -3.96859,0.049 -9.18295,-2.7447 -6.93771,-3.7164 -13.36559,-4.5446 -19.28777,-2.4851 -2.72251,0.9468 -4.69264,2.1946 -6.85955,4.3447 -1.46782,1.4565 -2.12543,2.3934 -3.07206,4.3772 -2.48312,5.2036 -2.64847,9.2307 -0.69233,16.8616 3.47525,13.5569 13.25145,35.2846 17.58254,39.0774 2.01852,1.7676 2.78529,1.0685 2.55886,-2.3332 -0.29841,-4.4832 -3.15743,-12.7195 -7.99788,-23.0406 -5.00529,-10.6726 -6.4226,-14.7219 -6.4226,-18.3497 0,-3.788 1.54876,-6.5009 6.28358,-11.0067 4.73894,-4.5097 9.20716,-5.6998 14.20978,-3.7846 7.40815,2.8361 14.16792,13.2781 17.3809,26.8488 1.59658,6.7435 1.90787,10.0311 1.90392,20.1076 -0.003,7.1443 -0.11007,10.0959 -0.46253,12.7271 -0.9925,7.4092 -2.55341,11.0118 -5.20533,12.0137 -0.84871,0.3207 -0.78867,0.3199 -2.01156,0.029 z"
     id="path16" />
  <path
     style="fill:#999999;stroke-width:0.273572"
     d="m 574.53326,1549.5811 c -0.0848,-1.2413 -0.22383,-4.4113 -0.30895,-7.0445 -0.0851,-2.6331 -0.33621,-8.2345 -0.55797,-12.4475 -3.62107,-68.793 -14.19301,-132.4795 -30.72179,-185.0716 -9.25564,-29.45 -19.96712,-54.2289 -32.81729,-75.9162 -10.12681,-17.0912 -16.11725,-30.8332 -13.82438,-31.7131 4.49744,-1.7258 29.84008,41.9277 45.56244,78.4827 7.26466,16.8906 12.88205,33.8722 18.10284,54.7256 11.63442,46.4714 19.37865,107.9442 21.36775,169.6148 0.0825,2.5579 0.22085,6.2203 0.30744,8.1387 l 0.15744,3.4881 h -3.55667 -3.55668 z"
     id="path17" />
  <path
     style="fill:#999999;stroke-width:0.273572"
     d="m 494.38964,1542.1947 c -0.43613,-23.2763 -0.0325,-139.4332 0.63482,-182.6778 0.84603,-54.8273 2.21473,-84.5691 4.15991,-90.3947 0.42864,-1.2837 0.6908,-1.404 1.5771,-0.7234 l 0.67157,0.5158 -1.15762,7.4798 c -0.79009,5.105 -1.24027,9.0866 -1.41794,12.5408 -1.03933,20.2068 -1.90427,116.6606 -1.91045,213.0444 l -0.003,49.8585 h -1.18675 -1.18674 z"
     id="path18" />
  <path
     style="fill:#999999;stroke-width:0.273572"
     d=""
     id="path19" />
  <path
     style="fill:#999999;stroke-width:0.273572"
     d="m 536.51019,1546.435 c 0.32826,-5.6192 0.74655,-14.4161 1.21956,-25.6474 0.45474,-10.7977 0.63095,-51.6962 0.27816,-64.563 -1.91533,-69.8553 -9.29924,-125.0014 -21.28238,-158.9454 -3.09961,-8.7801 -6.1749,-15.0453 -10.91595,-22.2387 -1.73049,-2.6256 -3.07718,-4.8429 -2.99265,-4.9274 0.41873,-0.4188 4.50498,4.3904 7.04347,8.2896 15.18724,23.3279 26.00234,80.2445 29.34456,154.4315 0.82933,18.4086 1.02883,31.1159 0.88047,56.0823 -0.15261,25.6806 -0.36473,33.2275 -1.56865,55.8087 -0.38663,7.2519 -0.35845,7.1129 -1.44207,7.1129 h -0.88015 z"
     id="path20" />
  <path
     style="fill:#999999;stroke-width:0.273572"
     d="m 581.34096,1417.9593 c -0.61092,-1.4516 -1.19169,-3.9013 -3.15378,-13.303 -3.56513,-17.083 -7.59083,-31.6282 -14.04549,-50.7477 -13.127,-38.8837 -32.13641,-80.801 -48.92994,-107.8944 -3.21684,-5.1898 -5.04781,-7.9052 -13.02511,-19.3166 l -6.69355,-9.5751 -0.48205,-75.9162 c -0.26513,-41.754 -0.5372,-83.3335 -0.60461,-92.399 l -0.12255,-16.4827 h 48.42831 48.4283 l -0.18724,26.6048 c -0.36398,51.7171 -1.25641,130.8549 -2.09243,185.5504 -1.46086,95.5743 -3.25705,156.327 -4.9361,166.9543 -0.45482,2.8788 -1.36785,6.5435 -1.76352,7.0786 -0.3484,0.4711 -0.40519,0.4327 -0.82024,-0.5534 z"
     id="path21" />
  <path
     style="fill:#999999;stroke-width:0.273572"
     d="m 581.37974,1418.1297 c -0.52077,-1.0163 -1.19775,-3.8617 -3.31137,-13.918 -2.20199,-10.4768 -4.13529,-18.3167 -6.80527,-27.5966 -12.0911,-42.0244 -33.05405,-91.7284 -52.78666,-125.1592 -4.11,-6.9632 -7.99953,-12.8903 -15.45456,-23.5508 l -7.46378,-10.673 -0.13471,-10.177 c -0.0741,-5.5973 -0.313,-42.1233 -0.5309,-81.1689 -0.2179,-39.0456 -0.4626,-76.0701 -0.54377,-82.2768 l -0.14758,-11.2848 h 48.46997 48.46998 l -0.18697,26.7416 c -0.36259,51.8622 -1.25707,131.1238 -2.09242,185.4136 -1.41536,91.9842 -3.03547,149.1448 -4.66785,164.6904 -0.43279,4.1216 -1.76157,9.7118 -2.30846,9.7118 -0.0661,0 -0.29362,-0.3385 -0.50565,-0.7523 z"
     id="path22" />
  <path
     style="fill:#999999;stroke-width:0.273572"
     d="m 414.07884,1219.1743 c -0.0443,-1.6564 0.78751,-5.7783 1.72024,-8.5239 4.65365,-13.6989 17.24362,-18.6568 36.94436,-14.5484 4.102,0.8554 8.68929,2.1718 13.68026,3.9256 2.1357,0.7505 4.02566,1.3645 4.19991,1.3645 0.43011,0 1.07405,-1.3058 1.43235,-2.9046 1.7582,-7.8454 2.48019,-39.5995 2.89009,-127.1105 l 0.18292,-39.0524 h 0.64847 0.64848 v 86.4488 c 0,48.651 -0.10377,86.4488 -0.23734,86.4488 -0.13053,0 -3.17744,-1.1194 -6.77091,-2.4875 -12.78078,-4.866 -16.63358,-6.0488 -22.57265,-6.9298 -3.64819,-0.5412 -9.30986,-0.5549 -12.3082,-0.03 -11.20918,1.9631 -18.12583,9.5298 -20.05665,21.9416 -0.20664,1.3283 -0.38724,1.9843 -0.40133,1.4576 z"
     id="path23" />
  <path
     style="fill:#999999;stroke-width:0.273572"
     d="m 581.37974,1418.1297 c -0.51987,-1.0146 -1.21921,-3.9341 -3.1946,-13.3367 -1.90379,-9.0617 -3.48988,-15.7477 -5.32163,-22.4329 -12.18664,-44.4762 -34.57026,-97.8948 -55.88359,-133.3664 -3.62666,-6.0358 -7.63391,-12.0587 -15.2946,-22.9878 l -6.04583,-8.6252 -0.16607,-6.1477 c -0.0913,-3.3812 -0.22948,-21.9669 -0.30698,-41.3017 -0.0775,-19.3347 -0.20105,-38.8472 -0.27455,-43.3611 -0.0735,-4.514 -0.19664,-23.5956 -0.27367,-42.4037 -0.077,-18.8081 -0.21588,-38.1668 -0.30858,-43.0192 l -0.16854,-8.8227 h 48.49978 48.49978 l -0.18824,27.4256 c -0.24846,36.2 -0.57778,68.5676 -1.27687,125.5012 -1.49477,121.7334 -3.40938,201.4753 -5.33538,222.2143 -0.51047,5.4967 -1.7711,11.4163 -2.4312,11.4163 -0.079,0 -0.3172,-0.3385 -0.52923,-0.7523 z"
     id="path24" />
  <path
     style="fill:#999999;stroke-width:0.273572"
     d=""
     id="path25" />
  <path
     style="fill:#999999;stroke-width:0.0341965"
     d="m 524.23839,1264.1513 c -0.0259,-0.042 -0.40124,-0.7002 -0.83404,-1.4619 -3.39033,-5.967 -7.14835,-12.0336 -10.50347,-16.9558 -0.3547,-0.5203 -4.67759,-6.8047 -9.60642,-13.9654 l -8.96151,-13.0192 -0.10557,-9.5334 c -0.0581,-5.2433 -0.10539,-9.6218 -0.10517,-9.7299 l 4.1e-4,-0.1966 h 0.54195 0.54194 l 0.0221,2.18 c 0.0122,1.199 0.0399,5.2269 0.0617,8.9509 l 0.0396,6.7709 6.41862,9.1818 c 7.46664,10.6809 7.00671,10.0205 8.00205,11.49 4.68142,6.9117 9.77087,15.3928 14.80591,24.6728 0.41839,0.7712 0.79646,1.4675 0.84016,1.5474 l 0.0794,0.1454 h -0.59524 c -0.58053,0 -0.59641,0 -0.64238,-0.077 z"
     id="path26" />
  <path
     style="fill:#999999;stroke-width:0.068393"
     d="m 494.10528,1197.8186 c -1.3e-4,-0.7805 -0.20007,-19.5313 -0.44431,-41.6684 -0.24425,-22.1372 -0.44419,-40.5187 -0.44432,-40.8478 l -2.4e-4,-0.5984 h 0.71813 c 0.39497,0 0.71876,0.01 0.71953,0.017 0.003,0.034 0.54374,83.4031 0.54473,83.9524 l 10e-4,0.5643 h -0.54715 -0.54714 z"
     id="path27" />
  <path
     style="fill:#999999;stroke-width:0.0241806"
     d="m 492.86089,1085.6783 c -10e-6,-0.2493 -0.0434,-4.3869 -0.0964,-9.1946 -0.16361,-14.8325 -0.24796,-23.214 -0.31343,-31.1446 -0.0132,-1.6026 -0.0308,-3.4116 -0.039,-4.0201 l -0.0149,-1.1062 h 0.90894 0.90894 v 0.836 c 0,1.0461 0.25762,41.8671 0.27593,43.7228 l 0.0134,1.3601 h -0.82173 -0.82174 z"
     id="path28" />
  <path
     style="fill:#999999;stroke-width:0.136786"
     d="m 493.13289,1104.445 c -0.0493,-5.586 -0.12888,-11.9876 -0.17684,-14.2257 l -0.0872,-4.0694 h 0.75611 0.7561 l 0.0879,5.916 c 0.0483,3.2538 0.10175,9.6554 0.11872,14.2258 l 0.0308,8.3098 -0.69798,-10e-5 h -0.69797 z"
     id="path29" />
  <path
     style="fill:#999999;stroke-width:0.273572"
     d=""
     id="path30" />
  <path
     style="fill:#999999;stroke-width:0.068393"
     d="m 492.37168,1033.7095 c -0.0255,-3.5453 -0.0917,-12.6014 -0.14707,-20.1246 -0.11634,-15.79665 -0.27627,-40.74943 -0.37326,-58.23672 -0.037,-6.67687 -0.0866,-14.50188 -0.11009,-17.38893 l -0.0428,-5.24916 h 0.88751 0.8875 l 0.0448,4.53104 c 0.0247,2.49207 0.16568,24.02818 0.31338,47.85803 0.1477,23.82984 0.28923,45.96614 0.3145,49.19174 l 0.046,5.8647 h -0.88709 -0.8871 z"
     id="path31" />
  <path
     style="fill:#999999;stroke-width:0.068393"
     d="m 474.92756,1047.7472 c 0.0154,-8.1815 0.0484,-37.4119 0.0735,-64.95631 l 0.0455,-50.0808 h 0.70679 0.7068 v 49.79013 49.79018 h -0.67557 -0.67556 l -0.0435,8.1216 c -0.0239,4.4669 -0.071,11.2917 -0.10469,15.1662 -0.0509,5.8552 -0.0565,4.5332 -0.0333,-7.831 z"
     id="path32" />
  <path
     style="fill:#999999;stroke-width:0.068393"
     d="m 475.02386,897.14571 v -35.56438 h 0.67259 0.67259 l 0.0455,13.65577 c 0.025,7.51067 0.0455,23.51465 0.0455,35.56438 v 21.90861 h -0.71813 -0.71813 z"
     id="path33" />
  <path
     style="fill:#999999;stroke-width:0.068393"
     d="m 491.68627,925.61431 c -0.0251,-3.90268 -0.0762,-13.25115 -0.11355,-20.77439 -0.0374,-7.52323 -0.0982,-19.43388 -0.13517,-26.4681 -0.037,-7.03423 -0.0673,-13.69067 -0.0675,-14.7921 l -2.6e-4,-2.0026 0.83781,0.0192 0.83782,0.0192 0.0818,13.33665 c 0.045,7.33515 0.14527,23.07752 0.22288,34.98304 0.0776,11.90551 0.14083,21.9003 0.1405,22.21064 l -6.1e-4,0.56424 h -0.87905 -0.87905 z"
     id="path34" />
  <path
     style="fill:#999999;stroke-width:0.068393"
     d="m 491.45591,861.52533 c -0.0885,-0.0562 -0.12723,-5.93289 -0.28933,-43.95492 -0.0372,-8.72696 -0.0884,-20.73763 -0.11373,-26.69039 l -0.0461,-10.8232 h 0.79705 0.79705 l 9e-5,2.75282 c 9e-5,2.79713 0.12227,24.8988 0.30766,55.65484 0.0563,9.34762 0.10248,18.37293 0.10253,20.05626 l 8e-5,3.06059 -0.73522,-10e-4 c -0.40438,-5.7e-4 -0.77342,-0.0253 -0.8201,-0.0549 z"
     id="path35" />
  <path
     style="fill:#999999;stroke-width:0.068393"
     d="m 475.02386,820.81907 v -40.76225 h 0.68393 0.68393 v 40.76225 40.76226 h -0.68393 -0.68393 z"
     id="path36" />
  <path
     style="fill:#999999;stroke-width:0.068393"
     d="m 475.02385,762.05235 c -10e-6,-9.90245 -0.0205,-28.27624 -0.0456,-40.83064 l -0.0455,-22.82618 h 0.72949 0.72949 v 40.83065 40.83064 h -0.68393 -0.68393 z"
     id="path37" />
  <path
     style="fill:#999999;stroke-width:0.068393"
     d="m 491.00211,775.25221 c -0.0412,-4.68518 -0.14471,-32.49006 -0.21387,-57.43305 -0.0189,-6.82734 -0.0509,-13.99066 -0.0711,-15.91848 l -0.0367,-3.50515 h 0.75502 0.75503 l 4.4e-4,3.9155 c 2.5e-4,2.15353 0.0304,9.48612 0.067,16.29465 0.0366,6.80852 0.1124,21.93535 0.16845,33.61517 0.056,11.67983 0.11638,22.72103 0.13406,24.53601 l 0.0321,3.29996 h -0.77414 -0.77413 z"
     id="path38" />
  <path
     style="fill:#999999;stroke-width:0.068393"
     d="m 490.6864,694.00128 c 4.6e-4,-3.79024 -0.0919,-34.84056 -0.15693,-52.76523 l -0.0212,-5.83051 h 0.66255 0.66255 l 0.04,1.45335 c 0.022,0.79935 0.0563,6.51615 0.0761,12.70401 0.0406,12.64374 0.1583,40.0689 0.19471,45.36169 l 0.0239,3.47094 h -0.74114 -0.74114 z"
     id="path39" />
  <path
     style="fill:#999999;stroke-width:0.068393"
     d="m 474.92997,683.46875 c -0.0233,-8.20973 -0.0615,-22.38248 -0.0849,-31.49499 l -0.0425,-16.56822 h 0.74903 0.74904 l 0.0455,14.61901 c 0.025,8.04046 0.0455,22.21321 0.0455,31.495 l 1e-5,16.87598 h -0.70967 -0.70968 z"
     id="path40" />
  <path
     style="fill:#999999;stroke-width:0.068393"
     d="m 492.16538,682.71643 c -0.0229,-2.75539 -0.0582,-8.98001 -0.0784,-13.83249 -0.0202,-4.85249 -0.0671,-15.63978 -0.10415,-23.97177 -0.0618,-13.89228 -0.19744,-46.51171 -0.31361,-75.42042 l -0.0468,-11.64392 h 49.96338 49.96338 l 0.0442,2.65023 c 0.20444,12.26155 0.52878,57.27401 0.65333,90.67208 0.0372,9.96828 0.0838,22.27134 0.10357,27.34012 l 0.036,9.21596 H 542.29669 492.2071 Z"
     id="path41" />
  <path
     style="fill:#999999;stroke-width:0.068393"
     d="m 490.48101,629.67762 c 3.5e-4,-6.12545 -0.10974,-47.70409 -0.16615,-62.75061 l -0.034,-9.07918 h 0.63715 0.63716 l 0.0476,11.71231 c 0.0262,6.44177 0.0918,22.0995 0.14592,34.79496 0.0541,12.69546 0.0987,24.87541 0.0991,27.06655 l 7.9e-4,3.98389 h -0.68393 -0.68393 z"
     id="path42" />
  <path
     style="fill:#999999;stroke-width:0.068393"
     d="m 474.79283,625.06109 c -0.0235,-5.68944 -0.0729,-20.3777 -0.10995,-32.64057 -0.037,-12.26288 -0.0865,-25.05836 -0.10992,-28.43441 l -0.0426,-6.13828 h 0.81772 0.81773 l 0.0445,16.26045 c 0.0245,8.94324 0.0646,26.39373 0.0892,38.77885 l 0.0446,22.51841 h -0.75432 -0.75431 z"
     id="path43" />
  <path
     style="fill:#999999;stroke-width:0.068393"
     d="m 490.25185,538.74908 c -0.0247,-10.50432 -0.065,-27.35465 -0.0896,-37.44519 l -0.0447,-18.34644 h 0.5821 0.58209 l 0.0453,11.37035 c 0.0249,6.25369 0.0745,20.37257 0.11032,31.37531 0.0358,11.00273 0.0831,22.73641 0.10527,26.07484 l 0.0402,6.06988 h -0.64306 -0.64306 z"
     id="path44" />
  <path
     style="fill:#999999;stroke-width:0.068393"
     d="m 474.54505,555.81314 c -9e-5,-2.70707 -0.11435,-26.24276 -0.24015,-49.46527 -0.0559,-10.32563 -0.10171,-19.8126 -0.10173,-21.08215 l -2e-5,-2.30827 h 0.84475 0.84476 l 0.0454,8.63463 c 0.025,4.74904 0.0747,17.71379 0.11059,28.81056 0.0359,11.09678 0.0826,24.06153 0.10395,28.81057 l 0.0387,8.63462 h -0.8231 -0.82311 z"
     id="path45" />
  <path
     style="fill:#999999;stroke-width:0.068393"
     d="m 490.11377,471.96327 c -0.0238,-6.0468 -0.0629,-21.85072 -0.0868,-35.11982 l -0.0435,-24.12565 h 0.55636 0.55636 l 2e-4,2.9922 c 3.2e-4,4.85504 0.12626,46.67086 0.17281,57.38176 l 0.0429,9.86569 h -0.57753 -0.57754 z"
     id="path46" />
  <path
     style="fill:#999999;stroke-width:0.068393"
     d="m 474.17782,481.91446 c -0.0219,-0.57365 -0.0569,-4.81316 -0.078,-9.42114 -0.021,-4.60798 -0.0974,-16.62635 -0.16978,-26.70748 -0.18244,-25.41849 -0.20084,-27.70152 -0.24624,-30.55459 l -0.04,-2.51345 h 0.92141 0.9214 l 0.0409,2.54764 c 0.0225,1.40121 0.0575,5.68688 0.0779,9.52373 0.0203,3.83685 0.0809,15.36279 0.13466,25.6132 0.0538,10.2504 0.11648,21.76865 0.1394,25.59609 l 0.0417,6.95899 h -0.85182 -0.85181 z"
     id="path47" />
  <path
     style="fill:#999999;stroke-width:0.068393"
     d="m 489.97761,404.42515 c -0.0226,-4.56096 -0.0573,-16.87171 -0.0772,-27.35722 l -0.0361,-19.06456 h 0.53913 0.53913 l 0.0411,9.25016 c 0.0226,5.08759 0.0573,17.39833 0.0771,27.35721 l 0.036,18.10706 h -0.53908 -0.53908 z"
     id="path48" />
  <path
     style="fill:#999999;stroke-width:0.068393"
     d="m 473.6557,411.26445 c -3.3e-4,-1.62173 -0.0733,-9.64028 -0.27359,-30.07584 -0.0743,-7.57966 -0.15582,-15.89711 -0.18117,-18.48322 l -0.0461,-4.70202 h 0.95924 0.95923 l 0.0452,4.12068 c 0.0647,5.89848 0.24812,28.44529 0.35826,44.04512 l 0.0462,6.54863 h -0.93352 -0.93352 z"
     id="path49" />
  <path
     style="fill:#999999;stroke-width:0.068393"
     d="m 489.84074,339.10979 c -0.0242,-10.39146 -0.0639,-26.9802 -0.0881,-36.86385 l -0.044,-17.97027 h 0.57983 0.57982 l 0.0456,21.04224 c 0.0251,11.57323 0.0456,28.16196 0.0456,36.86384 v 15.82162 h -0.5373 -0.53731 z"
     id="path50" />
  <path
     style="fill:#999999;stroke-width:0.068393"
     d="m 473.14764,357.91788 c -0.0139,-0.047 -0.0602,-3.71716 -0.10275,-8.15587 -0.0426,-4.43871 -0.10671,-10.36326 -0.14249,-13.16566 -0.16005,-12.53729 -0.21513,-16.71316 -0.34191,-25.92096 -0.21174,-15.37814 -0.33157,-23.36875 -0.3741,-24.94637 l -0.0392,-1.45335 h 1.02158 1.02158 l 0.0384,0.63264 c 0.0211,0.34795 0.0553,2.18687 0.0759,4.08648 0.0206,1.89962 0.0827,6.83931 0.13809,10.97709 0.16513,12.34236 0.38879,31.87967 0.5105,44.59226 0.0367,3.83685 0.0861,8.43029 0.10979,10.20766 l 0.043,3.23157 h -0.96654 c -0.71414,0 -0.97315,-0.0223 -0.99186,-0.0855 z"
     id="path51" />
  <path
     style="fill:#999999;stroke-width:0.273572"
     d="m 590.65639,497.69615 c -0.058,-0.18808 -0.18016,-3.41965 -0.2714,-7.18126 -0.49779,-20.52388 -3.58788,-63.66884 -6.86754,-95.88705 -10.25727,-100.76379 -28.17261,-170.95941 -64.47981,-252.64389 -1.80572,-4.06254 -5.53209,-12.55696 -8.28082,-18.87648 -8.22862,-18.91818 -10.14361,-22.83038 -12.41489,-25.362842 -1.07045,-1.193545 -1.30808,-1.329948 -2.18858,-1.256288 -0.89658,0.07501 -1.05685,0.221493 -1.73663,1.58728 -3.12883,6.28636 -3.85273,31.48941 -3.71082,129.19446 0.0784,53.97729 0.0585,56.83463 -0.39619,56.83462 -0.45136,-10e-6 -0.48024,-1.14653 -0.50471,-20.03917 -0.0143,-11.02154 -0.11324,-58.20248 -0.21991,-104.84653 -0.10667,-46.64406 -0.1807,-84.834506 -0.16452,-84.86767 0.0295,-0.06049 6.89671,14.399317 18.47779,38.90754 13.68651,28.9638 22.98755,50.44821 31.32604,72.35984 30.11834,79.14407 44.61595,157.71221 51.41419,278.63325 0.65322,11.61883 1.50666,29.62283 1.50755,31.80276 7.9e-4,1.94001 -0.0143,1.9834 -0.69171,1.9834 -0.38089,0 -0.74,-0.15388 -0.79804,-0.34197 z"
     id="path52" />
  <path
     style="fill:#999999;stroke-width:0.273572"
     d="m 373.56279,496.96227 c 0,-2.56477 1.29371,-19.18422 2.34397,-30.11138 2.47447,-25.74511 6.34133,-56.85855 10.67607,-85.90166 17.62129,-118.06411 48.57013,-240.02095 73.17703,-288.361081 1.83523,-3.605287 2.64398,-4.564198 3.47458,-4.119677 4.11453,2.202033 7.0993,37.414468 9.0813,107.135628 0.63698,22.40723 1.28826,53.59837 1.51088,72.35983 0.083,6.99661 0.21283,13.49053 0.28846,14.43093 l 0.1375,1.70983 h -0.93572 -0.93571 l -0.16108,-4.71912 c -0.0886,-2.59552 -0.29019,-12.35178 -0.44799,-21.68059 -1.12912,-66.74972 -3.124,-120.78158 -5.34313,-144.71968 -1.14018,-12.29941 -2.45647,-18.73969 -3.83007,-18.73969 -2.4845,0 -10.32292,18.49585 -19.99931,47.1912 -15.5875,46.22473 -28.63024,97.82973 -41.24739,163.19966 -10.23744,53.04062 -20.11783,119.57331 -23.80514,160.29942 -0.96943,10.70726 -2.33895,29.54557 -2.34185,32.21312 -8.8e-4,0.80531 -0.0783,0.88911 -0.82169,0.88911 -0.77277,0 -0.82071,-0.0628 -0.82071,-1.07585 z"
     id="path53" />
  <path
     style="fill:#999999;stroke-width:0.386889"
     d="m 568.24079,1718.0822 c -2.66829,-0.1269 -2.79827,-0.176 -2.61166,-0.9871 0.28766,-1.2501 1.94249,-13.9121 3.06954,-23.4865 4.57697,-38.8821 6.78543,-82.0317 6.28205,-122.7407 l -0.23322,-18.8608 h 3.42412 3.42412 l 0.28535,13.1238 c 0.9459,43.5045 -2.39646,103.3355 -8.12507,145.4455 -0.5314,3.9062 -0.96617,7.2576 -0.96617,7.4476 0,0.1901 -0.39173,0.3109 -0.8705,0.2687 -0.47878,-0.042 -2.13413,-0.137 -3.67856,-0.2105 z"
     id="path54" />
  <path
     style="fill:#999999;stroke-width:0.773779"
     d="m 290.94087,2538.2989 c -76.117,-3.4053 -145.98189,-18.1359 -180.22802,-37.9999 -9.03453,-5.2404 -18.267551,-11.5806 -19.082863,-13.104 -0.703514,-1.3146 -0.403401,-1.4301 3.711041,-1.4286 2.462049,8e-4 9.525362,0.8791 15.696252,1.9517 36.04954,6.2657 44.7394,6.9546 87.05012,6.9011 25.72261,-0.033 39.16661,-0.3935 51.4563,-1.3815 62.22239,-5.0025 115.19032,-14.7425 156.63188,-28.8021 l 10.64936,-3.6129 6.57787,3.2595 c 11.80664,5.8504 33.11355,23.4134 38.78182,31.9674 6.91251,10.4316 -6.45325,23.2091 -32.46213,31.0333 -31.19594,9.3846 -84.1173,13.6616 -138.78163,11.216 z"
     id="path55" />
  <path
     style="fill:#999999;stroke-width:0.773779"
     d="m 643.77557,2543.7754 c -67.05183,-3.3988 -126.2373,-25.8977 -187.36614,-71.2259 -16.84279,-12.4892 -19.71167,-16.103 -16.9115,-21.3026 2.23962,-4.1587 7.6624,-7.9999 44.15551,-31.2777 l 9.32697,-5.9493 17.36841,10.7659 c 18.9022,11.7166 32.69135,19.0177 48.34376,25.5972 65.78797,27.6538 156.45084,43.3962 234.58799,40.7331 26.19311,-0.8928 40.38423,-2.5239 64.06647,-7.3638 14.14394,-2.8906 22.82491,-3.6596 23.38274,-2.0713 0.91125,2.5945 -21.47224,13.942 -50.465,25.5836 -45.44796,18.249 -89.43453,29.9666 -129.60797,34.5265 -17.61044,1.9988 -40.70208,2.8044 -56.88124,1.9843 z"
     id="path56" />
  <path
     style="fill:#008e96;stroke-width:1.54756;fill-opacity:1"
     d="m 402.59813,2113.964 c -0.61664,-20.4277 -2.49216,-109.9153 -4.16782,-198.8612 -2.96935,-157.6161 -8.35586,-416.6385 -13.08211,-629.0822 -11.77399,-529.2384 -13.93812,-732.9627 -8.52387,-802.40877 6.68032,-85.68545 30.43542,-218.59835 53.24358,-297.90489 12.53907,-43.59973 28.81946,-88.984575 31.92044,-88.984575 3.13485,0 5.63312,36.138755 7.70277,111.424165 5.23437,190.40511 6.39573,986.09737 1.44649,991.04667 -0.3985,0.3985 -5.57427,-0.6203 -11.5017,-2.2639 -19.02105,-5.2744 -34.48984,-2.876 -41.07227,6.3682 -4.75083,6.6719 -6.74373,19.2898 -4.89735,31.007 3.73777,23.72 15.8534,43.5796 46.61391,76.4082 l 20.23651,21.5971 v 210.8129 210.813 l -9.9604,30.7504 c -26.59728,82.1127 -39.66041,134.2485 -49.54453,197.7355 -7.91219,50.821 -14.67288,115.5992 -14.85927,142.3753 -0.0533,7.6604 -0.62261,16.7136 -1.26508,20.1183 -0.7615,4.0354 -1.55842,-6.7389 -2.2893,-30.9512 z"
     id="path70" />
  <path
     style="fill:#008e96;fill-opacity:1;stroke-width:1.54756"
     d="m 581.24099,1417.9335 c -1.50351,-13.3044 -16.72035,-66.1417 -19.04843,-66.1417 -0.76203,0 -0.97513,-0.664 -0.47355,-1.4756 3.29262,-5.3276 -35.11714,-87.7384 -53.92187,-115.6932 l -11.67192,-17.3512 -0.2213,-34.8788 c -0.12172,-19.1834 -0.67393,-34.8801 -1.22714,-34.8816 -0.5532,0 -0.86669,-16.5411 -0.69663,-36.7545 0.17005,-20.2135 -0.44516,-246.02026 -1.36714,-501.79289 -1.58344,-439.27064 -1.27122,-506.55944 2.36737,-510.198028 0.51541,-0.515413 1.9245,-0.11766 3.1313,0.883895 2.60332,2.160573 30.33269,65.752693 40.22446,92.247293 32.61468,87.35673 48.68246,190.71433 52.08568,335.04628 1.59106,67.47754 0.43786,570.38625 -1.60754,701.04375 -1.74205,111.2798 -3.9524,179.6544 -6.02836,186.4807 -0.77655,2.5534 -1.47177,4.113 -1.54493,3.4656 z"
     id="path71" />
  <path
     style="fill:#008e96;fill-opacity:1;stroke-width:1.54756"
     d="m 470.62782,1295.9371 c -2.26383,-1.7807 -4.96925,-3.4044 -6.01204,-3.6082 -14.96905,-2.9253 -21.81329,-8.829 -29.25011,-25.2306 -11.15915,-24.611 -12.05944,-55.0057 -1.79203,-60.5006 3.80334,-2.0355 13.22335,-2.7612 15.73027,-1.2118 1.10832,0.6849 2.3935,0.867 2.85596,0.4045 0.92969,-0.9297 11.47801,5.3502 17.52394,10.4328 3.28705,2.7632 6.30376,10.2164 4.13517,10.2164 -0.38613,0 -3.73781,-1.3775 -7.44818,-3.0611 -13.13205,-5.9589 -25.18139,-2.9205 -30.17828,7.6096 -2.15513,4.5417 -2.31231,6.7623 -0.93585,13.2223 0.90986,4.2701 2.52811,9.8531 3.59613,12.4066 2.26332,5.4113 2.10861,4.9692 3.6558,10.446 0.66124,2.3407 1.86426,4.2558 2.67338,4.2558 0.80912,0 1.10368,0.5945 0.65459,1.3211 -1.04295,1.6876 7.7798,15.702 9.88513,15.702 1.76465,0 2.18775,-8.1634 0.51006,-9.8411 -0.58937,-0.5893 -1.28271,-2.4549 -1.54074,-4.1457 -0.25803,-1.6908 -2.59687,-7.7664 -5.19742,-13.5013 -5.59681,-12.3424 -8.10207,-22.0337 -5.69585,-22.0337 0.90254,0 1.19899,-0.442 0.65877,-0.9823 -1.61964,-1.6196 9.89429,-9.8506 13.77955,-9.8506 5.34675,0 13.67038,8.1678 17.73064,17.3987 4.69046,10.6637 6.61947,40.864 3.11445,48.7593 -2.63267,5.9303 -3.07345,6.0237 -8.45334,1.7919 z"
     id="path72" />
  <path
     style="fill:#008e96;fill-opacity:1;stroke-width:1.54756"
     d="m 500.05301,1702.7005 c -0.49888,-3.6174 -1.32286,-68.905 -1.83106,-145.0835 -0.98634,-147.8482 0.64402,-280.5056 3.48229,-283.3439 2.27643,-2.2764 9.91298,11.3514 15.20382,27.132 24.86124,74.1518 27.41036,248.3908 5.15211,352.1605 -5.57374,25.9852 -16.11011,55.712 -19.74655,55.712 -0.74446,0 -1.76173,-2.9597 -2.26061,-6.5771 z"
     id="path73" />
  <path
     style="fill:#008e96;fill-opacity:1;stroke-width:1.54756"
     d="m 498.62837,1876.4139 c 0.67123,-83.4054 1.18034,-100.7081 3.09639,-105.2339 10.08929,-23.8318 19.63663,-48.3132 24.33319,-62.3955 15.96873,-47.8809 27.6908,-100.8549 31.73808,-143.4297 2.74541,-28.88 3.30806,-31.8806 5.33548,-28.4539 2.48491,4.2 2.25922,93.1964 -0.30567,120.5336 -4.84487,51.6375 -11.99564,90.8942 -28.89416,158.6246 -15.69197,62.8945 -20.83522,85.0724 -28.71133,123.8047 l -7.39528,36.3676 z"
     id="path74" />
  <path
     style="fill:#008e96;fill-opacity:1;stroke-width:1.54756"
     d="m 587.10269,2400.7688 c -11.18892,-19.0445 -31.63341,-65.6533 -40.66712,-92.7117 -9.37443,-28.079 -16.58925,-60.8442 -20.2525,-91.9743 -4.30389,-36.5743 -6.01358,-95.9225 -4.07935,-141.6062 3.74756,-88.5118 11.74969,-142.6752 36.34973,-246.037 6.3811,-26.8114 13.91471,-59.5423 16.74137,-72.7352 l 5.13937,-23.9872 0.77378,77.3779 c 0.42558,42.5579 0.23598,97.9217 -0.42132,123.0309 -1.33294,50.9182 -0.8862,243.5417 0.75013,323.4396 1.47801,72.1673 5.13596,119.6537 11.22911,145.7727 1.23481,5.2931 1.98721,9.8818 1.67202,10.197 -0.3152,0.3152 -3.57105,-4.5297 -7.23522,-10.7665 z"
     id="path75" />
  <path
     style="fill:#008e96;fill-opacity:1;stroke-width:1.54756"
     d="m 444.19797,2349.5797 c -4.43911,-15.2893 -5.63472,-43.815 -6.50258,-155.1427 -0.96223,-123.4339 0.53316,-178.8149 5.63399,-208.6515 7.71617,-45.1348 30.79867,-142.7982 32.58777,-137.8808 0.59522,1.636 1.90561,61.124 2.91198,132.1956 1.00637,71.0716 2.47697,174.7101 3.26799,230.3078 l 1.43822,101.0867 -10.98829,16.5277 c -10.32754,15.5338 -22.15246,29.6819 -24.80804,29.6819 -0.65016,0 -2.24363,-3.6561 -3.54104,-8.1247 z"
     id="path76" />
  <path
     style="fill:#008e96;fill-opacity:1;stroke-width:1.54756"
     d="m 637.59383,2542.9412 c -5.10694,-0.6841 -17.29396,-2.4251 -27.08226,-3.8689 -9.7883,-1.4437 -19.01562,-2.5697 -20.50514,-2.5021 -1.48953,0.068 -2.70823,-0.536 -2.70823,-1.3412 0,-0.8052 -1.3928,-1.0998 -3.09511,-0.6546 -1.70232,0.4451 -3.09512,0.1782 -3.09512,-0.5933 0,-0.7715 -1.1305,-1.4027 -2.51223,-1.4027 -6.09075,0 -37.33548,-11.898 -58.6163,-22.3211 -25.25201,-12.3681 -60.62189,-35.0771 -73.57533,-47.2384 -7.75844,-7.284 -8.0465,-7.8309 -5.90994,-11.2198 1.23532,-1.9594 13.52179,-11.0712 27.30327,-20.2484 24.15225,-16.0832 25.18822,-16.6001 28.68402,-14.3095 1.99474,1.307 4.0935,1.9096 4.66393,1.3392 0.57042,-0.5704 1.03713,-0.2768 1.03713,0.6525 0,1.6432 21.64277,15.584 25.26954,16.2768 0.997,0.1905 2.16092,0.7799 2.5865,1.3098 3.06476,3.8162 53.38037,25.2386 55.78633,23.7516 0.66493,-0.411 1.44254,-0.1833 1.72803,0.5059 1.26075,3.0435 47.78018,15.1762 80.99207,21.1234 66.47631,11.9039 129.49826,12.9662 184.71904,3.1137 26.39161,-4.7088 29.90848,-4.526 20.32199,1.0561 -8.80509,5.1272 -41.36528,19.4362 -59.57059,26.1791 -7.66041,2.8373 -14.27622,5.5448 -14.7018,6.0168 -0.42558,0.4719 -2.48434,1.0494 -4.57503,1.2833 -2.09068,0.2338 -4.17988,0.9302 -4.64268,1.5475 -0.46278,0.6173 -1.88602,1.2337 -3.16275,1.3697 -1.27674,0.136 -13.11556,3.0309 -26.30849,6.4332 -13.19293,3.4022 -30.71229,7.3165 -38.9319,8.6984 -29.61504,4.9791 -67.58146,7.2557 -84.09895,5.043 z"
     id="path77" />
  <path
     style="fill:#008e96;fill-opacity:1;stroke-width:1.54756"
     d="m 285.52442,2537.1087 c -30.17047,-1.7168 -42.17297,-2.7942 -59.37768,-5.3301 -8.39975,-1.2381 -15.83794,-1.9014 -16.52931,-1.4741 -0.69137,0.4272 -1.71987,0.028 -2.28555,-0.8873 -0.56569,-0.9153 -2.52891,-1.5196 -4.36272,-1.3427 -1.83381,0.1768 -4.3788,-0.062 -5.65553,-0.5297 -1.27674,-0.4681 -10.67815,-2.7503 -20.89204,-5.0716 -21.1127,-4.7981 -45.17118,-12.8055 -58.13213,-19.3482 -4.84782,-2.4472 -9.24621,-4.0174 -9.7742,-3.4894 -0.528,0.528 -0.95999,0.2201 -0.95999,-0.6842 0,-0.9043 -3.482,-3.8786 -7.737789,-6.6095 -9.075671,-5.8238 -9.93693,-8.0955 -2.266266,-5.9775 3.009335,0.8309 6.665445,1.3641 8.124675,1.1849 1.45924,-0.1791 3.69776,0.096 4.9745,0.6115 18.29287,7.3856 118.43015,9.0898 169.72774,2.8886 15.46942,-1.87 31.48664,-4.0921 35.59383,-4.938 4.1072,-0.8459 10.90838,-1.9203 15.11374,-2.3876 4.20537,-0.4672 8.31395,-1.2622 9.13021,-1.7667 0.81624,-0.5045 3.65517,-1.112 6.30874,-1.3501 11.47899,-1.0301 64.35196,-15.5726 64.35196,-17.6998 0,-1.9132 7.00601,-0.4051 13.49359,2.9046 8.07695,4.1206 27.47378,19.6332 34.58474,27.6592 4.56856,5.1564 5.28713,6.8638 4.16705,9.9018 -6.80472,18.4562 -44.55151,30.008 -110.58362,33.8422 -28.60011,1.6607 -36.17072,1.6487 -67.01395,-0.1063 z"
     id="path78" />
  <path
     style="fill:#008e96;fill-opacity:1;stroke-width:1.54756"
     d="m 551.98414,2433.5071 c -6.2298,-3.3959 -20.27594,-12.031 -31.21365,-19.1892 -10.9377,-7.1582 -20.29091,-12.6107 -20.78491,-12.1167 -0.49399,0.494 -0.89817,0.1602 -0.89817,-0.7417 0,-0.902 -1.21871,-2.1485 -2.70823,-2.7701 -4.36036,-1.8195 -14.31491,-2.5733 -14.31491,-1.0838 0,0.7518 -0.88414,1.367 -1.96476,1.367 -1.08062,0 -4.87263,1.9243 -8.42668,4.2763 -3.55406,2.3519 -8.76342,4.3831 -11.57637,4.5137 -4.96707,0.2306 -5.12832,0.045 -5.5957,-6.4498 -0.88099,-12.2418 15.60199,-40.4871 32.50359,-55.6983 l 3.97594,-3.5783 3.23372,6.68 c 3.43675,7.0994 27.14698,35.2967 29.67989,35.2967 0.82609,0 1.50199,0.7161 1.50199,1.5913 0,0.8753 8.20349,10.5803 18.22998,21.5667 10.02648,10.9863 19.82065,22.8054 21.76483,26.2646 3.2619,5.8038 3.31808,6.2878 0.7276,6.2677 -1.54398,-0.012 -7.90436,-2.8002 -14.13416,-6.1961 z"
     id="path79" />
  <path
     style="fill:#008e96;fill-opacity:1;stroke-width:1.54756"
     d="m 367.54499,2440.1637 c 0,-1.5615 8.08706,-19.1867 17.97125,-39.1672 l 17.97125,-36.3281 -0.68418,-106.0077 c -0.37629,-58.3043 -0.40735,-104.0808 -0.069,-101.7257 0.33834,2.3551 1.26417,3.8809 2.0574,3.3907 0.87173,-0.5388 1.44284,10.6229 1.44377,28.2167 0.003,65.5369 4.00895,109.5324 15.50319,170.2844 3.32982,17.5995 5.90416,32.1049 5.72076,32.2344 -0.1834,0.1294 -9.75289,8.8684 -21.26554,19.42 -19.90713,18.2452 -32.45741,28.9845 -36.71444,31.4164 -1.24618,0.7119 -1.93445,0.095 -1.93445,-1.7339 z"
     id="path80" />
  <path
     style="fill:#008e96;fill-opacity:1;stroke-width:1.54756"
     d="m 573.4716,2403.4526 c -5.83494,-5.4801 -10.31629,-10.2566 -9.95857,-10.6143 1.1099,-1.1099 -12.44767,-11.4994 -18.07607,-13.8521 -9.48252,-3.9638 -31.54356,-30.7101 -41.5632,-50.3902 -5.24374,-10.2995 -7.02236,-34.2509 -6.48626,-87.3453 0.15845,-15.6934 2.00989,-19.4051 4.63169,-9.2854 1.73423,6.6938 4.0133,23.5437 3.53334,26.1232 -1.06445,5.7207 12.74991,62.6871 15.46359,63.7673 0.71717,0.2855 0.97316,1.0543 0.56887,1.7085 -1.54392,2.4981 13.14197,36.7462 16.78614,39.1459 0.94961,0.6254 1.1882,1.1477 0.53021,1.1607 -1.66572,0.033 3.55521,7.7615 5.24323,7.7615 1.84052,0 1.7242,-2.0283 -0.41578,-7.2502 -0.98194,-2.3961 -1.98293,-5.4011 -2.22442,-6.6778 -0.79436,-4.1998 -15.24911,-48.7304 -16.07492,-49.5219 -0.44404,-0.4255 -0.88297,-1.8184 -0.9754,-3.0951 -0.20582,-2.843 -6.75331,-32.3718 -7.89229,-35.5938 -0.45133,-1.2768 -1.0134,-4.0624 -1.24904,-6.1902 -0.74093,-6.6908 -5.42766,-39.2155 -6.46698,-44.8792 -0.54667,-2.9791 -0.8743,-5.9461 -0.72808,-6.5933 0.14623,-0.6473 -0.43002,-9.0041 -1.28056,-18.5707 -4.25742,-47.8862 -4.3056,-91.768 -0.18136,-165.1856 0.8654,-15.4055 4.97424,-51.6949 8.84867,-78.1517 1.37111,-9.3627 2.74693,-19.1124 3.05738,-21.6658 0.31045,-2.5535 1.29225,-7.647 2.18179,-11.3189 0.88953,-3.672 1.24424,-7.28 0.78824,-8.0178 -0.456,-0.7378 -0.20169,-1.7292 0.56514,-2.2032 0.76683,-0.4739 1.87942,-4.0971 2.47244,-8.0516 1.48351,-9.8928 10.4259,-45.9718 17.30231,-69.808 3.13567,-10.8694 5.79325,-20.8193 5.90575,-22.111 0.1125,-1.2917 0.60705,-3.0327 1.099,-3.8689 2.51225,-4.2702 16.75593,-73.3999 16.75593,-81.3226 0,-1.9604 1.06723,-2.9921 3.09512,-2.9921 1.70231,0 3.09416,0.1741 3.093,0.3869 -10e-4,0.2128 -1.03544,6.2586 -2.2984,13.4351 -1.26296,7.1765 -1.96445,13.38 -1.55887,13.7856 0.40558,0.4056 -0.0308,1.6631 -0.96985,2.7946 -0.93899,1.1314 -1.31157,3.0883 -0.82794,4.3486 0.48363,1.2603 0.18002,2.7237 -0.6747,3.2519 -0.85471,0.5282 -1.41366,2.1174 -1.24213,3.5316 0.17154,1.4141 -0.12796,3.6157 -0.66555,4.8924 -4.72811,11.2288 -33.28999,138.3337 -35.82218,159.4143 -0.45904,3.8215 -2.22236,15.5875 -3.9185,26.1466 -1.69614,10.5591 -3.42787,22.7461 -3.8483,27.0822 -0.42044,4.3362 -1.48044,13.2384 -2.35558,19.7827 -0.87513,6.5443 -1.44618,12.4638 -1.269,13.1543 0.17719,0.6904 -0.15084,4.041 -0.72894,7.4456 -1.16731,6.8747 -1.92986,17.9392 -4.37289,63.4499 -3.05134,56.843 0.66815,124.9959 9.67055,177.1954 3.62515,21.02 11.65387,53.9686 13.77296,56.5219 0.81991,0.988 1.11947,2.1676 0.66569,2.6213 -1.08424,1.0843 9.715,29.696 16.96361,44.9438 6.73322,14.1636 21.8351,37.1429 28.70462,43.6776 3.81097,3.6251 5.13267,4.1614 6.16,2.4991 1.0304,-1.6672 1.68323,-1.4151 3.07632,1.1879 1.59282,2.9762 1.37283,3.3042 -2.21626,3.3042 -2.77001,0 -7.21844,-3.0372 -14.59357,-9.9639 z"
     id="path81" />
  <path
     style="fill:#008e96;fill-opacity:1;stroke-width:0.136786"
     d="m 428.85184,2350.0875 c -0.0423,-0.2822 -0.57005,-3.4368 -1.17273,-7.0103 -2.87882,-17.0696 -4.9458,-31.8743 -10.79973,-77.3526 l -2.0072,-15.5936 0.01,-34.812 c 0.0126,-43.702 0.17485,-54.1441 1.29538,-83.3711 0.34847,-9.0891 1.14629,-27.5224 1.49928,-34.64 0.15015,-3.0275 0.27299,-5.7205 0.27299,-5.9844 v -0.4799 h 2.27209 2.27208 l -0.0852,1.6073 c -0.20936,3.9503 -0.58869,23.9932 -0.66468,35.1198 -0.0928,13.5913 0.003,50.4867 0.15026,57.7237 0.20156,9.9212 0.49849,21.0317 0.77681,29.0671 1.81247,52.3269 5.87895,98.6517 11.63139,132.5029 0.33479,1.9701 0.60871,3.6166 0.60871,3.659 0,0.042 -1.34608,0.077 -2.99129,0.077 h -2.99128 z"
     id="path82" />
  <path
     style="fill:#008e96;fill-opacity:1;stroke-width:0.136786"
     d="m 442.16101,2350.4974 c 0,-0.057 -0.21674,-1.1776 -0.48165,-2.4909 -4.4778,-22.1988 -7.72545,-68.5985 -8.9569,-127.9684 -0.31348,-15.1133 -0.42621,-27.8628 -0.42338,-47.882 0.004,-29.9162 0.35714,-52.6219 1.21917,-78.4399 l 0.0936,-2.8042 1.5368,-0.039 1.5368,-0.039 0.0384,4.0739 0.0384,4.0738 0.0321,-4.0694 0.0321,-4.0694 h 0.30777 0.30777 l 0.004,42.7115 c 0.004,44.1366 0.21966,77.6963 0.74875,116.4392 0.86876,63.6162 2.26059,87.1729 5.86728,99.3043 l 0.38705,1.3018 h -0.52304 c -0.58878,0 -0.52407,0.1321 -1.07233,-2.1886 -2.87022,-12.1488 -4.59194,-35.8323 -5.4791,-75.3691 -0.52257,-23.2888 -0.70449,-44.498 -0.81193,-94.656 l -0.0965,-45.071 -0.0224,45.6182 c -0.0219,44.6338 0.0986,71.3716 0.3804,84.397 1.05641,48.8262 2.62856,72.4739 5.67909,85.4229 0.17724,0.7523 0.36408,1.4756 0.4152,1.6072 0.0763,0.1966 0.017,0.2394 -0.33203,0.2394 -0.23375,0 -0.42499,-0.046 -0.42499,-0.103 z m -5.50582,-232.7411 c -0.0222,-1.4482 -0.0403,-0.2633 -0.0403,2.6331 0,2.8965 0.0181,4.0814 0.0403,2.6332 0.0222,-1.4483 0.0222,-3.8181 0,-5.2663 z m 5e-5,-14.9192 c -0.0214,-1.8944 -0.039,-0.3051 -0.0389,3.5318 3e-5,3.8368 0.0176,5.3867 0.039,3.4443 0.0214,-1.9425 0.0214,-5.0818 -4e-5,-6.9761 z"
     id="path83" />
  <path
     style="fill:#008e96;fill-opacity:1;stroke-width:0.193445"
     d="m 569.59801,1718.0706 c -1.11714,-0.075 -2.33584,-0.1493 -2.70823,-0.1639 -1.28855,-0.051 -1.27055,0.1397 -0.50686,-5.3645 4.65576,-33.5561 7.34891,-67.2249 8.46212,-105.7903 0.25486,-8.8293 0.3061,-38.3725 0.0834,-48.1193 l -0.14914,-6.5288 h 3.37483 3.37483 l 0.12676,6.3529 c 0.43553,21.8266 0.34036,36.6724 -0.36043,56.2265 -1.21359,33.8623 -3.82591,66.9808 -7.44618,94.401 -0.30904,2.3407 -0.6973,5.2963 -0.86282,6.5681 -0.29376,2.2572 -0.45478,2.6473 -1.06699,2.5851 -0.15959,-0.016 -1.2042,-0.091 -2.32134,-0.1668 z"
     id="path84" />
  <path
     style="fill:#008e96;fill-opacity:1;stroke-width:0.386889"
     d="m 574.60714,1547.2677 c -0.52734,-10.1232 -0.67065,-13.3472 -0.66642,-14.992 0.002,-0.9575 -0.24818,-5.3971 -0.557,-9.8657 -0.60829,-8.8021 -0.77975,-11.3046 -1.13978,-16.6362 -0.12933,-1.9151 -0.4884,-6.0935 -0.79794,-9.2854 -0.30954,-3.1918 -0.6627,-7.1961 -0.78479,-8.8984 -0.1221,-1.7023 -0.3076,-3.3791 -0.41225,-3.7261 -0.10463,-0.3471 -0.26489,-1.763 -0.35613,-3.1464 -0.24486,-3.7131 -2.03275,-18.4958 -3.12275,-25.8197 -0.52253,-3.511 -0.96486,-6.6448 -0.98294,-6.964 -0.0771,-1.3614 -2.34451,-16.1078 -2.55796,-16.6362 -0.12892,-0.3192 -0.20237,-0.7241 -0.16321,-0.8999 0.0893,-0.4005 -1.8705,-11.3853 -3.67028,-20.5725 -7.28731,-37.1988 -17.34739,-71.9373 -29.04666,-100.3011 -1.60179,-3.8834 -3.07713,-7.0607 -3.27852,-7.0607 -0.2014,0 -0.26955,-0.1564 -0.15144,-0.3475 0.37092,-0.6001 -8.9219,-19.9342 -12.2456,-25.4774 l -0.75393,-1.2574 h 4.0141 4.0141 l 4.28981,8.2214 c 16.2808,31.2021 25.85545,56.1884 33.69083,87.9206 1.20847,4.8942 2.33446,8.9569 2.50219,9.0283 0.16774,0.071 0.20788,0.2868 0.0892,0.4788 -0.30567,0.4946 1.04437,6.5489 1.46032,6.5489 0.18911,0 0.24038,0.1674 0.11393,0.3719 -0.12644,0.2046 0.38192,3.382 1.12969,7.0608 2.20632,10.8544 5.93584,32.5866 6.64205,38.7038 0.14126,1.2236 0.41723,2.2246 0.61328,2.2246 0.19605,0 0.25007,0.1722 0.12004,0.3826 -0.33387,0.5402 0.65915,8.129 1.06371,8.129 0.18336,0 0.22385,0.1772 0.09,0.3938 -0.25175,0.4074 0.47089,7.4775 0.86926,8.5047 0.12379,0.3191 0.18926,0.7354 0.14548,0.925 -0.0438,0.1896 0.36516,4.368 0.90875,9.2853 1.45585,13.1698 2.06223,19.3324 2.30731,23.449 0.12034,2.0215 0.32227,4.162 0.44872,4.7567 0.21524,1.0121 0.50224,4.667 0.5379,6.85 0.009,0.532 0.26646,4.5363 0.57283,8.8985 0.30636,4.3622 0.65378,10.5427 0.77205,13.7346 0.11827,3.1918 0.3063,6.7609 0.41783,7.9312 0.11154,1.1703 0.26707,4.3912 0.34563,7.1575 0.0785,2.7662 0.21842,7.3363 0.31083,10.1558 l 0.168,5.1263 h -3.36176 -3.36176 z"
     id="path85" />
  <path
     style="fill:#008e96;fill-opacity:1;stroke-width:0.273572"
     d="m 513.40018,1274.5557 c -0.17566,-0.3856 -1.90404,-3.4325 -3.84084,-6.7709 -6.1451,-10.5924 -10.48685,-19.1872 -12.32879,-24.4058 -2.07664,-5.8835 -1.62167,-7.3051 1.44185,-4.5052 3.3578,3.0688 9.26776,11.7495 16.38862,24.0721 2.91716,5.0481 6.77788,11.9877 6.77788,12.1831 0,0.07 -1.82685,0.1276 -4.05967,0.1276 h -4.05967 z"
     id="path86" />
  <path
     style="fill:#008e96;fill-opacity:1;stroke-width:0.773779"
     d="m 397.33548,2444.9207 c 0,-2.6393 17.59416,-20.7922 24.84523,-25.6343 2.60409,-1.7389 5.53459,-3.1617 6.5122,-3.1617 2.06876,0 5.78396,4.0254 5.78396,6.2669 0,2.2986 -5.78418,8.072 -11.91266,11.8905 -10.63437,6.626 -25.22873,12.7802 -25.22873,10.6386 z"
     id="path87" />
  <path
     style="fill:#008e96;fill-opacity:1;stroke-width:0.273572"
     d="m 418.15031,2088.7918 c 0.0852,-1.0908 0.33887,-5.4919 0.56377,-9.7802 1.76834,-33.7172 4.14167,-55.9596 6.80148,-63.7423 l 0.70122,-2.0518 -0.12153,7.5233 c -0.069,4.2705 -0.59754,14.9748 -1.22252,24.7582 -0.97864,15.3197 -1.79008,29.5906 -2.35275,41.3778 l -0.18609,3.8984 h -2.16922 -2.16923 z"
     id="path1" />
  <path
     style="fill:#008e96;fill-opacity:1;stroke-width:0.273572"
     d="m 482.91532,2255.0553 c -0.0547,-0.7417 -1.01146,-67.0908 -3.3374,-231.442 -1.31976,-93.2539 -2.20274,-141.7179 -3.018,-165.648 -0.2979,-8.7443 -0.43289,-10.3957 -0.84975,-10.3957 -2.68683,0 -23.68496,88.6343 -31.72513,133.9136 -4.03819,22.7416 -5.28066,42.1676 -6.43466,100.6061 -0.0943,4.7773 -0.28045,8.6859 -0.41358,8.6859 -0.30906,0 -0.30278,-4.7425 0.031,-23.3904 0.83236,-46.5089 2.22042,-64.745 6.85865,-90.1074 6.9811,-38.1735 26.66785,-122.3325 31.92557,-136.4787 0.40544,-1.0909 0.83182,-1.9834 0.94751,-1.9834 0.1157,0 0.21036,-0.1847 0.21036,-0.4104 0,-0.8628 -0.60304,-0.3519 -1.2109,1.0259 -3.84891,8.7242 -19.98173,75.9433 -29.72679,123.8598 -6.69492,32.919 -8.66969,53.506 -9.27652,96.7078 -0.14372,10.2316 -0.26427,21.342 -0.26789,24.6898 l -0.007,6.087 h -1.52799 -1.52799 l 0.1531,-1.9834 c 0.0842,-1.0908 0.22357,-4.0762 0.30972,-6.6341 0.51934,-15.4216 1.85845,-39.433 3.15059,-56.4926 3.00191,-39.6335 6.90362,-63.0939 19.52441,-117.3975 4.62745,-19.9106 6.31517,-26.4526 14.84734,-57.5519 3.09602,-11.2849 5.96388,-21.749 6.37303,-23.2537 l 0.74389,-2.7357 0.17567,4.9243 c 0.3843,10.7723 0.46991,16.4848 1.6872,112.5749 0.89363,70.5419 3.69175,306.1104 3.69228,310.8464 1.7e-4,1.467 -0.10287,2.6673 -0.22897,2.6673 -0.1261,0 -0.313,-6.9248 -0.41533,-15.3884 -0.32792,-27.1226 -2.61195,-196.4916 -3.31942,-246.1465 -1.54526,-108.4577 -2.26843,-146.7457 -2.88069,-152.5165 -0.16044,-1.5122 -0.19372,-0.2862 -0.10769,3.9668 1.36532,67.4954 2.33234,131.9321 4.77067,317.8908 0.94335,71.9444 1.16838,95.4969 0.87433,91.5099 z"
     id="path57" />
  <path
     style="fill:#008e96;fill-opacity:1;stroke-width:0.273572"
     d="m 531.29921,2254.303 c -7.10266,-35.1421 -10.68873,-81.7088 -10.68651,-138.7695 0.003,-81.168 8.02592,-156.5828 25.02891,-235.2742 3.3641,-15.5694 4.8528,-21.9209 10.93208,-46.6419 2.60862,-10.6078 5.02816,-20.4985 5.37676,-21.9795 0.3486,-1.481 0.67726,-2.5623 0.73037,-2.403 0.0531,0.1593 -1.93805,8.9421 -4.42479,19.5174 -19.46966,82.7975 -27.24081,126.5458 -32.1597,181.0456 -3.79268,42.0217 -5.5306,88.8843 -4.69738,126.6639 1.12202,50.8745 3.77017,81.2039 9.89262,113.3011 0.59392,3.1136 1.07985,5.732 1.07985,5.8187 0,0.087 -0.17593,0.1576 -0.39096,0.1576 -0.25239,0 -0.49385,-0.509 -0.68125,-1.4362 z"
     id="path58" />
  <path
     style="fill:#008e96;fill-opacity:1;stroke-width:0.273572"
     d="m 530.31647,2255.3973 c -0.2171,-0.6047 -2.24747,-12.1867 -3.24919,-18.5345 -8.55113,-54.1887 -10.97177,-115.7226 -7.12974,-181.2416 3.21469,-54.8207 11.16201,-113.6201 22.99909,-170.1619 4.10758,-19.6205 6.1693,-28.411 15.55977,-66.3412 5.93396,-23.9687 9.70081,-39.5031 11.9403,-49.2415 0.50152,-2.1808 0.94938,-3.7704 0.99525,-3.5322 0.20768,1.0784 -6.5094,30.2889 -16.31899,70.9662 -10.14629,42.0736 -15.58003,68.0856 -20.68732,99.0331 -10.10875,61.2538 -14.92389,125.8739 -14.26959,191.5006 0.49881,50.0311 3.45021,87.1066 9.63317,121.0122 0.66789,3.6625 1.21434,6.7094 1.21434,6.7709 0,0.2713 -0.57638,0.078 -0.68709,-0.2301 z"
     id="path59" />
  <path
     style="fill:#008e96;fill-opacity:1;stroke-width:0.273572"
     d="m 405.89794,2167.2386 c -0.22239,-4.5849 -0.51736,-6.7659 -0.93383,-6.9047 -0.14286,-0.048 -0.10474,-0.9204 0.09,-2.0604 0.73652,-4.3118 1.4351,-15.3505 2.29793,-36.311 0.64374,-15.6384 1.51369,-28.9701 2.74024,-41.9934 0.7906,-8.3944 3.22633,-31.8135 3.65624,-35.154 0.75632,-5.8767 0.40214,-0.9749 -0.79621,11.0195 -3.3265,33.2953 -5.34058,63.7724 -6.15989,93.2115 -0.16959,6.0938 -0.39246,13.6649 -0.49525,16.8247 l -0.1869,5.745 z"
     id="path60" />
  <path
     style="fill:#008e96;fill-opacity:1;stroke-width:0.273572"
     d="m 403.99219,2159.5786 c -1.24238,-5.9663 -2.73038,-55.6705 -4.03356,-134.7343 -0.60706,-36.8298 -1.10083,-64.1338 -1.92634,-106.5201 -0.3073,-15.7789 -0.50494,-28.7427 -0.43918,-28.8085 0.20243,-0.2024 0.43938,9.582 1.14727,47.3752 1.65109,88.1485 3.2994,164.6639 3.96032,183.8405 0.46214,13.4091 1.09052,23.4501 1.54101,24.624 0.90344,2.3544 1.61493,-4.8351 2.01723,-20.3837 0.54706,-21.144 2.60767,-46.25 6.71367,-81.798 5.20293,-45.0447 11.71525,-85.9449 19.1662,-120.3718 2.67501,-12.3598 7.55324,-32.9814 7.87916,-33.3073 0.342,-0.342 0.12232,0.9284 -0.78291,4.5278 -11.94612,47.4993 -22.16871,109.7712 -28.59399,174.1831 -2.55349,25.5982 -3.43596,38.9285 -4.12016,62.2377 -0.3685,12.554 -1.09921,22.6603 -2.02746,28.0411 -0.27983,1.6221 -0.3565,1.7895 -0.50126,1.0943 z"
     id="path61" />
  <path
     style="fill:#008e96;fill-opacity:1;stroke-width:0.273572"
     d="m 402.75929,2306.3501 c -0.30372,-44.7695 -1.80327,-162.4264 -3.07355,-241.1539 -0.9043,-56.0457 -2.84099,-163.3058 -3.10333,-171.8717 -0.0657,-2.1441 -0.0261,-3.8984 0.088,-3.8984 0.28046,0 0.42633,6.5265 1.51027,67.5723 0.5143,28.9645 1.00662,56.2944 1.09406,60.7331 0.0874,4.4387 0.33854,17.6727 0.558,29.409 1.10226,58.9464 2.01759,89.865 3.15759,106.6597 0.15196,2.2386 0.20996,4.1365 0.12889,4.2176 -0.0811,0.081 -0.1474,-0.1882 -0.1474,-0.5983 0,-0.4307 -0.11632,-0.6738 -0.27535,-0.5755 -0.32427,0.2004 -0.29967,63.0444 0.0442,112.9842 0.1233,17.9053 0.19276,35.6328 0.15435,39.3944 -0.0592,5.7951 -0.0799,5.3565 -0.13573,-2.8725 z"
     id="path62" />
  <path
     style="fill:#008e96;fill-opacity:1;stroke-width:0.273572"
     d="m 437.71546,2380.409 c -1.97883,-0.9973 -4.68494,-9.4901 -7.3842,-23.1745 -0.60842,-3.0845 -1.15408,-5.8237 -1.21256,-6.087 -0.0961,-0.4326 0.17426,-0.4787 2.80896,-0.4783 l 2.91529,3e-4 1.44047,7.1809 c 0.79225,3.9495 1.8704,9.1506 2.39587,11.5581 0.52547,2.4074 1.03064,5.6082 1.12261,7.1128 0.15524,2.54 0.12431,2.7896 -0.43233,3.4881 -0.68349,0.8577 -0.72517,0.8677 -1.65411,0.3996 z"
     id="path63" />
  <path
     style="fill:#008e96;fill-opacity:1;stroke-width:0.273572"
     d="m 446.92261,2362.1434 c -1.31804,-1.0368 -3.46126,-6.1829 -4.40859,-10.5855 -0.34987,-1.626 0.33715,-0.9424 0.96234,0.9575 0.87061,2.6458 2.17533,5.2286 2.94837,5.8367 1.68306,1.3239 4.14953,0.203 7.74277,-3.5189 6.45301,-6.6839 11.47204,-13.5841 25.39649,-34.9153 l 4.98331,-7.6341 -0.29883,-24.7842 c -0.16436,-13.6314 -0.35081,-26.4304 -0.41434,-28.4423 -0.077,-2.4378 -0.0243,-3.5668 0.15796,-3.3845 0.17416,0.1741 0.40658,10.8908 0.64001,29.5105 l 0.36653,29.2372 -5.08088,7.66 c -10.05333,15.1565 -17.3795,25.5694 -21.65288,30.7758 -4.0154,4.892 -9.19701,9.8497 -10.29461,9.8497 -0.18283,0 -0.65427,-0.2532 -1.04765,-0.5626 z"
     id="path64" />
  <path
     style="fill:#008e96;fill-opacity:1;stroke-width:0.273572"
     d=""
     id="path65" />
  <path
     style="fill:#008e96;fill-opacity:1;stroke-width:0.273572"
     d=""
     id="path66" />
  <path
     style="fill:#008e96;fill-opacity:1;stroke-width:0.273572"
     d="m 446.5769,2357.85 c -0.60004,-0.5996 -2.10375,-3.8424 -2.66401,-5.745 -0.3974,-1.3495 -0.3938,-1.4362 0.0595,-1.4362 0.34863,0 0.61712,0.4363 0.96805,1.573 0.82447,2.6708 2.30899,5.5399 2.86641,5.5399 0.96493,0 3.62415,-2.2617 6.75477,-5.7451 5.69132,-6.3325 11.95443,-14.8033 21.4907,-29.066 l 7.63601,-11.4206 -0.42237,-27.9453 c -0.23231,-15.37 -0.36965,-27.9981 -0.3052,-28.0626 0.28142,-0.2814 0.43218,4.9116 0.56965,19.6208 0.0808,8.6517 0.22182,20.47 0.31327,26.2629 l 0.16626,10.5325 -7.51231,11.4901 c -13.03227,19.9327 -17.34578,25.7954 -22.97805,31.2306 -3.56523,3.4404 -5.69821,4.4146 -6.94269,3.171 z"
     id="path67" />
  <path
     style="fill:#008e96;fill-opacity:1;stroke-width:0.0967224"
     d=""
     id="path68" />
  <path
     style="fill:#008e96;fill-opacity:1;stroke-width:0.0967224"
     d="m 365.95107,2442.7959 c 0.25574,-1.8884 1.51232,-5.7271 3.37985,-10.3252 1.93003,-4.7519 3.50304,-8.0935 11.26868,-23.9387 1.29055,-2.6333 6.895,-13.9063 12.45433,-25.0511 l 10.10789,-20.2634 -0.21564,-24.906 c -0.1604,-18.5265 -0.18813,-25.053 -0.10822,-25.4799 0.0736,-0.3931 0.10741,-3.2548 0.10741,-9.0838 0,-4.6805 0.0157,-8.4918 0.0349,-8.4697 0.0192,0.022 0.0622,5.0892 0.0956,11.2601 0.0334,6.1709 0.12955,21.7747 0.21376,34.675 l 0.15311,23.4552 -8.28676,16.7329 c -11.70356,23.6324 -14.25898,28.8472 -18.10543,36.948 -4.87922,10.2758 -8.17329,17.6416 -9.20598,20.5854 -0.44722,1.2748 -0.39101,2.497 0.13922,3.0272 0.3915,0.3915 0.92713,0.32 1.87603,-0.2503 3.94163,-2.369 14.29999,-11.1377 29.99043,-25.3879 4.02873,-3.659 7.67705,-6.991 17.21536,-15.723 1.83047,-1.6757 4.85375,-4.4332 6.71841,-6.1278 1.86466,-1.6946 3.47202,-3.1594 3.5719,-3.2552 0.17592,-0.1687 0.17649,-0.21 0.0179,-1.3198 -0.48282,-3.3795 -2.44529,-14.3237 -5.27849,-29.437 -6.36484,-33.9521 -9.77065,-57.2004 -12.2283,-83.4714 -0.46213,-4.9398 -1.40852,-16.5506 -1.40852,-17.2803 0,-0.073 0.10271,-0.1297 0.2333,-0.1297 0.26569,0 0.29872,0.1305 0.39181,1.5476 0.12309,1.8738 0.76245,9.6237 1.12113,13.5895 1.50282,16.6162 3.45047,32.7525 5.8547,48.5062 1.72242,11.2862 3.90352,23.127 10.66316,57.8884 l 1.91847,9.8657 -0.58684,0.5319 c -1.67494,1.5184 -8.31592,7.6152 -14.276,13.1062 -14.26193,13.1395 -19.52216,17.953 -24.95437,22.8354 -9.47075,8.5122 -15.13342,13.2138 -18.24814,15.1509 l -1.04798,0.6518 h -1.81947 -1.81947 z"
     id="path69" />
  <path
     style="fill:#008e96;fill-opacity:1;stroke-width:0.0967224"
     d="m 456.85188,2409.1334 c -0.2749,-0.099 -0.66662,-0.3058 -0.8705,-0.4603 -0.53993,-0.409 -2.11809,-2.0281 -2.45702,-2.5207 -0.60988,-0.8865 -0.62131,-0.9632 -0.61835,-4.1492 0.003,-3.2235 0.0938,-4.022 0.77001,-6.7706 2.1692,-8.817 9.81048,-22.8578 19.42354,-35.6905 8.39427,-11.2057 16.0283,-18.4448 18.6293,-17.6656 0.51663,0.1548 1.17573,0.906 1.49528,1.7042 0.27981,0.699 0.54353,2.0452 0.54353,2.7745 0,2.7003 5.8741,10.6901 18.22814,24.7936 2.43982,2.7853 6.33986,7.1468 8.97939,10.0418 1.05838,1.1609 1.90474,2.1302 1.8808,2.1542 -0.0841,0.084 -1.68573,-1.4043 -3.50874,-3.2605 -7.5144,-7.6514 -20.62972,-23.8312 -24.31987,-30.0024 -0.28018,-0.4686 -1.29188,-2.4708 -2.24821,-4.4493 -0.95633,-1.9785 -1.75349,-3.6126 -1.77146,-3.6314 -0.0595,-0.062 -4.89964,4.3516 -6.6103,6.028 -3.6401,3.5672 -7.03042,7.4112 -10.45286,11.8514 -9.8755,12.8124 -17.4628,27.3747 -19.15273,36.7598 -0.37818,2.1002 -0.43661,3.4023 -0.25353,5.6495 0.21685,2.6618 0.36968,3.5291 0.75861,4.3046 0.28151,0.5614 0.37281,0.6559 0.88755,0.9189 l 0.57377,0.2931 1.98938,-0.01 c 2.32349,-0.01 3.12039,-0.1409 5.42302,-0.9113 2.6427,-0.8841 4.99369,-2.0056 7.41137,-3.5355 4.03532,-2.5535 7.41414,-4.3005 8.31724,-4.3005 0.21882,0 -0.008,0.1692 -1.07594,0.8014 -0.74434,0.4408 -2.40861,1.4863 -3.69838,2.3233 -3.25549,2.1126 -5.28525,3.3123 -7.37948,4.3616 -3.66875,1.8382 -6.13626,2.5608 -9.28143,2.7178 -0.93538,0.047 -1.19181,0.027 -1.61213,-0.1239 z"
     id="path88" />
  <path
     style="fill:#008e96;fill-opacity:1;stroke-width:0.136786"
     d="m 596.28417,2416.7384 c -4.17089,-2.5071 -3.8713,-2.4153 -7.74889,-2.3736 -2.98086,0.032 -3.20223,0.017 -3.92042,-0.268 -2.76572,-1.0971 -8.3519,-6.1789 -15.44281,-14.0482 -6.95715,-7.721 -11.60968,-12.4383 -15.04971,-15.2593 -2.00889,-1.6474 -2.13769,-1.7618 -1.98533,-1.7633 0.21642,0 4.18838,2.8869 6.29216,4.5765 3.34541,2.6868 5.25069,4.653 5.04026,5.2013 -0.17714,0.4617 2.2176,3.154 6.80907,7.6551 9.09664,8.9177 14.21271,12.702 17.5848,13.0071 1.36309,0.1233 2.91877,-0.1237 3.23483,-0.5136 0.34414,-0.4246 0.24135,-0.8517 -0.61852,-2.5699 -0.73559,-1.4698 -1.64845,-2.6055 -2.09429,-2.6055 -0.13864,0 -0.51737,0.2769 -0.84162,0.6153 l -0.58955,0.6152 -0.083,-0.3759 c -0.33462,-1.5159 -1.50516,-4.4457 -3.48384,-8.7198 -0.62692,-1.3542 -5.91558,-12.003 -11.75258,-23.664 -5.83701,-11.661 -11.3113,-22.7407 -12.16509,-24.6215 -10.9069,-24.0267 -19.67868,-51.3737 -26.41289,-82.3452 -0.86096,-3.9597 -2.73715,-13.1799 -2.73715,-13.4512 0,-0.1069 0.11942,-0.1343 0.34197,-0.078 0.27086,0.068 0.34434,0.033 0.35342,-0.1684 0.006,-0.1398 0.31414,1.1923 0.68409,2.9603 6.23453,29.7945 14.34445,55.7927 26.45722,84.8145 9.17178,21.9753 23.89561,52.1452 30.83767,63.188 2.07301,3.2976 3.93304,5.6307 4.95177,6.2113 0.3734,0.2128 0.29171,0.086 -0.44161,-0.6839 -3.77645,-3.9665 -11.14105,-17.2008 -20.83959,-37.4489 -19.41861,-40.5411 -31.64126,-74.8263 -39.45663,-110.678 -0.68613,-3.1475 -1.79402,-8.4952 -1.79402,-8.6595 0,-0.048 0.0958,0.05 0.21294,0.2167 0.2541,0.3628 0.70546,0.4006 0.77171,0.065 0.026,-0.1317 0.24853,0.7454 0.4946,1.9492 3.73722,18.2816 9.21044,38.3405 15.00384,54.988 5.63301,16.1865 16.00334,41.1696 25.74937,62.0325 1.95666,4.1885 5.95991,12.4251 7.18009,14.7728 0.52785,1.0157 1.39234,2.6776 1.92109,3.6933 3.19862,6.144 7.93318,14.0608 10.32275,17.2608 0.83134,1.1134 1.19977,1.4531 1.38014,1.2727 0.1175,-0.1175 -0.21988,-2.8712 -0.59693,-4.8722 -0.187,-0.9923 -0.73589,-3.595 -1.21977,-5.7836 -1.07867,-4.879 -1.69077,-8.0168 -2.40165,-12.3115 -4.82836,-29.1701 -7.70796,-75.0919 -8.89122,-141.7905 -0.36448,-20.5455 -0.74869,-52.6436 -0.63153,-52.7607 0.0464,-0.046 0.12502,-0.044 0.17473,0.01 0.0497,0.05 0.13874,4.2302 0.19786,9.2901 0.84614,72.4273 2.78155,122.776 6.01395,156.4499 1.7516,18.2475 3.83587,31.7028 6.62157,42.7465 1.71346,6.7929 2.12164,9.2732 1.6738,10.1709 -0.20234,0.4056 -0.20041,0.4202 0.0386,0.2923 0.13837,-0.074 0.32466,-0.356 0.41396,-0.6266 0.30966,-0.9383 -0.037,-2.9548 -1.71452,-9.9743 -1.31045,-5.4834 -1.71378,-7.4132 -1.6969,-8.1193 0.0116,-0.483 0.0264,-0.4675 0.4877,0.5057 1.21656,2.567 3.93566,10.6455 5.03284,14.9527 1.10068,4.3209 1.76278,8.1582 1.49135,8.6432 -0.0974,0.174 -0.65001,-0.1089 -3.16014,-1.6178 z"
     id="path89" />
  <path
     style="fill:#008e96;fill-opacity:1;stroke-width:0.136786"
     d="m 548.22214,2380.8196 c -0.57545,-0.2496 -1.3336,-0.4415 -2.07971,-0.5263 -1.8514,-0.2104 -3.42621,-0.9342 -5.72047,-2.6292 -5.75813,-4.2541 -15.30787,-15.1051 -24.12554,-27.4129 -8.9484,-12.4903 -15.26168,-24.0438 -16.66433,-30.4961 -1.10303,-5.074 -2.29809,-18.8205 -2.961,-34.0597 -0.37854,-8.7019 -0.43654,-11.4683 -0.50623,-24.1427 -0.10225,-18.5951 0.19347,-27.2218 1.14292,-33.3417 l 0.21752,-1.402 h 0.61301 c 0.53052,0 0.59962,0.032 0.51354,0.2394 -0.41327,0.9945 -0.77742,3.1439 -1.02544,6.0527 -0.4163,4.8824 -0.50316,34.9993 -0.13887,48.1487 0.68432,24.7007 2.32382,37.9646 5.68525,45.9946 0.60396,1.4428 2.91183,5.6857 4.81056,8.8441 7.45457,12.3998 17.81881,25.7692 27.00895,34.8404 4.57141,4.5122 7.43704,6.7368 10.49057,8.144 1.20138,0.5537 3.85003,2.0031 3.85003,2.1069 0,0.1028 -0.17283,0.047 -1.11076,-0.3602 z"
     id="path90" />
  <path
     style="fill:#008e96;fill-opacity:1;stroke-width:0.136786"
     d="m 566.29437,2440.874 c -3.74667,-0.5816 -11.11071,-4.0442 -20.5561,-9.6656 -7.1181,-4.2363 -12.74051,-7.8398 -27.79778,-17.8158 -6.31952,-4.1869 -11.90735,-7.8796 -12.41741,-8.2059 -0.51006,-0.3263 -0.90009,-0.6205 -0.86673,-0.6539 0.18189,-0.1819 8.55966,4.9582 16.73363,10.2667 11.61273,7.5418 23.52111,14.8585 30.19989,18.5554 4.08317,2.2602 9.78079,4.9451 12.68387,5.9771 0.74075,0.2634 1.28592,0.3576 2.13517,0.3691 1.05001,0.014 1.16164,-0.011 1.40799,-0.3148 0.1913,-0.2362 0.24519,-0.4506 0.18909,-0.7524 -0.0969,-0.5215 -1.76095,-3.9037 -2.64099,-5.3679 -2.40318,-3.9985 -11.11783,-14.479 -22.32687,-26.8509 -7.67741,-8.4738 -15.6152,-17.6728 -15.41912,-17.8689 0.0372,-0.037 0.23777,0.135 0.44571,0.3827 0.20793,0.2477 2.87779,3.1252 5.93301,6.3944 18.48124,19.7759 22.97354,24.8246 27.81668,31.2618 4.62429,6.1463 7.35247,10.8997 7.35247,12.8107 0,1.2042 -1.07464,1.7573 -2.87251,1.4782 z"
     id="path91" />
  <path
     style="fill:#008e96;fill-opacity:1;stroke-width:0.136786"
     d="m 580.10976,2534.1037 c -0.33854,-0.1 -2.21593,-0.6156 -4.17197,-1.1463 -10.35234,-2.8088 -21.4741,-6.5299 -32.14473,-10.7551 -30.01235,-11.8837 -59.77727,-28.9797 -89.80006,-51.5781 -9.45103,-7.1139 -13.20279,-10.6071 -14.74622,-13.7301 -0.48304,-0.9773 -0.50522,-1.0835 -0.5006,-2.3976 0.006,-1.6286 0.24425,-2.3515 1.31925,-3.9983 2.37258,-3.6344 8.92809,-8.274 37.52317,-26.5567 13.78905,-8.8162 15.29296,-9.7566 15.50804,-9.6963 0.1223,0.034 1.82275,1.062 3.77879,2.2838 2.78996,1.7428 3.44095,2.2012 3.02056,2.1273 -0.87768,-0.1543 -1.89223,-0.5856 -3.09199,-1.3143 -1.56614,-0.9512 -1.97968,-1.1015 -3.02527,-1.0993 -2.62704,0.01 -6.32293,2.1452 -23.64497,13.6896 -12.16794,8.1093 -20.37224,13.9244 -25.84196,18.3162 -2.86762,2.3026 -3.83052,3.288 -4.45245,4.5566 -0.46993,0.9585 -0.51043,1.1301 -0.45864,1.9434 0.0509,0.8 0.12674,0.9949 0.73462,1.8888 1.11483,1.6393 6.12443,6.5046 10.11605,9.8246 14.96584,12.4477 45.20399,31.5898 67.57645,42.7789 14.06161,7.0325 33.67177,15.218 48.14458,20.0958 6.08441,2.0507 9.80388,3.0324 12.53744,3.309 0.72654,0.073 1.50761,0.2302 1.73572,0.3482 0.47395,0.2451 0.8417,0.7113 0.8417,1.0672 0,0.283 -0.12326,0.2885 -0.95751,0.043 z"
     id="path92" />
  <path
     style="fill:#008e96;fill-opacity:1;stroke-width:0.136786"
     d="m 527.58391,2435.4813 c -1.99668,-0.5693 -5.39191,-2.3947 -11.3929,-6.1249 -4.98906,-3.1013 -11.45392,-7.5325 -11.26501,-7.7214 0.0405,-0.041 1.93883,1.0823 4.21865,2.495 5.40441,3.3489 12.10695,7.3711 16.0394,9.6253 1.72699,0.9899 3.16837,1.8282 3.20308,1.8629 0.0945,0.095 -0.12026,0.058 -0.80322,-0.1369 z"
     id="path93" />
  <path
     style="fill:#008e96;fill-opacity:1;stroke-width:0.0483612"
     d="m 584.97686,2460.5883 c -3.25244,-0.4203 -15.63821,-5.0878 -29.87579,-11.2587 -10.87188,-4.712 -19.5574,-8.8833 -23.17921,-11.1318 -0.89286,-0.5544 -1.32657,-0.8757 -1.78658,-1.3238 -0.54324,-0.5292 -0.89544,-0.7588 -1.64428,-1.0719 -0.20034,-0.084 -0.23615,-0.1122 -0.14508,-0.115 h 0.1209 l -0.14508,-0.1189 c -0.0798,-0.065 -0.13029,-0.1191 -0.1122,-0.1192 0.0181,-1e-4 0.57304,0.3013 1.23321,0.6699 7.96332,4.4461 15.82485,8.3926 23.6351,11.8647 9.075,4.0344 19.85364,8.244 30.68998,11.986 0.94425,0.326 1.7375,0.6114 1.76277,0.6341 0.0542,0.049 -0.11463,0.045 -0.55374,-0.012 z"
     id="path94" />
  <path
     style="fill:#008e96;fill-opacity:1;stroke-width:0.0483612"
     d="m 650.4579,2478.6247 c -10.50202,-2.2615 -16.95493,-3.7412 -25.26872,-5.7942 -18.27606,-4.513 -31.72525,-8.4973 -36.1258,-10.7022 -0.47553,-0.2383 -1.2527,-0.71 -1.22136,-0.7413 0.009,-0.01 1.2121,0.3757 2.67402,0.8545 19.27136,6.3119 39.09885,11.5689 60.20785,15.9634 l 0.77378,0.1611 0.0147,0.2295 c 0.0126,0.1955 0.002,0.2289 -0.0725,0.2257 -0.048,0 -0.48989,-0.09 -0.98197,-0.1965 z"
     id="path95" />
  <path
     style="fill:#008e96;fill-opacity:1;stroke-width:0.0483612"
     d="m 767.60725,2491.9276 c -27.85993,-0.3397 -57.36144,-2.9468 -86.76643,-7.6678 l -0.83424,-0.1339 v -0.2725 -0.2726 l 1.0035,0.1601 c 2.00641,0.3201 6.76968,1.0363 9.24908,1.3906 24.0001,3.43 47.86412,5.4793 70.99421,6.0966 6.69862,0.1788 15.81264,0.2427 21.89553,0.1537 l 2.81704,-0.041 v 0.2401 0.2401 l -1.26949,0.033 c -4.28536,0.1118 -11.44069,0.1426 -17.0892,0.074 z"
     id="path96" />
  <path
     style="fill:#008e96;fill-opacity:1;stroke-width:0.0483612"
     d="m 680.00658,2543.1286 c 0,-0.2932 0.009,-0.3218 0.10882,-0.3417 0.0598,-0.012 0.60935,-0.057 1.22112,-0.1 14.34815,-1.0051 33.15668,-3.335 44.32302,-5.4904 10.11376,-1.9522 23.37904,-4.9978 37.06885,-8.5108 9.50089,-2.438 18.42791,-4.644 22.31903,-5.5153 0.98388,-0.2204 0.91852,-0.2112 0.91852,-0.1283 0,0.068 -0.60549,0.2646 -4.23161,1.3712 -27.75778,8.4711 -54.53567,14.2434 -79.82013,17.2062 -6.55135,0.7677 -13.15424,1.3234 -21.33937,1.7959 l -0.56825,0.033 z"
     id="path97" />
  <path
     style="fill:#008e96;fill-opacity:1;stroke-width:0.0483612"
     d="m 785.96594,2491.6002 v -0.2415 l 0.35061,-0.027 c 0.19284,-0.015 1.01438,-0.039 1.82564,-0.054 4.71,-0.088 13.21802,-0.4242 18.98176,-0.7498 15.50542,-0.8761 27.69991,-2.3847 42.98758,-5.3181 0.83475,-0.1602 1.542,-0.2912 1.57167,-0.2912 0.0341,0 0.0539,0.1144 0.0539,0.311 0,0.2569 -0.0151,0.3159 -0.0869,0.3387 -0.0478,0.015 -1.25018,0.222 -2.67196,0.4597 -19.18229,3.2061 -40.0172,5.1801 -60.49756,5.732 -0.54528,0.015 -1.33417,0.039 -1.7531,0.054 l -0.76168,0.028 z"
     id="path98" />
  <path
     style="fill:#008e96;fill-opacity:1;stroke-width:0.0483612"
     d="m 789.62277,2521.8577 c 0.0767,-0.058 0.29196,-0.2509 0.47828,-0.4288 0.75745,-0.7229 2.36126,-1.2561 4.71498,-1.5675 0.51868,-0.069 1.15826,-0.1679 1.4213,-0.2206 0.26304,-0.053 0.51331,-0.094 0.55615,-0.092 0.12702,0.01 -7.11738,2.4143 -7.26284,2.4143 -0.0261,0 0.0154,-0.047 0.0921,-0.1054 z"
     id="path99" />
  <path
     style="fill:#008e96;fill-opacity:1;stroke-width:0.0483612"
     d="m 799.31297,2518.6026 c 0.71809,-0.6 5.81063,-2.6891 14.58155,-5.9817 10.55738,-3.9633 23.42443,-9.2848 36.3797,-15.0456 l 1.46292,-0.6505 v 0.6104 0.6103 l -1.07603,0.4782 c -13.7777,6.1227 -28.96685,12.1886 -43.4888,17.3677 -3.39455,1.2107 -7.91896,2.7799 -8.01499,2.7799 -0.0255,0 0.0446,-0.076 0.15565,-0.1687 z"
     id="path100" />
  <path
     style="fill:#008e96;fill-opacity:1;stroke-width:0.0483612"
     d="m 851.73714,2497.523 v -0.5981 l 1.26948,-0.5702 c 9.04394,-4.0623 16.60392,-7.7034 20.0578,-9.6606 3.83952,-2.1757 5.65703,-3.6076 5.36083,-4.2236 -0.0923,-0.1919 -0.32264,-0.3312 -0.67801,-0.41 -0.45284,-0.1004 -2.80856,-0.088 -3.90904,0.021 -3.98014,0.3932 -9.22812,1.2054 -19.41488,3.0049 -1.43516,0.2535 -2.62666,0.4609 -2.64778,0.4609 -0.0211,0 -0.0381,-0.1468 -0.0378,-0.3264 l 5.9e-4,-0.3264 4.94434,-0.9813 c 5.12664,-1.0175 6.61676,-1.2983 9.03087,-1.7018 5.13435,-0.8581 8.35833,-1.2349 11.05396,-1.2919 1.94869,-0.041 2.94638,0.072 3.5539,0.4024 0.43949,0.2392 0.50987,0.552 0.22989,1.0219 -1.24798,2.0943 -9.62181,6.8873 -22.76899,13.0326 -2.01861,0.9436 -5.9673,2.7449 -6.01707,2.7449 -0.0154,0 -0.0281,-0.2692 -0.0281,-0.5981 z"
     id="path101" />
  <path
     style="fill:#008e96;fill-opacity:1;stroke-width:0.0967224"
     d="m 314.15424,2538.6997 v -0.242 h 6.21441 c 9.52664,-0.01 18.91936,-0.3714 34.36062,-1.333 54.80294,-3.4131 89.28189,-11.9789 102.9593,-25.5789 2.07334,-2.0616 3.51308,-4.0028 4.63426,-6.2482 1.46274,-2.9295 1.63604,-4.6389 0.66538,-6.5625 -0.60461,-1.1981 -1.83213,-2.8318 -3.81928,-5.083 -7.28273,-8.2503 -26.62452,-23.7191 -34.94464,-27.9474 -3.36545,-1.7104 -7.8757,-3.2854 -10.1422,-3.5418 -0.33028,-0.037 -0.57424,-0.095 -0.54215,-0.1277 0.0321,-0.033 0.78305,-0.3022 1.66879,-0.5987 l 1.61044,-0.5391 3.33985,1.6455 c 1.83692,0.905 3.90533,1.9472 4.59648,2.316 10.30255,5.4976 27.48824,19.3225 35.01124,28.1645 3.13854,3.6889 4.13446,5.796 4.1373,8.7534 0.002,2.342 -0.71013,4.4222 -2.35645,6.881 -0.76608,1.1441 -1.37651,1.8757 -2.63763,3.1614 -5.38864,5.4934 -14.34418,10.3656 -26.22246,14.2662 -19.23438,6.3161 -48.50947,10.6302 -82.79435,12.2008 -8.92361,0.4088 -14.42961,0.5383 -25.60724,0.6021 l -10.13167,0.058 z"
     id="path102" />
  <path
     style="fill:#008e96;fill-opacity:1;stroke-width:0.0483612"
     d="m 358.308,2478.0279 c 0,-0.3354 0.008,-0.3636 0.10881,-0.3871 0.0598,-0.014 0.83786,-0.1894 1.72891,-0.3901 10.08519,-2.2708 20.4062,-4.9283 29.69377,-7.6454 6.25369,-1.8296 11.49848,-3.4937 18.34274,-5.8197 1.43065,-0.4863 2.61671,-0.8682 2.63569,-0.8488 0.0614,0.063 -0.3512,0.3826 -0.79256,0.6141 -4.46599,2.3423 -28.31886,9.3092 -47.38903,13.8413 -1.73642,0.4126 -4.26356,0.9975 -4.31028,0.9975 -0.01,0 -0.0181,-0.1628 -0.0181,-0.3618 z"
     id="path103" />
  <path
     style="fill:#008e96;fill-opacity:1;stroke-width:0.068393"
     d="m 201.4859,2494.7606 c 0,-0.1132 1.86311,-0.1582 6.59992,-0.1591 8.83419,0 20.05916,-0.2109 27.63079,-0.5149 6.97621,-0.2802 12.34199,-0.6499 22.36453,-1.5409 32.25498,-2.8676 61.28684,-6.9239 87.91925,-12.2838 2.72717,-0.5489 5.04313,-1.0128 5.14658,-1.0309 0.18243,-0.032 0.18808,-0.024 0.18808,0.2779 0,0.2362 -0.0288,0.32 -0.11969,0.3486 -0.23616,0.074 -2.94168,0.5095 -3.81291,0.6132 -0.48901,0.058 -1.41232,0.1689 -2.05179,0.246 -2.15699,0.26 -4.08968,0.7124 -5.14477,1.2043 -1.28123,0.5973 -4.0939,1.1412 -9.18358,1.7757 -5.47263,0.6824 -9.4961,1.3128 -14.43093,2.2613 -4.6431,0.8925 -13.47327,2.1756 -26.26293,3.8164 -11.36132,1.4575 -15.49334,1.9183 -23.01425,2.5668 -12.20831,1.0526 -26.98662,1.8018 -43.2244,2.1914 -8.5606,0.2054 -22.6039,0.347 -22.6039,0.228 z"
     id="path104" />
  <path
     style="fill:#008e96;fill-opacity:1;stroke-width:0.068393"
     d="m 205.4185,2529.3041 c -6.61234,-1.1661 -10.52163,-1.8919 -14.87549,-2.7621 -21.32714,-4.2626 -40.09815,-9.3861 -55.67194,-15.1958 -8.93792,-3.3342 -16.8867,-6.9573 -23.41219,-10.6715 -0.85835,-0.4886 -1.54455,-0.9044 -1.52491,-0.9241 0.0567,-0.057 1.75163,0.5014 2.94874,0.9708 1.5943,0.6251 2.58517,1.0729 5.30046,2.3952 6.86278,3.3421 13.37623,5.9823 22.77489,9.2316 11.95478,4.1331 23.48896,7.4077 37.10322,10.534 9.46832,2.1742 16.77308,3.9467 18.84228,4.5721 0.43259,0.1307 0.92009,0.2731 1.08333,0.3164 1.09131,0.2897 3.30489,0.4586 4.69824,0.3585 2.15289,-0.1547 3.81173,0.2896 4.54681,1.2177 0.21225,0.268 0.21314,0.2722 0.056,0.2655 -0.0878,0 -0.92905,-0.1425 -1.86945,-0.3083 z"
     id="path105" />
  <path
     style="fill:#008e96;fill-opacity:1;stroke-width:0.068393"
     d="m 271.82814,2537.1644 c -0.15047,-0.013 -1.33538,-0.1012 -2.63313,-0.1962 -17.74512,-1.2989 -36.10134,-3.3516 -52.84911,-5.9099 -5.2269,-0.7984 -5.16049,-0.787 -4.70364,-0.8105 0.50742,-0.026 2.80163,0.1408 5.02689,0.3657 2.59729,0.2624 5.69471,0.66 10.90869,1.4003 14.25862,2.0246 23.25268,2.9259 40.59127,4.0677 1.44822,0.095 3.06978,0.2038 3.60345,0.241 0.53368,0.037 1.00302,0.068 1.04299,0.068 0.0432,0 0.0727,0.1662 0.0727,0.4103 v 0.4104 l -0.39326,-0.011 c -0.21629,-0.01 -0.51637,-0.022 -0.66683,-0.035 z"
     id="path106" />
  <path
     style="fill:#008e96;fill-opacity:1;stroke-width:0.068393"
     d="m 147.86575,2493.3304 c -11.16766,-0.7644 -18.12607,-1.4352 -24.48471,-2.3604 -5.66812,-0.8248 -9.5772,-1.6825 -12.39808,-2.7205 -1.69991,-0.6256 -2.8991,-0.8018 -5.0051,-0.7358 -2.51483,0.079 -4.63118,-0.2228 -8.551975,-1.219 -0.940404,-0.2389 -1.786768,-0.4497 -1.880808,-0.4683 -0.279529,-0.055 1.109691,0.021 2.35956,0.1303 3.844203,0.3353 8.148673,0.9474 15.388433,2.1884 16.90877,2.8985 25.78222,4.1936 34.3675,5.0162 1.18491,0.1136 2.2621,0.2176 2.39376,0.2313 0.62821,0.065 -1.00916,0.019 -2.18858,-0.062 z"
     id="path107" />
  <path
     style="fill:#008e96;fill-opacity:1;stroke-width:0.068393"
     d="m 104.67329,2496.6011 c -6.145767,-3.8493 -11.154076,-7.3989 -12.60161,-8.9315 -0.510907,-0.5409 -0.804676,-1.2072 -0.64384,-1.4603 0.07234,-0.1138 0.518801,-0.2933 0.729585,-0.2933 0.142299,0 0.173179,0.033 0.173179,0.1836 0,0.856 2.026536,2.6578 5.847605,5.1992 0.677091,0.4504 1.646562,1.0911 2.154381,1.4239 2.31055,1.514 4.56254,3.2412 5.81341,4.4586 0.39497,0.3844 0.68633,0.6999 0.64747,0.7012 -0.0388,0 -0.99294,-0.5754 -2.12018,-1.2814 z"
     id="path108" />
  <path
     style="fill:#008e96;fill-opacity:1;stroke-width:0.0483612"
     d="m 540.65691,2354.4521 c -3.25799,-11.1847 -13.54364,-42.6261 -15.03457,-45.958 -0.0661,-0.1478 -0.1739,-0.3328 -0.23948,-0.4111 -0.40651,-0.4852 -0.76583,-1.666 -0.90425,-2.9714 -0.37753,-3.5605 -6.3542,-30.6233 -7.79128,-35.2795 -0.36881,-1.195 -0.59848,-2.0942 -0.82141,-3.216 -0.20024,-1.0077 -0.43209,-2.4017 -0.43231,-2.5994 l -1.3e-4,-0.1089 h 3.21259 3.21259 l 0.0511,0.2539 c 0.0281,0.1397 0.10701,0.5477 0.17534,0.9068 3.21324,16.8847 8.68578,39.6507 11.36369,47.2734 0.58866,1.6757 0.94422,2.4654 1.34984,2.9981 0.28842,0.3787 0.58683,0.9537 0.67934,1.3088 0.11878,0.4561 0.0977,0.7528 -0.0774,1.0892 l -0.15112,0.2904 0.0564,0.4452 c 0.49497,3.9046 7.44684,22.6559 13.74209,37.0666 l 0.0898,0.2055 h -4.05202 -4.05202 z"
     id="path109" />
  <path
     style="fill:#008e96;fill-opacity:1;stroke-width:0.0483612"
     d="m 540.41321,2355.6853 c -0.011,-0.033 -0.36048,-1.1268 -0.77667,-2.4302 -1.06744,-3.3428 -2.27698,-7.0603 -4.63923,-14.2586 -4.12636,-12.5739 -5.43439,-16.606 -7.0545,-21.7463 -1.24444,-3.9483 -2.93464,-9.4826 -2.93336,-9.6046 2.5e-4,-0.024 0.0578,0.055 0.12792,0.1742 0.0701,0.1197 0.16694,0.2616 0.2152,0.3154 0.0483,0.054 0.16265,0.2605 0.2542,0.4594 1.20416,2.6165 9.71306,28.4404 13.91084,42.2183 0.56437,1.8524 1.45058,4.8465 1.45058,4.901 0,0.061 -0.5343,0.034 -0.55498,-0.029 z"
     id="path110" />
  <path
     style="fill:#008e96;fill-opacity:1;stroke-width:0.0483612"
     d=""
     id="path111" />
  <path
     style="fill:#008e96;fill-opacity:1;stroke-width:0.0483612"
     d="m 532.92164,2353.7508 c -4.54778,-9.1762 -9.49036,-21.3493 -10.96172,-26.9976 -0.36268,-1.3922 -0.5223,-2.4116 -0.44683,-2.8533 l 0.0413,-0.2418 0.51454,1.5234 c 3.63989,10.7764 7.75771,21.1093 11.47747,28.8005 0.23116,0.478 0.51507,1.0704 0.63089,1.3164 l 0.21059,0.4473 h -0.2388 -0.23879 z"
     id="path112" />
  <path
     style="fill:#008e96;fill-opacity:1;stroke-width:0.0483612"
     d="m 520.74076,2321.5595 c -0.32614,-0.3876 -1.04161,-2.0506 -1.71872,-3.9949 -3.21432,-9.23 -9.17893,-33.1025 -12.02273,-48.1194 -0.39727,-2.0978 -0.9479,-5.278 -0.9479,-5.4747 0,-0.052 0.0898,-0.063 0.42316,-0.052 l 0.42316,0.014 0.1346,0.9189 c 0.64789,4.4229 2.19485,12.5557 3.6612,19.2477 2.66587,12.1665 5.98657,24.4656 9.83782,36.4373 0.20057,0.6235 0.35701,1.1413 0.34765,1.1506 -0.009,0.01 -0.0716,-0.048 -0.13824,-0.127 z"
     id="path113" />
  <path
     style="fill:#008e96;fill-opacity:1;stroke-width:0.0483612"
     d="m 549.09156,2355.516 c -0.34649,-0.7761 -1.82916,-4.2598 -2.53815,-5.9636 -5.95829,-14.3186 -11.16231,-28.8509 -11.21241,-31.3108 -0.005,-0.2698 0.0127,-0.3652 0.0898,-0.47 0.0532,-0.072 0.1076,-0.1321 0.1209,-0.1329 0.0133,-9e-4 0.0962,0.2324 0.18426,0.5183 0.90909,2.9524 2.69076,8.372 3.79583,11.5462 3.04949,8.7595 6.35989,17.137 9.85135,24.9302 0.24429,0.5453 0.45533,1.0186 0.46899,1.0519 0.0185,0.045 -0.0625,0.06 -0.31661,0.06 h -0.34144 z"
     id="path114" />
  <path
     style="fill:#008e96;fill-opacity:1;stroke-width:0.0483612"
     d="m 534.64754,2315.0352 c -1.75988,-2.6363 -7.07112,-23.2074 -11.24019,-43.5346 -0.42628,-2.0785 -1.49347,-7.4899 -1.49347,-7.5731 0,-0.011 0.15079,-0.02 0.3351,-0.02 h 0.3351 l 0.0505,0.2539 c 0.0278,0.1397 0.1501,0.7871 0.27179,1.4388 3.11248,16.6671 7.05883,33.2505 11.32439,47.5874 0.62177,2.0898 0.60653,2.0363 0.58549,2.0573 -0.009,0.01 -0.0853,-0.085 -0.16873,-0.21 z"
     id="path115" />
  <path
     style="fill:#008e96;fill-opacity:1;stroke-width:0.0483612"
     d="m 524.26349,2305.1445 c -1.97169,-6.9289 -3.30408,-12.1783 -4.93286,-19.4351 -1.54056,-6.8638 -2.91808,-13.6532 -4.32772,-21.33 l -0.0866,-0.4716 h 0.22774 0.22773 l 0.0319,0.2781 c 0.16775,1.4607 0.71034,3.986 1.16459,5.4203 0.28737,0.9074 0.5568,1.917 1.08627,4.0706 2.14688,8.7323 5.91024,25.9777 6.59703,30.2305 0.16665,1.032 0.29408,2.0222 0.26409,2.0522 -0.009,0.01 -0.1222,-0.3581 -0.25223,-0.815 z"
     id="path116" />
  <path
     style="fill:#008e96;fill-opacity:1;stroke-width:0.0483612"
     d="m 506.02869,2263.8474 c -0.0244,-0.075 -0.24193,-1.6859 -0.33795,-2.5027 -0.12742,-1.0838 -0.18108,-1.9958 -0.15223,-2.5873 0.10937,-2.2428 0.0897,-3.1369 -0.1192,-5.4165 -0.67935,-7.4133 -2.34529,-17.6814 -3.60478,-22.2182 -1.07247,-3.8631 -2.01894,-5.4264 -2.78904,-4.6066 -0.0669,0.071 -0.16478,0.2113 -0.21751,0.3114 -0.0771,0.1462 -0.10049,0.1643 -0.11937,0.092 -0.0263,-0.1004 -0.31204,-0.152 -0.84651,-0.1527 -0.20942,-3e-4 -0.30221,-0.019 -0.3021,-0.061 2.8e-4,-0.1121 0.33228,-1.3193 0.46277,-1.6828 0.2387,-0.6649 0.53245,-1.1627 0.80788,-1.369 0.2677,-0.2005 0.34548,-0.2013 0.56166,-0.01 0.99061,0.8949 2.99968,5.975 4.18417,10.58 0.68862,2.6771 1.37453,7.8413 1.74529,13.1401 0.51882,7.415 0.85371,11.051 1.38082,14.992 0.10495,0.7847 0.19085,1.4538 0.19089,1.4871 5e-5,0.044 -0.11465,0.06 -0.41252,0.06 -0.28732,0 -0.41856,-0.018 -0.43227,-0.06 z"
     id="path117" />
  <path
     style="fill:#008e96;fill-opacity:1;stroke-width:0.0483612"
     d="m 521.88996,2263.799 c -0.0598,-0.2528 -0.77124,-4.2279 -1.08402,-6.0572 -2.82595,-16.5282 -5.16847,-34.9685 -6.95898,-54.7811 l -0.0863,-0.9552 h 0.22971 c 0.22184,0 0.23057,0.01 0.25455,0.1572 0.0136,0.087 0.10304,1.0168 0.19865,2.0674 1.71114,18.8051 4.48547,39.4086 7.71668,57.3081 0.21368,1.1836 0.40035,2.201 0.41484,2.2608 0.0254,0.1051 0.0146,0.1088 -0.3165,0.1088 -0.31567,0 -0.34489,-0.01 -0.36861,-0.1088 z"
     id="path118" />
  <path
     style="fill:#008e96;fill-opacity:1;stroke-width:0.0483612"
     d="m 514.90151,2263.865 c 0,-0.023 -0.17533,-1.0301 -0.38961,-2.2367 -3.06907,-17.2817 -5.6861,-37.0562 -7.49064,-56.6002 -0.13262,-1.4363 -0.25234,-2.704 -0.26604,-2.817 l -0.0249,-0.2056 h 0.40347 0.40348 l 0.031,0.3507 c 0.0567,0.6421 0.31608,4.3473 0.39179,5.5978 0.13208,2.1814 0.16768,3.2396 0.13821,4.1078 -0.0488,1.4376 0.11366,2.7785 0.89674,7.4021 1.26187,7.4504 5.1033,34.0919 6.16257,42.7392 l 0.20882,1.7047 h -0.23244 c -0.12784,0 -0.23244,-0.019 -0.23244,-0.043 z"
     id="path119" />
  <path
     style="fill:#008e96;fill-opacity:1;stroke-width:0.0483612"
     d="m 513.70117,2201.3406 c -1.49787,-17.218 -2.49516,-34.1492 -3.0302,-51.4442 -0.1172,-3.7885 -0.31474,-12.1294 -0.31526,-13.3115 l -1.5e-4,-0.3506 h 0.30882 0.30883 l 0.0296,1.3662 c 0.0163,0.7514 0.0522,2.7046 0.0797,4.3404 0.32419,19.2517 1.37184,39.6879 2.9734,58.0012 0.0927,1.0595 0.16847,1.9572 0.16847,1.9949 0,0.05 -0.0642,0.069 -0.23272,0.069 h -0.23271 z"
     id="path120" />
  <path
     style="fill:#008e96;fill-opacity:1;stroke-width:0.0483612"
     d="m 506.72806,2201.8967 c -2.3e-4,-0.06 -0.043,-0.5658 -0.0951,-1.1244 -0.69772,-7.4839 -1.6077,-20.2284 -2.17545,-30.4675 -0.69061,-12.4549 -1.01276,-21.3283 -1.14517,-31.5436 l -0.0328,-2.5269 h 0.22005 0.22005 l 0.0282,0.8343 c 0.0155,0.4588 0.0511,1.8897 0.079,3.1797 0.35666,16.4596 1.30764,33.6039 2.85559,51.4805 0.41096,4.746 0.5684,6.611 0.69607,8.2456 0.0675,0.8644 0.13459,1.6751 0.14905,1.8014 l 0.0263,0.2297 h -0.41274 c -0.39566,0 -0.41275,0 -0.41314,-0.1088 z"
     id="path121" />
</svg>
