<?xml version="1.0" encoding="UTF-8" standalone="no"?>
<svg
   width="1000"
   height="3612"
   viewBox="0 0 1000 3612"
   fill="none"
   version="1.1"
   id="svg1"
   sodipodi:docname="Sting.svg"
   inkscape:version="1.4 (86a8ad7, 2024-10-11)"
   xmlns:inkscape="http://www.inkscape.org/namespaces/inkscape"
   xmlns:sodipodi="http://sodipodi.sourceforge.net/DTD/sodipodi-0.dtd"
   xmlns:xlink="http://www.w3.org/1999/xlink"
   xmlns="http://www.w3.org/2000/svg"
   xmlns:svg="http://www.w3.org/2000/svg">
  <sodipodi:namedview
     id="namedview1"
     pagecolor="#ffffff"
     bordercolor="#000000"
     borderopacity="0.25"
     inkscape:showpageshadow="2"
     inkscape:pageopacity="0.0"
     inkscape:pagecheckerboard="0"
     inkscape:deskcolor="#d1d1d1"
     inkscape:zoom="0.16154485"
     inkscape:cx="4144.3599"
     inkscape:cy="677.83033"
     inkscape:window-width="2560"
     inkscape:window-height="1369"
     inkscape:window-x="2552"
     inkscape:window-y="-8"
     inkscape:window-maximized="1"
     inkscape:current-layer="svg1" />
  <g
     clip-path="url(#clip0_601_14)"
     id="g1">
    <path
       fill-rule="evenodd"
       clip-rule="evenodd"
       d="M60.2984 2485.71C113.816 2530.97 213.221 2559.68 311.768 2558.32L379.416 2557.39L380.545 2712.53C381.854 2892.73 390.73 3086.09 403.073 3203.08C417.439 3339.34 413.213 3375.42 377.095 3424.53C354.919 3454.69 354.82 3457.2 374.368 3495.78C439.272 3623.96 557.846 3617.78 626.316 3482.65L641.612 3452.47L623.905 3434.77C567.706 3378.56 561.187 3335.98 580.79 3152.94C595.806 3012.77 605.251 2839.16 606.74 2675.76L607.797 2560.33L678.894 2557.26C761.748 2553.69 806.661 2541.55 882.354 2502.28C972.973 2455.28 986.337 2431.77 910.436 2452.88C661.043 2522.23 587.472 2464.36 596.402 2205.89C602.966 2015.84 619.075 611.968 615.58 534.677C607.725 360.869 568.329 194.286 505.774 70.3662C486.613 32.4156 482.992 29.9597 469.231 45.5896C434.64 84.8675 393.682 215.974 374.125 349.998C353.131 493.936 351.217 555.083 358.269 857.695C395.524 2458.03 395.416 2347.84 359.84 2413.94C322.738 2482.88 196.164 2502.19 51.4676 2460.97C35.2418 2456.34 39.4134 2468.05 60.2984 2485.71ZM123.531 2489.43C198.331 2503.37 340.373 2489.47 414.757 2460.93C422.513 2457.96 464.708 2491.38 464.708 2500.49C464.708 2553.26 194.178 2551.96 107.044 2498.75C81.9509 2483.43 84.2896 2482.11 123.531 2489.43ZM401.375 2206.22C400.518 2120.3 397.159 1930.89 393.899 1785.3C366.441 556.817 366.314 545.295 379.488 432.69C395.073 299.452 431.48 146.132 460.834 90.1045C472.608 67.6393 476.437 231.966 476.455 760.15L476.473 1205.59L461.385 1199.86C402.603 1177.51 397.276 1243.71 453.24 1300.88L482.351 1330.6V1544.23V1757.85L462.098 1818.63C408.879 1978.34 391.597 2197.59 420.455 2347.06L428.969 2391.18L398.658 2419.11C358.693 2455.96 357.195 2454.67 381.953 2404.75L402.938 2362.44L401.375 2206.22ZM385.511 3435.07C393.719 3426.5 405.357 3406.53 411.371 3390.68L422.315 3361.87L428.807 3386.82C432.373 3400.54 438.215 3423.01 441.791 3436.77C449.863 3467.82 463.76 3495.57 474.324 3501.76C478.974 3504.49 482.351 3516.31 482.351 3529.86V3553.25L463.263 3543.37C441.367 3532.04 370.585 3465.89 370.585 3456.74C370.585 3453.39 377.303 3443.64 385.511 3435.07ZM417.863 2544.05C452.933 2532.4 461.457 2536.7 467.534 2569.12C474.116 2604.18 533.34 2676.47 555.489 2676.47C581.097 2676.47 548.392 2621.32 506.532 2593.92C498.857 2588.9 493.71 2580.6 494.911 2575.17C496.672 2567.21 505.882 2570.79 545.584 2594.91L594.117 2624.38L594.117 2673.99V2723.6L498.532 2675.85C381.538 2617.41 388.238 2622.92 388.238 2585.05V2553.89L417.863 2544.05ZM422.062 3529.56C473.62 3575.11 506.099 3574.24 576.474 3525.44L591.174 3515.24L576.573 3531.52C527.85 3585.81 464.807 3589.07 416.987 3539.79C384.969 3506.8 388.418 3499.85 422.062 3529.56ZM400.292 2888.24C409.818 2888.24 438.243 2904.08 446.45 2913.97C450.495 2918.84 457.575 2921.39 462.198 2919.61C466.812 2917.84 470.586 2919.47 470.586 2923.25C470.586 2927.02 467.94 2928.47 464.708 2926.47C456.04 2921.11 457.43 2927.14 470.956 2953.66C477.629 2966.74 491.164 2981.86 501.042 2987.25C510.911 2992.65 527.95 3002.94 538.902 3010.12L558.821 3023.17V3009.1C558.821 2989.84 533.25 2961.01 509.105 2953.03C489.304 2946.5 472.121 2931.8 477.728 2926.2C479.335 2924.58 503.534 2933.17 531.507 2945.27L582.352 2967.27V3004.22C582.352 3049.85 587.291 3049.69 484.852 3007.18C417.412 2979.19 402.612 2970.88 401.059 2960.12C399.118 2946.62 413.43 2941.36 420.59 2952.94C422.586 2956.18 426.775 2958.82 429.89 2958.82C433.015 2958.82 431.227 2952.2 425.926 2944.12C417.032 2930.53 400.662 2922.09 408.825 2935.29C410.82 2938.53 409.375 2941.18 405.601 2941.18C401.827 2941.18 400.102 2937.63 401.764 2933.29C403.434 2928.95 402.432 2921.67 399.542 2917.11C392.328 2905.72 392.779 2888.24 400.292 2888.24ZM401.764 2847.05C405.971 2847.05 412.545 2850.19 416.373 2854.02C432.328 2869.97 428.689 2852.53 412.129 2833.66C390.956 2809.56 385.511 2767.88 404.409 2774.65C427.263 2782.83 444.59 2800.47 464.681 2836.03C477.204 2858.18 494.089 2878.68 506.135 2886.37C517.322 2893.5 533.395 2904.69 541.864 2911.24C560.727 2925.81 565.241 2922.37 558.424 2898.61C551.616 2874.88 534.225 2856.9 505.557 2843.98C490.767 2837.3 482.351 2829.59 482.351 2822.71C482.351 2812.75 484.979 2813.1 516.175 2827.17C534.776 2835.56 558.605 2846.15 569.115 2850.7L588.239 2858.98V2903.02C588.239 2927.25 586.108 2947.06 583.499 2947.06C580.898 2947.06 543.173 2932.27 499.679 2914.18C456.175 2896.09 414.631 2878.95 407.353 2876.08C393.195 2870.51 388.68 2847.05 401.764 2847.05ZM406.224 2722.89C412.671 2730.63 419.398 2735.51 421.168 2733.74C425.051 2729.85 408.418 2696.38 400.039 2691.2C396.779 2689.18 394.116 2675.61 394.116 2661.04V2634.54L418.351 2648.16C449.728 2665.77 468.672 2688.7 476.789 2718.85C485.051 2749.52 513.042 2776.35 560.293 2798.87C562.722 2800.03 564.708 2793.88 564.708 2785.19C564.708 2765.59 527.923 2726.47 514.37 2731.67C509.367 2733.59 506.803 2732.68 508.681 2729.64C510.559 2726.6 506.722 2721.25 500.166 2717.74C487.859 2711.14 483.588 2694.11 494.252 2694.11C497.557 2694.11 521.376 2704.73 547.191 2717.71L594.117 2741.31V2791.24C594.117 2818.7 592.05 2841.18 589.53 2841.18C587.002 2841.18 546.632 2824.4 499.823 2803.9C453.006 2783.41 410.071 2764.96 404.409 2762.91C396.743 2760.14 394.17 2752.77 394.314 2734.01L394.513 2708.82L406.224 2722.89ZM430.315 2415.26C439.669 2421.05 435.308 2429.1 417.935 2438.09C392.346 2451.32 389.935 2449.13 408.626 2429.63C417.809 2420.03 427.57 2413.57 430.315 2415.26ZM404.138 3029.58C398.558 3023.65 398.928 3022.63 405.881 3024.77C410.739 3026.26 414.739 3031.79 414.775 3037.04C414.856 3048.16 427.57 3062.62 432.735 3057.47C437.674 3052.52 423.777 3027.98 410.829 3018.79C397.917 3009.62 396.481 2994.12 408.545 2994.12C428.527 2994.12 448.103 3009.73 464.455 3038.7C474.071 3055.73 491.959 3077.01 504.202 3085.98C516.446 3094.95 528.717 3104.15 531.453 3106.42C534.198 3108.7 511.697 3101.47 481.457 3090.36C396.265 3059.07 398.721 3060.44 405.385 3047.99C409.439 3040.41 409.059 3034.81 404.138 3029.58ZM412.87 3113.12C416.707 3114.4 420.897 3118.59 422.179 3122.43C423.615 3126.73 420.924 3128.04 415.199 3125.85C404.509 3121.74 402.278 3109.59 412.87 3113.12ZM415.001 3082.35C433.574 3082.35 457.358 3099.97 464.256 3118.84C478.767 3158.52 486.351 3168.04 516.338 3184.2C541.882 3197.96 547.056 3199.13 547.056 3191.17C547.056 3173.77 535.218 3159.03 511.57 3146.96C461.538 3121.43 480.97 3104.9 534.361 3127.56L571.67 3143.4L567.616 3176.11C565.395 3194.1 563.092 3209.33 562.505 3209.97C558.099 3214.69 411.768 3148.94 411.768 3142.23C411.768 3136.82 415.868 3134.99 423.534 3137C439.245 3141.11 438.36 3133.55 420.771 3113.57C404.093 3094.61 401.827 3082.35 415.001 3082.35ZM416.175 3168.77C428.003 3162.06 457.159 3188.54 473.529 3220.86C490.794 3254.94 535.534 3295.83 545.097 3286.28C552.961 3278.42 529.205 3240.66 508.825 3228.63C468.428 3204.8 480.645 3194.69 525.738 3214.63C562.289 3230.8 562.93 3232.54 553.512 3289.76C546.243 3333.96 535.471 3333.67 484.961 3287.93C467.615 3272.23 445.376 3255.21 435.534 3250.13C425.701 3245.04 417.646 3236.97 417.646 3232.2C417.646 3220.94 423.01 3221.23 436.301 3233.26C455.236 3250.4 449.674 3226.59 429.583 3204.5C412.202 3185.4 407.759 3173.56 416.175 3168.77ZM423.516 2020.59C427.299 2003.75 427.768 2011.27 425.15 2047.06C417.186 2156.12 423.805 2308.06 439.191 2369.35C441.484 2378.5 440.662 2382.73 437.033 2380.49C432.003 2377.38 424.148 2331.62 415.136 2252.94C411.407 2220.38 417.674 2046.58 423.516 2020.59ZM429.665 3264.71C440.003 3264.71 494.126 3318.64 493.927 3328.75C493.828 3333.97 489.855 3343.37 485.105 3349.65C471.543 3367.59 474.893 3447.06 489.223 3447.06C497.873 3447.06 511.191 3409.89 515.417 3373.97C518.64 3346.53 521.169 3341.18 530.893 3341.18C550.298 3341.18 526.072 3452.41 499.941 3483.24L488.238 3497.06L476.428 3483.12C452.5 3454.87 411.786 3264.71 429.665 3264.71ZM432.048 1206.14C441.936 1197.93 470.776 1208.94 475.245 1222.63C477.331 1229.01 475.335 1229.22 465.015 1223.69C450.694 1216.03 435.29 1224.04 435.29 1239.14C435.29 1251.2 452.545 1290.6 456.211 1286.93C457.927 1285.21 454.73 1274.17 449.105 1262.38C439.769 1242.8 439.696 1240.14 448.229 1231.6C463.462 1216.37 482.351 1239.58 482.351 1273.53C482.351 1298.65 477.981 1305.44 468.139 1295.59C465.71 1293.17 460.744 1291.18 457.096 1291.18C434.486 1291.18 413.881 1221.21 432.048 1206.14ZM443.543 1967.64C448.933 1938.53 459.209 1893.53 466.378 1867.64L479.408 1820.59L482.387 2067.65L485.367 2314.71L469.927 2337.98C461.439 2350.77 451.823 2362.14 448.572 2363.22C429.367 2369.62 425.502 2065.17 443.543 1967.64ZM464.473 2431.71L492.97 2413.42L520.347 2430.46C599.743 2479.87 760.881 2505.17 857.352 2483.37C898.797 2474 885.614 2485.7 829.342 2508.22C687.192 2565.11 569.323 2555.44 463.236 2478.18C429.276 2453.44 429.258 2454.31 464.473 2431.71ZM464.31 2802.7C467.769 2804.83 470.586 2811.31 470.586 2817.09C470.586 2829.11 482.261 2839.72 511.977 2854.71C523.417 2860.48 536.365 2871.05 540.753 2878.19C548.365 2890.59 548.221 2890.75 537.602 2881.65C531.48 2876.41 523.408 2873.24 519.661 2874.6C515.914 2875.98 511.137 2874.33 509.06 2870.96C506.731 2867.21 509.367 2866.13 515.868 2868.19C525.34 2871.19 525.25 2870.56 515.056 2862.24C499.543 2849.61 483.814 2849.36 494.234 2861.91C498.324 2866.84 500.229 2872.32 498.469 2874.08C496.708 2875.85 485.882 2860.64 474.414 2840.29C454.08 2804.21 451.552 2794.81 464.31 2802.7ZM469.114 2364.3C485.078 2341.73 494.117 2335.52 494.117 2347.12C494.117 2350.39 514.342 2374.24 539.056 2400.11C587.634 2450.95 577.693 2455.1 513.331 2410.82C489.819 2394.65 487.299 2394.1 475.128 2402.64C447.579 2421.93 444.094 2399.68 469.114 2364.3ZM470.586 3017.65C473.827 3017.65 476.473 3022.07 476.473 3027.48C476.473 3032.89 480.87 3042.16 486.243 3048.1C491.606 3054.04 494.396 3060.5 492.437 3062.46C490.478 3064.43 483.444 3057.13 476.807 3046.25C463.344 3024.17 461.927 3017.65 470.586 3017.65ZM476.419 2517.68C485.331 2512.9 492.708 2513.8 507.299 2521.42C517.846 2526.93 541.033 2535.96 558.821 2541.49C590.84 2551.44 591.192 2551.81 593.025 2576.55C595.237 2606.52 597.783 2607.04 520.546 2561.59C458.766 2525.23 460.003 2526.46 476.419 2517.68ZM476.473 3194.12C479.706 3194.12 482.351 3198.54 482.351 3203.95C482.351 3209.36 486.496 3218.35 491.561 3223.95C497.782 3230.83 498.703 3235.4 494.387 3238.06C490.712 3240.34 484.428 3233.75 479.534 3222.47C469.295 3198.91 468.78 3194.12 476.473 3194.12ZM479.408 2558.83C484.265 2562.85 488.238 2573.17 488.238 2581.76C488.238 2590.36 492.6 2603.93 497.927 2611.93C507.074 2625.64 507.047 2625.93 497.53 2617.04C488.545 2608.64 471.525 2570.11 470.848 2556.63C470.703 2553.81 474.559 2554.8 479.408 2558.83ZM489.71 3136.97C496.988 3144.14 500.843 3150.92 498.288 3152.04C495.724 3153.17 496.717 3158.46 500.491 3163.81C504.266 3169.15 500.401 3166.1 491.913 3157.03C472.482 3136.26 470.487 3118.05 489.71 3136.97ZM488.238 3394.12C490.496 3408.68 492.744 3416.84 493.232 3412.25C493.719 3407.67 495.507 3405.31 497.196 3407C498.893 3408.69 498.523 3414.65 496.383 3420.24C490.207 3436.31 482.387 3418.9 483.326 3391.18L484.121 3367.65L488.238 3394.12ZM532.501 3043.17L576.718 3061.77L575.128 3090.71C573.106 3127.28 563.499 3130.89 551.228 3099.65C544.943 3083.64 539.327 3076.92 534.659 3079.81C530.216 3082.55 529.133 3081.68 531.733 3077.47C534.198 3073.49 528.004 3066.11 516.464 3059.26C465.015 3028.76 474.83 3018.92 532.501 3043.17ZM500.627 3341.18C503.516 3341.18 505.485 3352.43 504.997 3366.17C504.383 3383.73 503.39 3386.35 501.665 3375C500.32 3366.1 496.834 3358.82 493.909 3358.82C490.992 3358.82 490.126 3354.85 491.995 3350C493.855 3345.14 497.737 3341.18 500.627 3341.18ZM494.469 2723.53C497.891 2723.53 498.983 2726.3 496.898 2729.67C491.67 2738.14 504.979 2752.91 514.541 2749.25C518.83 2747.6 524.067 2749.05 526.18 2752.47C528.6 2756.38 526.279 2757.25 519.932 2754.82C512.347 2751.9 511.038 2753.01 514.686 2759.3C517.358 2763.88 512.5 2761.23 503.886 2753.38C487.986 2738.9 483.137 2723.53 494.469 2723.53ZM509.458 116.136C582.948 271.144 597.305 378.098 595.725 758.823C594.379 1084.5 587.481 1476.25 583.661 1444.12C576.067 1380.23 544.185 1291.24 512.266 1244.84L494.315 1218.76L492.645 1066.73C491.724 983.123 490.586 725.441 490.117 494.116L489.259 73.5265L509.458 116.136ZM508.654 3494.35C525.205 3471.92 538.18 3435.96 549.16 3382.12L556.736 3344.97L574.803 3382.78C584.736 3403.57 600.095 3428.11 608.926 3437.29L624.989 3454L596.32 3483.6C524.41 3557.85 455.579 3566.29 508.654 3494.35ZM499.95 2223.53C503.119 2228.39 505.746 2239.91 505.792 2249.15C505.927 2273.89 522.749 2334.58 536.112 2358.54C548.203 2380.22 547.697 2377.6 529.277 2323.05C489.376 2204.87 494.956 1975.65 541.376 1826.44C596.618 1648.89 581.855 1388.37 509.774 1268.82C500.41 1253.29 494.18 1239.15 495.94 1237.39C500.437 1232.9 532.952 1290.81 547.381 1328.99C588.655 1438.22 594.144 1659.06 558.812 1788.24C488.338 2045.83 496.889 2305.1 579.092 2402.94C591.968 2418.28 589.35 2410.89 566.045 2366.16C505.367 2249.73 501.466 2038.16 556.103 1826.83C567.309 1783.52 576.474 1742.7 576.474 1736.15C576.474 1729.59 578.677 1722.86 581.377 1721.19C584.086 1719.52 585.621 1740.06 584.799 1766.83C576.808 2027.91 581.097 2363.03 592.817 2393.01C600.05 2411.52 601.982 2421.73 597.567 2418.07C593.458 2414.65 588.682 2413.28 586.957 2415.01C585.232 2416.73 576.447 2409.43 567.435 2398.78C558.424 2388.13 548.988 2380.02 546.469 2380.77C538.126 2383.22 500.681 2334.21 498.857 2318.44C493.855 2275.29 494.55 2215.24 499.95 2223.53ZM507.923 1750C536.004 1689.69 557.232 1594.13 559.562 1517.65C560.176 1497.45 561.684 1502.32 565.946 1538.23C569.621 1569.29 569.377 1610.31 565.223 1658.82C559.291 1728.17 553.205 1758.54 523.986 1864.71C517.304 1888.97 508.157 1932.65 503.652 1961.77L495.453 2014.71L494.848 1897.06C494.261 1785.56 494.947 1777.87 507.923 1750ZM500.04 1267.68C554.415 1301.27 553.684 1659.28 499.119 1720.29C496.365 1723.37 494.117 1622.12 494.117 1494.95C494.117 1341.4 496.103 1265.24 500.04 1267.68ZM515.995 2967.97C521.557 2965.83 524.23 2965.96 521.927 2968.27C519.634 2970.57 521.033 2976.43 525.051 2981.3C531.417 2989.02 530.659 2989.26 519.119 2983.11C503.218 2974.64 502.884 2973 515.995 2967.97ZM551.101 1513.17C552.573 1518.79 552.627 1529.37 551.219 1536.7C549.81 1544.01 548.609 1539.42 548.546 1526.47C548.474 1513.53 549.629 1507.54 551.101 1513.17ZM551.11 1419.12C552.591 1424.78 552.591 1434.04 551.11 1439.7C549.638 1445.37 548.419 1440.73 548.419 1429.41C548.419 1418.09 549.638 1413.46 551.11 1419.12Z"
       fill="black"
       id="path1" />
  </g>
  <defs
     id="defs1">
    <linearGradient
       id="linearGradient69"
       inkscape:collect="always">
      <stop
         style="stop-color:#000000;stop-opacity:1;"
         offset="0"
         id="stop69" />
      <stop
         style="stop-color:#000000;stop-opacity:0;"
         offset="1"
         id="stop70" />
    </linearGradient>
    <clipPath
       id="clip0_601_14">
      <rect
         width="3611.76"
         height="1000"
         fill="white"
         transform="matrix(0 -1 1 0 0 3611.76)"
         id="rect1" />
    </clipPath>
    <linearGradient
       inkscape:collect="always"
       xlink:href="#linearGradient69"
       id="linearGradient70"
       x1="398.31877"
       y1="3543.1543"
       x2="578.33648"
       y2="3543.1543"
       gradientUnits="userSpaceOnUse" />
  </defs>
  <path
     style="fill:#999999;stroke-width:3.09512"
     d="m 399.89438,2028.8483 c -1.18671,-79.1576 -6.30842,-332.6475 -11.38158,-563.311 -19.92921,-906.13024 -20.07404,-939.66894 -4.551,-1053.88691 11.43996,-84.17484 28.64728,-169.45249 46.83993,-232.13368 12.46736,-42.95519 28.17711,-85.115682 31.71562,-85.115682 8.42242,0 12.39203,227.442372 12.49786,716.076652 0.0783,361.55502 -0.31402,392.48392 -4.95613,390.70262 -40.19515,-15.4244 -60.16064,-3.8311 -55.86499,32.4389 2.62032,22.1245 15.59178,44.0411 43.10925,72.8375 l 23.98715,25.102 v 211.3025 211.3025 l -15.51132,47.9066 c -19.96496,61.6616 -32.53667,111.7414 -41.84623,166.696 -8.8904,52.4802 -16.85619,125.4689 -17.1036,156.7164 -0.0981,12.3902 -1.21313,28.0988 -2.47783,34.908 -1.26471,6.8093 -3.27042,-52.3848 -4.45713,-131.5424 z"
     id="path2" />
  <path
     style="fill:#999999;stroke-width:3.09512"
     d="m 577.76693,1403.2878 c -10.34898,-51.3839 -42.68504,-129.2774 -69.71455,-167.9336 l -12.70333,-18.1676 -2.12162,-331.58047 c -1.16689,-182.36923 -2.1851,-437.43338 -2.26269,-566.80921 -0.16,-266.802505 -3.24909,-246.047446 26.71846,-179.51671 44.74869,99.34623 63.13743,184.85345 71.88693,334.27249 6.26075,106.91758 1.43379,904.0532 -5.68613,939.0204 -2.03863,10.0121 -2.31493,9.5927 -6.11707,-9.2853 z"
     id="path3" />
  <path
     style="fill:#999999;stroke-width:3.09512"
     d="m 498.8252,1697.3493 c -2.6933,-22.4313 -2.17997,-396.7728 0.5683,-414.4239 l 2.1686,-13.928 5.4332,8.1109 c 37.304,55.6888 42.41027,296.1021 8.6048,405.1311 -3.43833,11.0893 -8.16807,22.7834 -10.51054,25.9869 -3.85966,5.2784 -4.44707,4.2584 -6.26436,-10.877 z"
     id="path4" />
  <path
     style="fill:#999999;stroke-width:3.09512"
     d="m 497.73084,1881.8303 0.6074,-105.2339 11.22926,-26.3085 c 24.16015,-56.6036 43.63412,-133.6567 47.94117,-189.6899 1.14895,-14.9475 3.09524,-27.7991 4.32509,-28.5592 4.39822,-2.7182 6.27303,59.6735 3.1479,104.7589 -4.74621,68.4725 -10.87382,103.8977 -32.8827,190.1027 -10.97521,42.9881 -23.33457,96.611 -27.46523,119.162 l -7.51029,41.0019 z"
     id="path5" />
  <path
     style="fill:#999999;stroke-width:3.09512"
     d="m 571.87564,2373.1799 c -39.25322,-82.5128 -51.44073,-143.9895 -51.38852,-259.2159 0.043,-94.8837 11.23541,-182.6699 35.51541,-278.5604 5.17243,-20.4278 12.70421,-52.9837 16.7373,-72.3466 4.03308,-19.3628 7.87186,-35.7441 8.53062,-36.4029 0.65876,-0.6587 0.54465,108.5013 -0.25357,242.578 -1.69526,284.753 1.54366,391.6793 13.17359,434.899 5.36979,19.9555 -4.82301,5.8178 -22.31483,-30.9512 z"
     id="path6" />
  <path
     style="fill:#999999;stroke-width:3.09512"
     d="m 446.10264,2357.5875 c -7.41096,-11.9912 -9.68677,-57.1983 -9.61564,-191.0065 0.0632,-118.8354 0.95963,-148.2463 5.42197,-177.8845 5.32328,-35.3565 33.53392,-155.689 35.17971,-150.0591 0.47535,1.626 2.25022,108.8065 3.94416,238.1788 l 3.0799,235.2225 -12.36832,18.9836 c -13.8916,21.3216 -23.03076,30.7899 -25.64178,26.5652 z"
     id="path7" />
  <path
     style="fill:#999999;stroke-width:0.547144"
     d="m 437.56404,2380.5313 c -1.77221,-0.7125 -4.10654,-7.6068 -6.66472,-19.6839 -3.80526,-17.9646 -7.91724,-45.914 -14.3569,-97.5849 l -1.80702,-14.4993 0.0241,-40.7623 c 0.023,-38.9439 0.39458,-55.3148 2.18568,-96.2974 2.46802,-56.4713 5.03807,-86.2913 8.29943,-96.2974 l 0.98084,-3.0093 0.16517,4.3772 c 0.0908,2.4074 -0.22438,10.4094 -0.7005,17.7822 -3.29961,51.0949 -3.56204,57.8007 -3.93985,100.6745 -0.8351,94.7651 5.43506,182.7517 16.49316,231.4421 2.02782,8.9288 2.36259,12.4842 1.27762,13.5691 -0.70133,0.7014 -0.87014,0.7263 -1.95699,0.2894 z"
     id="path8" />
  <path
     style="fill:#999999;stroke-width:0.547144"
     d="m 365.94868,2443.507 c -0.46248,-1.2052 1.94688,-8.2267 5.65608,-16.4834 1.73058,-3.8524 9.53121,-19.8074 17.33472,-35.4558 l 14.18821,-28.4515 -0.64347,-71.4023 c -1.38745,-153.9594 -4.58345,-344.2043 -9.06287,-539.4755 -0.42443,-18.5023 -0.66515,-33.7471 -0.53492,-33.8774 0.13022,-0.1302 0.34482,-0.1287 0.47688,0 0.37241,0.3724 3.73841,165.8037 5.76552,283.363 1.56114,90.5357 2.62949,132.1228 3.85832,150.1911 0.28653,4.213 0.5234,7.9678 0.52638,8.344 0.003,0.3761 0.22998,0.6839 0.50446,0.6839 1.16315,0 2.07919,-10.6607 3.05593,-35.5644 0.90976,-23.1958 1.72067,-34.6266 4.1144,-57.9973 2.34894,-22.9334 3.48932,-32.6729 3.70249,-31.6212 0.10411,0.5136 -0.44252,6.9152 -1.21475,14.2258 -10.87221,102.9258 -9.63142,199.9207 3.58918,280.5718 0.91259,5.5672 3.85749,21.4481 6.54422,35.2909 l 4.88495,25.1686 -1.82882,1.6414 c -1.00586,0.9028 -9.68334,8.8856 -19.2833,17.7396 -25.26755,23.3042 -33.96815,30.802 -38.36949,33.0652 -2.18403,1.123 -2.84546,1.1311 -3.26412,0.04 z"
     id="path9" />
  <path
     style="fill:#999999;stroke-width:0.547144"
     d="m 436.45426,2114.1657 c 0.0112,-0.9028 0.13378,-1.2059 0.2725,-0.6736 0.13873,0.5324 0.1296,1.271 -0.0203,1.6415 -0.14988,0.3704 -0.26338,-0.065 -0.25223,-0.9679 z"
     id="path10" />
  <path
     style="fill:#999999;stroke-width:0.547144"
     d="m 445.43098,2360.5174 c -12.32782,-21.1019 -17.44825,-197.5553 -9.33193,-321.5841 3.11829,-47.6518 6.61837,-70.6131 18.9041,-124.0153 5.68693,-24.7193 7.8701,-33.2857 16.16577,-63.4321 l 7.58236,-27.5542 0.40322,9.6988 c 0.22177,5.3343 1.65016,115.7459 3.1742,245.3591 l 2.77099,235.6604 -9.83062,14.691 c -5.40684,8.0801 -11.93563,17.3989 -14.50842,20.7086 -5.46452,7.0295 -11.25499,12.7932 -12.8526,12.7932 -0.73812,0 -1.58064,-0.791 -2.47707,-2.3254 z m 5.0626,-2.582 c 1.81837,-0.9763 7.69159,-7.3628 11.84009,-12.8748 2.49137,-3.3103 8.47599,-12.0516 13.29915,-19.4252 l 8.7694,-13.4065 -1.29734,-98.758 c -3.21268,-244.5616 -4.74002,-346.2884 -5.50193,-366.4485 -0.18481,-4.8901 -0.54446,-8.891 -0.79923,-8.891 -2.07744,0 -18.09357,65.3163 -29.51617,120.3717 -6.60546,31.8374 -8.47218,47.1577 -9.90017,81.2509 -0.87764,20.9536 -1.28224,185.2579 -0.545,221.3199 1.20807,59.0932 3.23246,83.5737 7.78643,94.1597 1.58494,3.6843 2.90355,4.2917 5.86477,2.7018 z"
     id="path11" />
  <path
     style="fill:#999999;stroke-width:0.547144"
     d=""
     id="path12" />
  <path
     style="fill:#999999;stroke-width:0.547144"
     d="m 595.56659,2416.3907 c -3.36468,-2.0902 -3.73885,-2.1956 -6.93973,-1.9552 -2.72646,0.2048 -3.73559,0.041 -5.19787,-0.8447 -3.36201,-2.0357 -8.20204,-6.6109 -14.58849,-13.79 -11.64406,-13.0894 -19.08197,-19.4494 -22.74569,-19.4494 -3.47609,0 -9.39187,-4.8426 -17.64534,-14.4443 -14.35824,-16.7036 -27.00622,-36.8851 -28.88614,-46.0916 -1.95794,-9.5884 -3.5769,-37.5542 -3.57482,-61.7509 0.002,-23.0244 0.96809,-33.8981 3.073,-34.587 0.80052,-0.2619 3.20841,5.5246 4.60221,11.0598 0.61022,2.4234 1.34566,8.0404 1.64766,12.5843 0.82692,12.4419 1.5003,17.5994 3.85757,29.5458 6.37268,32.2963 17.76433,66.2803 28.67989,85.559 4.04974,7.1526 5.97516,9.8552 6.58806,9.2476 0.73098,-0.7247 -1.44034,-8.1163 -10.16994,-34.6207 -9.20926,-27.9607 -11.79211,-36.8437 -15.27267,-52.5259 -8.24748,-37.1602 -13.35572,-80.5842 -15.34198,-130.4188 -0.71197,-17.8629 -0.70804,-62.4098 0.007,-81.0524 3.51172,-91.5394 16.10875,-173.4609 37.73414,-245.3943 10.16552,-33.8139 16.85728,-63.0193 22.47183,-98.0756 l 1.7745,-11.0797 h 3.4733 c 1.91032,0 3.4733,0.1239 3.4733,0.2753 0,0.1514 -0.85847,5.5645 -1.90771,12.029 -3.71821,22.9084 -7.33105,39.5993 -13.68038,63.2017 -40.93774,152.1777 -55.55846,311.1317 -39.93429,434.159 8.477,66.7492 24.46658,118.7498 48.03272,156.2097 6.62894,10.5371 19.22944,26.2629 21.04353,26.2629 2.28021,0 0.019,-5.3853 -13.20988,-31.4606 -5.80157,-11.4354 -11.73292,-23.3769 -13.18077,-26.5367 -49.07333,-107.0961 -55.30993,-285.0601 -16.45149,-469.4498 4.04073,-19.1739 7.22075,-32.6412 15.76197,-66.7516 4.03136,-16.0997 8.66241,-35.1426 10.29124,-42.3174 1.62882,-7.1748 3.03417,-12.689 3.12301,-12.2538 0.31183,1.5276 -7.6355,36.3251 -18.14915,79.4662 -15.42493,63.2939 -24.03859,113.0747 -29.3014,169.3412 -6.60821,70.6507 -6.39456,153.9688 0.53806,209.8299 7.09372,57.159 21.83452,104.2775 50.92355,162.7754 10.82687,21.7728 16.48287,30.7871 18.76722,29.9105 1.08721,-0.4172 0.85109,-2.3595 -1.38732,-11.4124 -2.84258,-11.4963 -1.73934,-10.3937 2.56861,2.567 2.11001,6.348 3.75937,14.578 2.90068,14.4736 -0.11643,-0.014 -1.81209,-1.02 -3.76814,-2.2351 z"
     id="path13" />
  <path
     style="fill:#999999;stroke-width:0.547144"
     d="m 562.73794,2439.9684 c -8.08902,-2.8936 -21.27848,-10.7133 -45.83288,-27.173 -17.6393,-11.8243 -22.55686,-14.6417 -27.17402,-15.569 -4.11437,-0.8263 -7.57137,0.3358 -14.26262,4.7946 -7.00299,4.6664 -11.73303,6.8333 -15.70212,7.1932 -3.0187,0.2737 -3.20732,0.2123 -5.06986,-1.6502 -1.83914,-1.8392 -1.93451,-2.1199 -1.93451,-5.6935 0,-5.2696 1.65805,-10.7927 5.72091,-19.057 9.35408,-19.0271 28.71314,-42.7586 33.41017,-40.9562 1.0583,0.4062 1.90474,2.4057 1.90474,4.4996 0,4.0575 14.1533,21.14 42.67726,51.5098 16.26378,17.3163 22.13639,24.0207 27.0726,30.9069 7.81502,10.9024 7.57688,14.1949 -0.80967,11.1948 z"
     id="path14" />
  <path
     style="fill:#999999;stroke-width:0.547144"
     d="m 396.95321,2444.9746 c 0,-1.7914 4.84089,-7.722 12.81522,-15.7001 7.91259,-7.9164 14.70844,-13.0325 18.17533,-13.6828 3.0862,-0.579 6.7624,3.0177 6.7624,6.6162 0,4.7971 -7.11954,10.6976 -21.6122,17.9118 -11.27531,5.6126 -16.14075,7.076 -16.14075,4.8549 z"
     id="path15" />
  <path
     style="fill:#999999;stroke-width:0.273572"
     d="m 474.32816,1299.6157 c -1.3639,-0.3249 -3.05677,-1.4344 -5.42548,-3.5559 -3.60724,-3.2307 -6.47722,-4.384 -12.87995,-5.1757 -1.22419,-0.1514 -2.91747,-0.5859 -3.79464,-0.9739 -11.21284,-4.9588 -22.5802,-27.0966 -26.13727,-50.9019 -0.73981,-4.9511 -1.01458,-13.2382 -0.56626,-17.0786 0.98226,-8.4142 4.0921,-14.6119 8.43663,-16.8134 4.08446,-2.0697 10.87692,-2.0787 17.9837,-0.024 9.10109,2.6316 17.91997,8.4849 21.5882,14.3287 1.57503,2.5091 2.73706,6.7486 2.07005,7.5523 -0.82109,0.9894 -3.96859,0.049 -9.18295,-2.7447 -6.93771,-3.7164 -13.36559,-4.5446 -19.28777,-2.4851 -2.72251,0.9468 -4.69264,2.1946 -6.85955,4.3447 -1.46782,1.4565 -2.12543,2.3934 -3.07206,4.3772 -2.48312,5.2036 -2.64847,9.2307 -0.69233,16.8616 3.47525,13.5569 13.25145,35.2846 17.58254,39.0774 2.01852,1.7676 2.78529,1.0685 2.55886,-2.3332 -0.29841,-4.4832 -3.15743,-12.7195 -7.99788,-23.0406 -5.00529,-10.6726 -6.4226,-14.7219 -6.4226,-18.3497 0,-3.788 1.54876,-6.5009 6.28358,-11.0067 4.73894,-4.5097 9.20716,-5.6998 14.20978,-3.7846 7.40815,2.8361 14.16792,13.2781 17.3809,26.8488 1.59658,6.7435 1.90787,10.0311 1.90392,20.1076 -0.003,7.1443 -0.11007,10.0959 -0.46253,12.7271 -0.9925,7.4092 -2.55341,11.0118 -5.20533,12.0137 -0.84871,0.3207 -0.78867,0.3199 -2.01156,0.029 z"
     id="path16" />
  <path
     style="fill:#999999;stroke-width:0.273572"
     d="m 574.53326,1549.5811 c -0.0848,-1.2413 -0.22383,-4.4113 -0.30895,-7.0445 -0.0851,-2.6331 -0.33621,-8.2345 -0.55797,-12.4475 -3.62107,-68.793 -14.19301,-132.4795 -30.72179,-185.0716 -9.25564,-29.45 -19.96712,-54.2289 -32.81729,-75.9162 -10.12681,-17.0912 -16.11725,-30.8332 -13.82438,-31.7131 4.49744,-1.7258 29.84008,41.9277 45.56244,78.4827 7.26466,16.8906 12.88205,33.8722 18.10284,54.7256 11.63442,46.4714 19.37865,107.9442 21.36775,169.6148 0.0825,2.5579 0.22085,6.2203 0.30744,8.1387 l 0.15744,3.4881 h -3.55667 -3.55668 z"
     id="path17" />
  <path
     style="fill:#999999;stroke-width:0.273572"
     d="m 494.38964,1542.1947 c -0.43613,-23.2763 -0.0325,-139.4332 0.63482,-182.6778 0.84603,-54.8273 2.21473,-84.5691 4.15991,-90.3947 0.42864,-1.2837 0.6908,-1.404 1.5771,-0.7234 l 0.67157,0.5158 -1.15762,7.4798 c -0.79009,5.105 -1.24027,9.0866 -1.41794,12.5408 -1.03933,20.2068 -1.90427,116.6606 -1.91045,213.0444 l -0.003,49.8585 h -1.18675 -1.18674 z"
     id="path18" />
  <path
     style="fill:#999999;stroke-width:0.273572"
     d=""
     id="path19" />
  <path
     style="fill:#999999;stroke-width:0.273572"
     d="m 536.51019,1546.435 c 0.32826,-5.6192 0.74655,-14.4161 1.21956,-25.6474 0.45474,-10.7977 0.63095,-51.6962 0.27816,-64.563 -1.91533,-69.8553 -9.29924,-125.0014 -21.28238,-158.9454 -3.09961,-8.7801 -6.1749,-15.0453 -10.91595,-22.2387 -1.73049,-2.6256 -3.07718,-4.8429 -2.99265,-4.9274 0.41873,-0.4188 4.50498,4.3904 7.04347,8.2896 15.18724,23.3279 26.00234,80.2445 29.34456,154.4315 0.82933,18.4086 1.02883,31.1159 0.88047,56.0823 -0.15261,25.6806 -0.36473,33.2275 -1.56865,55.8087 -0.38663,7.2519 -0.35845,7.1129 -1.44207,7.1129 h -0.88015 z"
     id="path20" />
  <path
     style="fill:#999999;stroke-width:0.273572"
     d="m 581.34096,1417.9593 c -0.61092,-1.4516 -1.19169,-3.9013 -3.15378,-13.303 -3.56513,-17.083 -7.59083,-31.6282 -14.04549,-50.7477 -13.127,-38.8837 -32.13641,-80.801 -48.92994,-107.8944 -3.21684,-5.1898 -5.04781,-7.9052 -13.02511,-19.3166 l -6.69355,-9.5751 -0.48205,-75.9162 c -0.26513,-41.754 -0.5372,-83.3335 -0.60461,-92.399 l -0.12255,-16.4827 h 48.42831 48.4283 l -0.18724,26.6048 c -0.36398,51.7171 -1.25641,130.8549 -2.09243,185.5504 -1.46086,95.5743 -3.25705,156.327 -4.9361,166.9543 -0.45482,2.8788 -1.36785,6.5435 -1.76352,7.0786 -0.3484,0.4711 -0.40519,0.4327 -0.82024,-0.5534 z"
     id="path21" />
  <path
     style="fill:#999999;stroke-width:0.273572"
     d="m 581.37974,1418.1297 c -0.52077,-1.0163 -1.19775,-3.8617 -3.31137,-13.918 -2.20199,-10.4768 -4.13529,-18.3167 -6.80527,-27.5966 -12.0911,-42.0244 -33.05405,-91.7284 -52.78666,-125.1592 -4.11,-6.9632 -7.99953,-12.8903 -15.45456,-23.5508 l -7.46378,-10.673 -0.13471,-10.177 c -0.0741,-5.5973 -0.313,-42.1233 -0.5309,-81.1689 -0.2179,-39.0456 -0.4626,-76.0701 -0.54377,-82.2768 l -0.14758,-11.2848 h 48.46997 48.46998 l -0.18697,26.7416 c -0.36259,51.8622 -1.25707,131.1238 -2.09242,185.4136 -1.41536,91.9842 -3.03547,149.1448 -4.66785,164.6904 -0.43279,4.1216 -1.76157,9.7118 -2.30846,9.7118 -0.0661,0 -0.29362,-0.3385 -0.50565,-0.7523 z"
     id="path22" />
  <path
     style="fill:#999999;stroke-width:0.273572"
     d="m 414.07884,1219.1743 c -0.0443,-1.6564 0.78751,-5.7783 1.72024,-8.5239 4.65365,-13.6989 17.24362,-18.6568 36.94436,-14.5484 4.102,0.8554 8.68929,2.1718 13.68026,3.9256 2.1357,0.7505 4.02566,1.3645 4.19991,1.3645 0.43011,0 1.07405,-1.3058 1.43235,-2.9046 1.7582,-7.8454 2.48019,-39.5995 2.89009,-127.1105 l 0.18292,-39.0524 h 0.64847 0.64848 v 86.4488 c 0,48.651 -0.10377,86.4488 -0.23734,86.4488 -0.13053,0 -3.17744,-1.1194 -6.77091,-2.4875 -12.78078,-4.866 -16.63358,-6.0488 -22.57265,-6.9298 -3.64819,-0.5412 -9.30986,-0.5549 -12.3082,-0.03 -11.20918,1.9631 -18.12583,9.5298 -20.05665,21.9416 -0.20664,1.3283 -0.38724,1.9843 -0.40133,1.4576 z"
     id="path23" />
  <path
     style="fill:#999999;stroke-width:0.273572"
     d="m 581.37974,1418.1297 c -0.51987,-1.0146 -1.21921,-3.9341 -3.1946,-13.3367 -1.90379,-9.0617 -3.48988,-15.7477 -5.32163,-22.4329 -12.18664,-44.4762 -34.57026,-97.8948 -55.88359,-133.3664 -3.62666,-6.0358 -7.63391,-12.0587 -15.2946,-22.9878 l -6.04583,-8.6252 -0.16607,-6.1477 c -0.0913,-3.3812 -0.22948,-21.9669 -0.30698,-41.3017 -0.0775,-19.3347 -0.20105,-38.8472 -0.27455,-43.3611 -0.0735,-4.514 -0.19664,-23.5956 -0.27367,-42.4037 -0.077,-18.8081 -0.21588,-38.1668 -0.30858,-43.0192 l -0.16854,-8.8227 h 48.49978 48.49978 l -0.18824,27.4256 c -0.24846,36.2 -0.57778,68.5676 -1.27687,125.5012 -1.49477,121.7334 -3.40938,201.4753 -5.33538,222.2143 -0.51047,5.4967 -1.7711,11.4163 -2.4312,11.4163 -0.079,0 -0.3172,-0.3385 -0.52923,-0.7523 z"
     id="path24" />
  <path
     style="fill:#999999;stroke-width:0.273572"
     d=""
     id="path25" />
  <path
     style="fill:#999999;stroke-width:0.0341965"
     d="m 524.23839,1264.1513 c -0.0259,-0.042 -0.40124,-0.7002 -0.83404,-1.4619 -3.39033,-5.967 -7.14835,-12.0336 -10.50347,-16.9558 -0.3547,-0.5203 -4.67759,-6.8047 -9.60642,-13.9654 l -8.96151,-13.0192 -0.10557,-9.5334 c -0.0581,-5.2433 -0.10539,-9.6218 -0.10517,-9.7299 l 4.1e-4,-0.1966 h 0.54195 0.54194 l 0.0221,2.18 c 0.0122,1.199 0.0399,5.2269 0.0617,8.9509 l 0.0396,6.7709 6.41862,9.1818 c 7.46664,10.6809 7.00671,10.0205 8.00205,11.49 4.68142,6.9117 9.77087,15.3928 14.80591,24.6728 0.41839,0.7712 0.79646,1.4675 0.84016,1.5474 l 0.0794,0.1454 h -0.59524 c -0.58053,0 -0.59641,0 -0.64238,-0.077 z"
     id="path26" />
  <path
     style="fill:#999999;stroke-width:0.068393"
     d="m 494.10528,1197.8186 c -1.3e-4,-0.7805 -0.20007,-19.5313 -0.44431,-41.6684 -0.24425,-22.1372 -0.44419,-40.5187 -0.44432,-40.8478 l -2.4e-4,-0.5984 h 0.71813 c 0.39497,0 0.71876,0.01 0.71953,0.017 0.003,0.034 0.54374,83.4031 0.54473,83.9524 l 10e-4,0.5643 h -0.54715 -0.54714 z"
     id="path27" />
  <path
     style="fill:#999999;stroke-width:0.0241806"
     d="m 492.86089,1085.6783 c -10e-6,-0.2493 -0.0434,-4.3869 -0.0964,-9.1946 -0.16361,-14.8325 -0.24796,-23.214 -0.31343,-31.1446 -0.0132,-1.6026 -0.0308,-3.4116 -0.039,-4.0201 l -0.0149,-1.1062 h 0.90894 0.90894 v 0.836 c 0,1.0461 0.25762,41.8671 0.27593,43.7228 l 0.0134,1.3601 h -0.82173 -0.82174 z"
     id="path28" />
  <path
     style="fill:#999999;stroke-width:0.136786"
     d="m 493.13289,1104.445 c -0.0493,-5.586 -0.12888,-11.9876 -0.17684,-14.2257 l -0.0872,-4.0694 h 0.75611 0.7561 l 0.0879,5.916 c 0.0483,3.2538 0.10175,9.6554 0.11872,14.2258 l 0.0308,8.3098 -0.69798,-10e-5 h -0.69797 z"
     id="path29" />
  <path
     style="fill:#999999;stroke-width:0.273572"
     d=""
     id="path30" />
  <path
     style="fill:#999999;stroke-width:0.068393"
     d="m 492.37168,1033.7095 c -0.0255,-3.5453 -0.0917,-12.6014 -0.14707,-20.1246 -0.11634,-15.79665 -0.27627,-40.74943 -0.37326,-58.23672 -0.037,-6.67687 -0.0866,-14.50188 -0.11009,-17.38893 l -0.0428,-5.24916 h 0.88751 0.8875 l 0.0448,4.53104 c 0.0247,2.49207 0.16568,24.02818 0.31338,47.85803 0.1477,23.82984 0.28923,45.96614 0.3145,49.19174 l 0.046,5.8647 h -0.88709 -0.8871 z"
     id="path31" />
  <path
     style="fill:#999999;stroke-width:0.068393"
     d="m 474.92756,1047.7472 c 0.0154,-8.1815 0.0484,-37.4119 0.0735,-64.95631 l 0.0455,-50.0808 h 0.70679 0.7068 v 49.79013 49.79018 h -0.67557 -0.67556 l -0.0435,8.1216 c -0.0239,4.4669 -0.071,11.2917 -0.10469,15.1662 -0.0509,5.8552 -0.0565,4.5332 -0.0333,-7.831 z"
     id="path32" />
  <path
     style="fill:#999999;stroke-width:0.068393"
     d="m 475.02386,897.14571 v -35.56438 h 0.67259 0.67259 l 0.0455,13.65577 c 0.025,7.51067 0.0455,23.51465 0.0455,35.56438 v 21.90861 h -0.71813 -0.71813 z"
     id="path33" />
  <path
     style="fill:#999999;stroke-width:0.068393"
     d="m 491.68627,925.61431 c -0.0251,-3.90268 -0.0762,-13.25115 -0.11355,-20.77439 -0.0374,-7.52323 -0.0982,-19.43388 -0.13517,-26.4681 -0.037,-7.03423 -0.0673,-13.69067 -0.0675,-14.7921 l -2.6e-4,-2.0026 0.83781,0.0192 0.83782,0.0192 0.0818,13.33665 c 0.045,7.33515 0.14527,23.07752 0.22288,34.98304 0.0776,11.90551 0.14083,21.9003 0.1405,22.21064 l -6.1e-4,0.56424 h -0.87905 -0.87905 z"
     id="path34" />
  <path
     style="fill:#999999;stroke-width:0.068393"
     d="m 491.45591,861.52533 c -0.0885,-0.0562 -0.12723,-5.93289 -0.28933,-43.95492 -0.0372,-8.72696 -0.0884,-20.73763 -0.11373,-26.69039 l -0.0461,-10.8232 h 0.79705 0.79705 l 9e-5,2.75282 c 9e-5,2.79713 0.12227,24.8988 0.30766,55.65484 0.0563,9.34762 0.10248,18.37293 0.10253,20.05626 l 8e-5,3.06059 -0.73522,-10e-4 c -0.40438,-5.7e-4 -0.77342,-0.0253 -0.8201,-0.0549 z"
     id="path35" />
  <path
     style="fill:#999999;stroke-width:0.068393"
     d="m 475.02386,820.81907 v -40.76225 h 0.68393 0.68393 v 40.76225 40.76226 h -0.68393 -0.68393 z"
     id="path36" />
  <path
     style="fill:#999999;stroke-width:0.068393"
     d="m 475.02385,762.05235 c -10e-6,-9.90245 -0.0205,-28.27624 -0.0456,-40.83064 l -0.0455,-22.82618 h 0.72949 0.72949 v 40.83065 40.83064 h -0.68393 -0.68393 z"
     id="path37" />
  <path
     style="fill:#999999;stroke-width:0.068393"
     d="m 491.00211,775.25221 c -0.0412,-4.68518 -0.14471,-32.49006 -0.21387,-57.43305 -0.0189,-6.82734 -0.0509,-13.99066 -0.0711,-15.91848 l -0.0367,-3.50515 h 0.75502 0.75503 l 4.4e-4,3.9155 c 2.5e-4,2.15353 0.0304,9.48612 0.067,16.29465 0.0366,6.80852 0.1124,21.93535 0.16845,33.61517 0.056,11.67983 0.11638,22.72103 0.13406,24.53601 l 0.0321,3.29996 h -0.77414 -0.77413 z"
     id="path38" />
  <path
     style="fill:#999999;stroke-width:0.068393"
     d="m 490.6864,694.00128 c 4.6e-4,-3.79024 -0.0919,-34.84056 -0.15693,-52.76523 l -0.0212,-5.83051 h 0.66255 0.66255 l 0.04,1.45335 c 0.022,0.79935 0.0563,6.51615 0.0761,12.70401 0.0406,12.64374 0.1583,40.0689 0.19471,45.36169 l 0.0239,3.47094 h -0.74114 -0.74114 z"
     id="path39" />
  <path
     style="fill:#999999;stroke-width:0.068393"
     d="m 474.92997,683.46875 c -0.0233,-8.20973 -0.0615,-22.38248 -0.0849,-31.49499 l -0.0425,-16.56822 h 0.74903 0.74904 l 0.0455,14.61901 c 0.025,8.04046 0.0455,22.21321 0.0455,31.495 l 1e-5,16.87598 h -0.70967 -0.70968 z"
     id="path40" />
  <path
     style="fill:#999999;stroke-width:0.068393"
     d="m 492.16538,682.71643 c -0.0229,-2.75539 -0.0582,-8.98001 -0.0784,-13.83249 -0.0202,-4.85249 -0.0671,-15.63978 -0.10415,-23.97177 -0.0618,-13.89228 -0.19744,-46.51171 -0.31361,-75.42042 l -0.0468,-11.64392 h 49.96338 49.96338 l 0.0442,2.65023 c 0.20444,12.26155 0.52878,57.27401 0.65333,90.67208 0.0372,9.96828 0.0838,22.27134 0.10357,27.34012 l 0.036,9.21596 H 542.29669 492.2071 Z"
     id="path41" />
  <path
     style="fill:#999999;stroke-width:0.068393"
     d="m 490.48101,629.67762 c 3.5e-4,-6.12545 -0.10974,-47.70409 -0.16615,-62.75061 l -0.034,-9.07918 h 0.63715 0.63716 l 0.0476,11.71231 c 0.0262,6.44177 0.0918,22.0995 0.14592,34.79496 0.0541,12.69546 0.0987,24.87541 0.0991,27.06655 l 7.9e-4,3.98389 h -0.68393 -0.68393 z"
     id="path42" />
  <path
     style="fill:#999999;stroke-width:0.068393"
     d="m 474.79283,625.06109 c -0.0235,-5.68944 -0.0729,-20.3777 -0.10995,-32.64057 -0.037,-12.26288 -0.0865,-25.05836 -0.10992,-28.43441 l -0.0426,-6.13828 h 0.81772 0.81773 l 0.0445,16.26045 c 0.0245,8.94324 0.0646,26.39373 0.0892,38.77885 l 0.0446,22.51841 h -0.75432 -0.75431 z"
     id="path43" />
  <path
     style="fill:#999999;stroke-width:0.068393"
     d="m 490.25185,538.74908 c -0.0247,-10.50432 -0.065,-27.35465 -0.0896,-37.44519 l -0.0447,-18.34644 h 0.5821 0.58209 l 0.0453,11.37035 c 0.0249,6.25369 0.0745,20.37257 0.11032,31.37531 0.0358,11.00273 0.0831,22.73641 0.10527,26.07484 l 0.0402,6.06988 h -0.64306 -0.64306 z"
     id="path44" />
  <path
     style="fill:#999999;stroke-width:0.068393"
     d="m 474.54505,555.81314 c -9e-5,-2.70707 -0.11435,-26.24276 -0.24015,-49.46527 -0.0559,-10.32563 -0.10171,-19.8126 -0.10173,-21.08215 l -2e-5,-2.30827 h 0.84475 0.84476 l 0.0454,8.63463 c 0.025,4.74904 0.0747,17.71379 0.11059,28.81056 0.0359,11.09678 0.0826,24.06153 0.10395,28.81057 l 0.0387,8.63462 h -0.8231 -0.82311 z"
     id="path45" />
  <path
     style="fill:#999999;stroke-width:0.068393"
     d="m 490.11377,471.96327 c -0.0238,-6.0468 -0.0629,-21.85072 -0.0868,-35.11982 l -0.0435,-24.12565 h 0.55636 0.55636 l 2e-4,2.9922 c 3.2e-4,4.85504 0.12626,46.67086 0.17281,57.38176 l 0.0429,9.86569 h -0.57753 -0.57754 z"
     id="path46" />
  <path
     style="fill:#999999;stroke-width:0.068393"
     d="m 474.17782,481.91446 c -0.0219,-0.57365 -0.0569,-4.81316 -0.078,-9.42114 -0.021,-4.60798 -0.0974,-16.62635 -0.16978,-26.70748 -0.18244,-25.41849 -0.20084,-27.70152 -0.24624,-30.55459 l -0.04,-2.51345 h 0.92141 0.9214 l 0.0409,2.54764 c 0.0225,1.40121 0.0575,5.68688 0.0779,9.52373 0.0203,3.83685 0.0809,15.36279 0.13466,25.6132 0.0538,10.2504 0.11648,21.76865 0.1394,25.59609 l 0.0417,6.95899 h -0.85182 -0.85181 z"
     id="path47" />
  <path
     style="fill:#999999;stroke-width:0.068393"
     d="m 489.97761,404.42515 c -0.0226,-4.56096 -0.0573,-16.87171 -0.0772,-27.35722 l -0.0361,-19.06456 h 0.53913 0.53913 l 0.0411,9.25016 c 0.0226,5.08759 0.0573,17.39833 0.0771,27.35721 l 0.036,18.10706 h -0.53908 -0.53908 z"
     id="path48" />
  <path
     style="fill:#999999;stroke-width:0.068393"
     d="m 473.6557,411.26445 c -3.3e-4,-1.62173 -0.0733,-9.64028 -0.27359,-30.07584 -0.0743,-7.57966 -0.15582,-15.89711 -0.18117,-18.48322 l -0.0461,-4.70202 h 0.95924 0.95923 l 0.0452,4.12068 c 0.0647,5.89848 0.24812,28.44529 0.35826,44.04512 l 0.0462,6.54863 h -0.93352 -0.93352 z"
     id="path49" />
  <path
     style="fill:#999999;stroke-width:0.068393"
     d="m 489.84074,339.10979 c -0.0242,-10.39146 -0.0639,-26.9802 -0.0881,-36.86385 l -0.044,-17.97027 h 0.57983 0.57982 l 0.0456,21.04224 c 0.0251,11.57323 0.0456,28.16196 0.0456,36.86384 v 15.82162 h -0.5373 -0.53731 z"
     id="path50" />
  <path
     style="fill:#999999;stroke-width:0.068393"
     d="m 473.14764,357.91788 c -0.0139,-0.047 -0.0602,-3.71716 -0.10275,-8.15587 -0.0426,-4.43871 -0.10671,-10.36326 -0.14249,-13.16566 -0.16005,-12.53729 -0.21513,-16.71316 -0.34191,-25.92096 -0.21174,-15.37814 -0.33157,-23.36875 -0.3741,-24.94637 l -0.0392,-1.45335 h 1.02158 1.02158 l 0.0384,0.63264 c 0.0211,0.34795 0.0553,2.18687 0.0759,4.08648 0.0206,1.89962 0.0827,6.83931 0.13809,10.97709 0.16513,12.34236 0.38879,31.87967 0.5105,44.59226 0.0367,3.83685 0.0861,8.43029 0.10979,10.20766 l 0.043,3.23157 h -0.96654 c -0.71414,0 -0.97315,-0.0223 -0.99186,-0.0855 z"
     id="path51" />
  <path
     style="fill:#999999;stroke-width:0.273572"
     d="m 590.65639,497.69615 c -0.058,-0.18808 -0.18016,-3.41965 -0.2714,-7.18126 -0.49779,-20.52388 -3.58788,-63.66884 -6.86754,-95.88705 -10.25727,-100.76379 -28.17261,-170.95941 -64.47981,-252.64389 -1.80572,-4.06254 -5.53209,-12.55696 -8.28082,-18.87648 -8.22862,-18.91818 -10.14361,-22.83038 -12.41489,-25.362842 -1.07045,-1.193545 -1.30808,-1.329948 -2.18858,-1.256288 -0.89658,0.07501 -1.05685,0.221493 -1.73663,1.58728 -3.12883,6.28636 -3.85273,31.48941 -3.71082,129.19446 0.0784,53.97729 0.0585,56.83463 -0.39619,56.83462 -0.45136,-10e-6 -0.48024,-1.14653 -0.50471,-20.03917 -0.0143,-11.02154 -0.11324,-58.20248 -0.21991,-104.84653 -0.10667,-46.64406 -0.1807,-84.834506 -0.16452,-84.86767 0.0295,-0.06049 6.89671,14.399317 18.47779,38.90754 13.68651,28.9638 22.98755,50.44821 31.32604,72.35984 30.11834,79.14407 44.61595,157.71221 51.41419,278.63325 0.65322,11.61883 1.50666,29.62283 1.50755,31.80276 7.9e-4,1.94001 -0.0143,1.9834 -0.69171,1.9834 -0.38089,0 -0.74,-0.15388 -0.79804,-0.34197 z"
     id="path52" />
  <path
     style="fill:#999999;stroke-width:0.273572"
     d="m 373.56279,496.96227 c 0,-2.56477 1.29371,-19.18422 2.34397,-30.11138 2.47447,-25.74511 6.34133,-56.85855 10.67607,-85.90166 17.62129,-118.06411 48.57013,-240.02095 73.17703,-288.361081 1.83523,-3.605287 2.64398,-4.564198 3.47458,-4.119677 4.11453,2.202033 7.0993,37.414468 9.0813,107.135628 0.63698,22.40723 1.28826,53.59837 1.51088,72.35983 0.083,6.99661 0.21283,13.49053 0.28846,14.43093 l 0.1375,1.70983 h -0.93572 -0.93571 l -0.16108,-4.71912 c -0.0886,-2.59552 -0.29019,-12.35178 -0.44799,-21.68059 -1.12912,-66.74972 -3.124,-120.78158 -5.34313,-144.71968 -1.14018,-12.29941 -2.45647,-18.73969 -3.83007,-18.73969 -2.4845,0 -10.32292,18.49585 -19.99931,47.1912 -15.5875,46.22473 -28.63024,97.82973 -41.24739,163.19966 -10.23744,53.04062 -20.11783,119.57331 -23.80514,160.29942 -0.96943,10.70726 -2.33895,29.54557 -2.34185,32.21312 -8.8e-4,0.80531 -0.0783,0.88911 -0.82169,0.88911 -0.77277,0 -0.82071,-0.0628 -0.82071,-1.07585 z"
     id="path53" />
  <path
     style="fill:#999999;stroke-width:0.386889"
     d="m 568.24079,1718.0822 c -2.66829,-0.1269 -2.79827,-0.176 -2.61166,-0.9871 0.28766,-1.2501 1.94249,-13.9121 3.06954,-23.4865 4.57697,-38.8821 6.78543,-82.0317 6.28205,-122.7407 l -0.23322,-18.8608 h 3.42412 3.42412 l 0.28535,13.1238 c 0.9459,43.5045 -2.39646,103.3355 -8.12507,145.4455 -0.5314,3.9062 -0.96617,7.2576 -0.96617,7.4476 0,0.1901 -0.39173,0.3109 -0.8705,0.2687 -0.47878,-0.042 -2.13413,-0.137 -3.67856,-0.2105 z"
     id="path54" />
  <path
     style="fill:#999999;stroke-width:0.773779"
     d="m 290.94087,2538.2989 c -76.117,-3.4053 -145.98189,-18.1359 -180.22802,-37.9999 -9.03453,-5.2404 -18.267551,-11.5806 -19.082863,-13.104 -0.703514,-1.3146 -0.403401,-1.4301 3.711041,-1.4286 2.462049,8e-4 9.525362,0.8791 15.696252,1.9517 36.04954,6.2657 44.7394,6.9546 87.05012,6.9011 25.72261,-0.033 39.16661,-0.3935 51.4563,-1.3815 62.22239,-5.0025 115.19032,-14.7425 156.63188,-28.8021 l 10.64936,-3.6129 6.57787,3.2595 c 11.80664,5.8504 33.11355,23.4134 38.78182,31.9674 6.91251,10.4316 -6.45325,23.2091 -32.46213,31.0333 -31.19594,9.3846 -84.1173,13.6616 -138.78163,11.216 z"
     id="path55" />
  <path
     style="fill:#999999;stroke-width:0.773779"
     d="m 643.77557,2543.7754 c -67.05183,-3.3988 -126.2373,-25.8977 -187.36614,-71.2259 -16.84279,-12.4892 -19.71167,-16.103 -16.9115,-21.3026 2.23962,-4.1587 7.6624,-7.9999 44.15551,-31.2777 l 9.32697,-5.9493 17.36841,10.7659 c 18.9022,11.7166 32.69135,19.0177 48.34376,25.5972 65.78797,27.6538 156.45084,43.3962 234.58799,40.7331 26.19311,-0.8928 40.38423,-2.5239 64.06647,-7.3638 14.14394,-2.8906 22.82491,-3.6596 23.38274,-2.0713 0.91125,2.5945 -21.47224,13.942 -50.465,25.5836 -45.44796,18.249 -89.43453,29.9666 -129.60797,34.5265 -17.61044,1.9988 -40.70208,2.8044 -56.88124,1.9843 z"
     id="path56" />
  <path
     style="fill:#502d16;stroke-width:2.18858"
     d="m 503.37278,2677.098 c -48.1487,-24.349 -92.09599,-47.5416 -97.66065,-51.5393 -14.80401,-10.6352 -16.14537,-14.3652 -16.14537,-44.8964 v -26.3906 l 22.98006,-7.1926 c 40.47368,-12.6678 45.40617,-10.7065 53.59944,21.3134 6.54333,25.5718 28.37373,59.6402 55.77378,87.0402 43.33178,43.3318 61.27006,17.6597 21.12607,-30.2342 -6.55809,-7.8242 -17.13673,-18.1652 -23.50808,-22.9801 -21.44523,-16.2063 -28.35242,-25.7574 -20.73994,-28.6786 3.97724,-1.5262 9.91288,1.5094 55.40387,28.3347 l 37.69772,22.2297 0.0552,48.6958 c 0.0304,26.7827 -0.19098,48.6673 -0.49191,48.6323 -0.30093,-0.035 -39.94153,-19.9854 -88.09023,-44.3343 z"
     id="path57" />
  <path
     style="fill:#502d16;stroke-width:2.18858"
     d="m 577.7844,2592.6407 c -11.67475,-5.3404 -94.33168,-54.1772 -103.6498,-61.2402 l -7.35241,-5.5729 4.77285,-3.8649 c 9.64018,-7.8061 17.81935,-7.3086 39.36887,2.3946 10.9932,4.95 31.69659,13.0146 46.00753,17.9213 14.31094,4.9068 27.77813,10.8642 29.92707,13.2388 3.05632,3.3772 3.92353,8.1721 3.98227,22.0186 0.0422,9.9412 -0.88437,18.0099 -2.11349,18.4053 -1.20372,0.3872 -6.12802,-1.0981 -10.94289,-3.3006 z"
     id="path58" />
  <path
     style="fill:#502d16;stroke-width:2.18858"
     d="m 494.61847,2800.1621 c -50.55614,-21.7202 -93.35155,-40.9084 -95.10091,-42.6404 -2.21269,-2.1907 -3.43723,-9.6504 -4.02372,-24.5118 l -0.84305,-21.3626 10.21202,11.49 c 9.17666,10.3251 18.6269,15.056 18.6269,9.3249 0,-5.7959 -9.17123,-25.0907 -17.71665,-37.273 l -9.54947,-13.6137 -0.84358,-22.7889 -0.84358,-22.789 18.11378,10.4676 c 33.12188,19.1405 51.98101,40.3995 62.01826,69.9102 7.0356,20.6856 10.2785,26.4842 22.27121,39.8229 11.62966,12.935 30.48073,26.8535 50.92444,37.5995 15.49678,8.1457 17.78801,7.3112 17.8496,-6.5008 0.0897,-20.1154 -31.2721,-57.0468 -48.44356,-57.0468 -3.43055,0 -6.23736,-0.9304 -6.23736,-2.0674 0,-1.1371 -4.9243,-6.9147 -10.94289,-12.8391 -10.96138,-10.7898 -13.55483,-17.0573 -7.94846,-19.2086 3.30439,-1.2681 33.6919,11.9183 73.81214,32.0299 l 26.05657,13.0618 v 42.3868 c 0,40.5754 -1.13512,56.0804 -4.10359,56.0526 -0.75232,-0.01 -42.73197,-17.7839 -93.2881,-39.5041 z"
     id="path59" />
  <path
     style="fill:#502d16;stroke-width:2.18858"
     d="m 574.50154,2943.1485 c -10.50442,-4.1183 -129.68265,-52.9647 -149.44556,-61.2518 -25.31964,-10.6171 -31.88037,-16.99 -29.05989,-28.2276 2.05292,-8.1795 7.81377,-6.8045 25.74721,6.1453 2.04877,1.4794 4.31264,2.1023 5.03081,1.3841 2.75788,-2.7579 -1.75071,-12.2752 -13.09931,-27.6518 -13.3935,-18.1472 -19.20993,-33.0889 -18.22171,-46.8093 0.56999,-7.9138 1.48492,-9.5471 5.68144,-10.1424 13.40694,-1.9018 39.74677,23.0764 61.27279,58.1053 21.20795,34.5113 29.62242,43.4517 61.9343,65.8056 16.01977,11.0828 30.90471,20.1505 33.07765,20.1505 5.61241,0 5.25067,-13.8702 -0.78227,-29.9947 -6.42239,-17.1654 -23.65556,-34.0552 -47.12427,-46.1854 -22.7669,-11.7675 -33.13484,-24.1024 -22.06447,-26.2504 1.87547,-0.3639 25.18428,8.9276 51.79735,20.6478 l 48.38739,21.3094 -0.21644,29.6895 c -0.36381,49.9038 -2.19966,57.4769 -12.91502,53.2759 z"
     id="path60" />
  <path
     style="fill:#502d16;stroke-width:2.18858"
     d="m 548.23861,3031.388 c -22.2052,-7.9595 -93.08276,-37.7345 -114.96132,-48.2941 -28.70408,-13.854 -37.23856,-23.894 -27.67102,-32.5525 5.28713,-4.7848 5.69002,-4.697 13.50628,2.9436 11.22746,10.9752 17.01236,7.2875 9.9604,-6.3495 -3.46638,-6.7032 -17.49909,-19.9134 -21.15333,-19.9134 -1.42107,0 -1.71902,2.5829 -0.78729,6.8251 1.14909,5.2318 0.8065,6.5861 -1.46753,5.8016 -1.88525,-0.6503 -2.70995,-3.583 -2.26252,-8.0456 0.38723,-3.8622 -1.47113,-12.2702 -4.12968,-18.6844 -5.6117,-13.5393 -4.60355,-23.1025 2.43544,-23.1025 6.79769,0 28.94466,11.9846 40.28563,21.8001 8.20675,7.1029 11.90782,8.84 18.83496,8.84 4.85054,0 8.6212,1.061 8.6212,2.4258 0,1.4947 -2.10015,1.8988 -5.47145,1.0526 -7.91407,-1.9863 -7.18966,3.5352 3.17138,24.1725 8.92615,17.7793 24.57974,35.8514 36.22302,41.8198 3.61115,1.851 17.2357,10.1216 30.27679,18.379 13.04108,8.2574 24.12075,15.0134 24.62149,15.0134 2.3154,0 0.56476,-22.8537 -2.27043,-29.6392 -6.19984,-14.8383 -24.6978,-31.5202 -46.06212,-41.5398 -19.08354,-8.95 -31.73437,-18.0659 -31.73437,-22.867 0,-4.1897 16.99944,1.9187 82.59674,29.6793 l 20.2223,8.558 0.022,30.2368 c 0.0122,16.7041 -0.99193,32.1315 -2.24353,34.4701 -3.05216,5.703 -12.68604,5.3784 -30.56308,-1.0297 z"
     id="path61" />
  <path
     style="fill:#502d16;stroke-width:2.18858"
     d="m 470.54412,3084.9171 c -67.96881,-25.3771 -69.37876,-26.1364 -64.71491,-34.8509 3.1379,-5.8632 2.97203,-18.4739 -0.28584,-21.7318 -1.71108,-1.7111 -1.80447,-2.6263 -0.26798,-2.6263 3.62909,0 6.61565,4.6222 9.19176,14.2258 3.27958,12.226 8.2905,18.6029 14.6181,18.6029 11.28463,0 4.81773,-16.9724 -14.6535,-38.4581 -7.0553,-7.7853 -12.82782,-16.0864 -12.82782,-18.4469 0,-6.3078 9.25525,-7.803 20.86234,-3.3702 13.05186,4.9846 26.54571,18.5687 41.55126,41.8292 16.83289,26.0931 27.21338,37.97 43.88127,50.2071 7.74229,5.6842 14.07688,10.7119 14.07688,11.1726 0,2.1954 -8.81047,-0.6403 -51.43156,-16.5534 z"
     id="path62" />
  <path
     style="fill:#502d16;stroke-width:2.18858"
     d="m 543.86146,3203.0893 c -35.33789,-12.9943 -104.62914,-44.5517 -122.0939,-55.6053 -11.40101,-7.2159 -10.17221,-11.1263 2.88114,-9.1689 5.84632,0.8767 9.94655,0.5178 10.85373,-0.95 1.66791,-2.6987 -6.04092,-15.8293 -18.65418,-31.7739 -12.60407,-15.9331 -10.85937,-25.1591 4.07964,-21.5733 20.99099,5.0385 37.51459,22.2221 48.36943,50.3015 9.37421,24.2492 23.19582,38.9452 49.65521,52.7963 21.43993,11.2234 29.30848,12.1069 29.23801,3.2828 -0.0703,-8.8083 -7.10759,-22.543 -15.55186,-30.3528 -4.05907,-3.7541 -14.27415,-10.802 -22.70017,-15.6622 -33.28394,-19.1981 -33.28394,-32.7098 0,-23.7611 11.19569,3.01 55.51828,20.6013 58.62758,23.2688 1.76933,1.5179 -4.49522,58.1681 -6.93466,62.7099 -0.95904,1.7856 -6.15772,0.7582 -17.76997,-3.5118 z"
     id="path63" />
  <path
     style="fill:#502d16;stroke-width:2.18858"
     d="m 562.04638,3117.2195 c -0.97383,-1.4286 -5.71831,-10.5385 -10.5433,-20.2443 -6.48124,-13.0375 -10.019,-17.825 -13.54403,-18.3287 -2.96484,-0.4236 -5.02943,-2.4952 -5.45304,-5.4714 -0.4541,-3.1904 -6.82796,-8.9745 -19.08879,-17.3226 -47.96715,-32.6595 -35.67351,-33.8854 37.75413,-3.7647 l 23.72423,9.7318 -1.06536,22.9801 c -1.35103,29.1419 -5.75636,41.2619 -11.78384,32.4198 z"
     id="path64" />
  <path
     style="fill:#502d16;stroke-width:2.18858"
     d="m 523.7823,3316.7246 c -4.42308,-2.3364 -20.18084,-14.6391 -35.01723,-27.3394 -14.8364,-12.7002 -33.86928,-27.704 -42.2953,-33.3415 -19.78384,-13.2368 -27.35722,-20.127 -27.35722,-24.8896 0,-6.8361 3.80264,-6.4681 14.05855,1.3604 5.52952,4.2208 10.97189,7.6742 12.09415,7.6742 8.11424,0 1.24734,-16.8867 -15.12964,-37.2058 -13.5667,-16.8325 -18.01216,-24.8017 -16.3098,-29.238 2.07438,-5.4057 6.5483,-5.6888 16.00034,-1.0123 13.85181,6.8534 28.87773,24.768 46.38616,55.3039 14.57908,25.4269 52.09177,60.3009 64.86345,60.3009 7.11375,0 8.32965,-5.0677 3.96073,-16.5075 -6.49934,-17.0183 -21.4458,-34.7952 -39.49581,-46.9752 -23.32864,-15.742 -25.27945,-22.4861 -5.16108,-17.8422 16.51504,3.8121 46.28422,18.4466 51.80771,25.4686 5.8639,7.4547 6.23155,19.5982 1.48031,48.8942 -6.20283,38.2464 -11.82076,44.8914 -29.88532,35.3493 z"
     id="path65" />
  <path
     style="fill:#502d16;stroke-width:2.18858"
     d="m 481.66425,3487.3094 c -16.37458,-19.4601 -34.30293,-75.8284 -48.29011,-151.8285 -5.58775,-30.3613 -8.10274,-64.9136 -4.95684,-68.0997 2.93541,-2.9729 12.91321,4.1668 32.3452,23.1448 22.09715,21.5808 33.01252,35.9302 31.33159,41.1884 -0.64655,2.0226 -4.2825,10.0295 -8.07989,17.7933 -6.85572,14.0165 -6.90396,14.3556 -6.84919,48.1487 0.0442,27.2425 0.79924,35.7019 3.78443,42.3981 10.23787,22.9652 26.86266,-7.7757 35.44438,-65.5403 3.85337,-25.9374 6.00957,-31.4624 12.27877,-31.4624 9.87781,0 10.55295,21.3604 1.86771,59.0916 -8.89266,38.6323 -23.94949,73.9302 -36.77916,86.2218 l -6.20574,5.9454 z"
     id="path66" />
  <path
     style="fill:#333333;stroke-width:2.18858"
     d="m 466.5775,3543.4814 c -23.53433,-14.2083 -70.7168,-55.5198 -87.14066,-76.2975 l -8.44083,-10.6784 6.36495,-9.2512 c 3.50073,-5.0881 7.97773,-10.5896 9.9489,-12.2256 5.66095,-4.6981 19.58786,-30.0809 27.55204,-50.2154 4.00826,-10.1335 7.55398,-17.5199 7.87937,-16.4144 0.3254,1.1056 5.61987,21.2149 11.76551,44.6874 12.32334,47.0675 22.99265,72.816 36.25564,87.4965 7.91861,8.765 8.53288,10.4234 9.27043,25.0291 0.43444,8.6031 0.44692,17.8712 0.0277,20.5958 -0.75447,4.9038 -0.89032,4.8763 -13.48308,-2.7263 z"
     id="path67" />
  <path
     style="fill:#333333;stroke-width:2.18858"
     d="m 493.96189,3539.586 c -6.05569,-6.0557 -1.45329,-19.2004 15.46233,-44.1613 17.89958,-26.4129 30.58163,-61.8279 40.90498,-114.2284 2.5917,-13.1553 5.21487,-25.396 5.82927,-27.2016 0.6507,-1.9122 7.69428,9.5097 16.87044,27.3572 17.52744,34.0907 26.2012,47.5537 40.55951,62.9548 l 9.72281,10.4288 -27.18141,26.777 c -28.38919,27.9667 -52.52304,46.2389 -73.0799,55.3301 -13.14014,5.8112 -24.91018,6.9213 -29.08803,2.7434 z"
     id="path68" />
  <path
     style="fill:#333333;stroke-width:2.18858;stroke:url(#linearGradient70)"
     d="m 470.06576,3570.8531 c -20.26583,-5.1697 -53.92146,-30.1065 -68.76255,-50.9489 -7.19803,-10.1087 -1.57816,-7.0767 19.06617,10.2865 10.74406,9.0364 26.87319,20.1161 35.84252,24.6215 15.17039,7.6203 17.61284,8.1806 35.01723,8.0339 22.34414,-0.1884 37.88394,-5.7875 67.27462,-24.2396 10.34917,-6.4974 19.21248,-11.4176 19.69626,-10.9338 2.46074,2.4607 -28.96941,26.8 -44.87384,34.7499 -16.60837,8.3019 -19.85335,9.1445 -37.20581,9.6613 -10.45578,0.3114 -22.18035,-0.2424 -26.0546,-1.2308 z"
     id="path69" />
</svg>
